<svg xmlns="http://www.w3.org/2000/svg" viewBox="0 0 34.62 34.62"><defs><style>.cls-1{fill:#fff;fill-rule:evenodd;}</style></defs><g id="Calque_2" data-name="Calque 2"><g id="Calque_1-2" data-name="Calque 1"><path class="cls-1" d="M17.31,31.69A14.39,14.39,0,1,1,31.69,17.31,14.38,14.38,0,0,1,17.31,31.69M17.31,0A17.31,17.31,0,1,1,0,17.31,17.31,17.31,0,0,1,17.31,0Zm0,5.85a1.46,1.46,0,0,0-1.46,1.46v10h0a1.42,1.42,0,0,0,.42,1.05l7.07,7.07a1.43,1.43,0,0,0,1,.43,1.47,1.47,0,0,0,1-2.5l-6.64-6.63V7.31A1.46,1.46,0,0,0,17.31,5.85Z"/></g></g></svg>