<svg xmlns="http://www.w3.org/2000/svg" xmlns:xlink="http://www.w3.org/1999/xlink" viewBox="0 0 2194.03 1376.17"><defs><style>.cls-1{fill:none;}.cls-2{isolation:isolate;}.cls-3{fill:url(#linear-gradient);}.cls-4{fill:#91b3fa;}.cls-5{fill:#bdd0fb;}.cls-6{fill:url(#linear-gradient-2);}.cls-7{fill:#7d97f4;}.cls-8{fill:url(#linear-gradient-3);}.cls-20,.cls-65,.cls-9{fill:#fff;}.cls-9{opacity:0.78;}.cls-10{fill:url(#linear-gradient-4);}.cls-11{fill:url(#linear-gradient-5);}.cls-12{fill:url(#linear-gradient-6);}.cls-13{fill:url(#linear-gradient-7);}.cls-14{fill:url(#linear-gradient-8);}.cls-15{fill:url(#linear-gradient-9);}.cls-16{fill:url(#linear-gradient-10);}.cls-17{fill:url(#linear-gradient-11);}.cls-18{fill:url(#linear-gradient-12);}.cls-19{fill:url(#linear-gradient-13);}.cls-20{opacity:0.68;}.cls-21{fill:url(#linear-gradient-14);}.cls-22{fill:url(#linear-gradient-15);}.cls-23{fill:url(#linear-gradient-16);}.cls-24{fill:url(#linear-gradient-17);}.cls-25{fill:url(#linear-gradient-18);}.cls-26{fill:url(#linear-gradient-19);}.cls-27{fill:url(#linear-gradient-20);}.cls-28{fill:url(#linear-gradient-21);}.cls-29{fill:url(#linear-gradient-22);}.cls-30{fill:url(#linear-gradient-23);}.cls-31{fill:url(#linear-gradient-24);}.cls-32{fill:url(#linear-gradient-25);}.cls-33{fill:url(#linear-gradient-26);}.cls-34{fill:url(#linear-gradient-27);}.cls-35{fill:url(#linear-gradient-28);}.cls-36{fill:url(#linear-gradient-29);}.cls-37{fill:url(#linear-gradient-30);}.cls-38{fill:url(#linear-gradient-31);}.cls-39{fill:url(#linear-gradient-32);}.cls-40{fill:url(#linear-gradient-33);}.cls-41{fill:url(#linear-gradient-34);}.cls-42{fill:url(#linear-gradient-35);}.cls-43{fill:url(#linear-gradient-36);}.cls-44{fill:url(#linear-gradient-37);}.cls-45{fill:url(#linear-gradient-38);}.cls-46{fill:url(#linear-gradient-39);}.cls-47{fill:url(#linear-gradient-40);}.cls-48{fill:url(#linear-gradient-41);}.cls-49{fill:url(#linear-gradient-42);}.cls-50{fill:url(#linear-gradient-43);}.cls-51{fill:url(#linear-gradient-44);}.cls-52{fill:url(#linear-gradient-45);}.cls-53{fill:url(#linear-gradient-46);}.cls-54{fill:url(#linear-gradient-47);}.cls-55{fill:url(#linear-gradient-48);}.cls-56{fill:url(#linear-gradient-49);}.cls-57{fill:url(#linear-gradient-50);}.cls-58{fill:url(#linear-gradient-51);}.cls-59{fill:url(#linear-gradient-52);}.cls-60{fill:url(#linear-gradient-53);}.cls-61{fill:url(#linear-gradient-54);}.cls-62{fill:url(#linear-gradient-55);}.cls-63{fill:url(#linear-gradient-56);}.cls-64{fill:url(#linear-gradient-57);}.cls-66{mix-blend-mode:color;}.cls-67{clip-path:url(#clip-path);}.cls-68{fill:#8baad1;}</style><linearGradient id="linear-gradient" x1="0.46" y1="681.27" x2="2194.03" y2="681.27" gradientUnits="userSpaceOnUse"><stop offset="0" stop-color="#dae3fe"/><stop offset="1" stop-color="#e9effd"/></linearGradient><linearGradient id="linear-gradient-2" x1="780.43" y1="23.03" x2="-339.2" y2="1493.63" gradientTransform="translate(241.31 175.67) rotate(-0.05)" gradientUnits="userSpaceOnUse"><stop offset="0" stop-color="#09005d"/><stop offset="1" stop-color="#1a0f91"/></linearGradient><linearGradient id="linear-gradient-3" x1="204.96" y1="739.3" x2="983.88" y2="739.3" xlink:href="#linear-gradient"/><linearGradient id="linear-gradient-4" x1="232.59" y1="325.36" x2="-24.6" y2="764.34" gradientTransform="translate(241.31 175.67) rotate(-0.05)" gradientUnits="userSpaceOnUse"><stop offset="0" stop-color="#a737d5"/><stop offset="1" stop-color="#ef497a"/></linearGradient><linearGradient id="linear-gradient-5" x1="308.79" y1="941.31" x2="391.09" y2="941.31" xlink:href="#linear-gradient"/><linearGradient id="linear-gradient-6" x1="453.22" y1="-243.65" x2="128.34" y2="183.72" xlink:href="#linear-gradient-2"/><linearGradient id="linear-gradient-7" x1="488.85" y1="-216.56" x2="163.98" y2="210.81" xlink:href="#linear-gradient-2"/><linearGradient id="linear-gradient-8" x1="447.91" y1="-190.42" x2="223.59" y2="221.48" gradientTransform="translate(241.31 175.67) rotate(-0.05)" gradientUnits="userSpaceOnUse"><stop offset="0" stop-color="#4042e2"/><stop offset="1" stop-color="#4f52ff"/></linearGradient><linearGradient id="linear-gradient-9" x1="508.18" y1="720.29" x2="502.17" y2="984.29" gradientUnits="userSpaceOnUse"><stop offset="0" stop-color="#ff928e"/><stop offset="1" stop-color="#feb3b1"/></linearGradient><linearGradient id="linear-gradient-10" x1="589.23" y1="1101" x2="317.23" y2="1479" xlink:href="#linear-gradient-9"/><linearGradient id="linear-gradient-11" x1="116.25" y1="1142.54" x2="1135.77" y2="1011.63" gradientUnits="userSpaceOnUse"><stop offset="0" stop-color="#e1473d"/><stop offset="1" stop-color="#e9605a"/></linearGradient><linearGradient id="linear-gradient-12" x1="561.83" y1="475.39" x2="537.83" y2="693.39" xlink:href="#linear-gradient-11"/><linearGradient id="linear-gradient-13" x1="507.33" y1="908.95" x2="529.33" y2="1164.95" xlink:href="#linear-gradient-9"/><linearGradient id="linear-gradient-14" x1="187.52" y1="1289.99" x2="902.35" y2="1289.99" xlink:href="#linear-gradient-11"/><linearGradient id="linear-gradient-15" x1="1694.01" y1="1356.48" x2="1148.21" y2="395.14" gradientTransform="translate(313.58 61.85) rotate(-8.99)" xlink:href="#linear-gradient-2"/><linearGradient id="linear-gradient-16" x1="1467.69" y1="74.62" x2="645.86" y2="1682.3" xlink:href="#linear-gradient-9"/><linearGradient id="linear-gradient-17" x1="754.87" y1="-88.32" x2="750.87" y2="255.68" gradientTransform="matrix(1, 0, 0, 1, 0, 0)" xlink:href="#linear-gradient-2"/><linearGradient id="linear-gradient-18" x1="709.34" y1="69.07" x2="1602.96" y2="702.05" gradientTransform="matrix(1, 0, 0, 1, 0, 0)" xlink:href="#linear-gradient-2"/><linearGradient id="linear-gradient-19" x1="876.8" y1="-2.13" x2="816.8" y2="221.87" gradientTransform="matrix(1, 0, 0, 1, 0, 0)" xlink:href="#linear-gradient-2"/><linearGradient id="linear-gradient-20" x1="1705.55" y1="993.97" x2="1663.55" y2="1179.97" gradientTransform="translate(-1288.28)" xlink:href="#linear-gradient-2"/><linearGradient id="linear-gradient-21" x1="1654.7" y1="1054" x2="1671.72" y2="1054" gradientTransform="translate(-1288.28)" xlink:href="#linear-gradient-9"/><linearGradient id="linear-gradient-22" x1="1700.52" y1="1048.69" x2="1594.2" y2="767.31" gradientTransform="translate(-1288.28)" xlink:href="#linear-gradient-8"/><linearGradient id="linear-gradient-23" x1="1627.36" y1="976.32" x2="1585.36" y2="1162.32" gradientTransform="translate(-1288.28)" xlink:href="#linear-gradient-2"/><linearGradient id="linear-gradient-24" x1="1593.37" y1="1053.13" x2="1608.06" y2="1053.13" gradientTransform="translate(-1288.28)" xlink:href="#linear-gradient-9"/><linearGradient id="linear-gradient-25" x1="1577.54" y1="922.04" x2="1657.42" y2="922.04" gradientTransform="translate(-1288.28)" xlink:href="#linear-gradient-8"/><linearGradient id="linear-gradient-26" x1="1554.82" y1="768.85" x2="1822.59" y2="576.14" gradientTransform="translate(-1288.28)" xlink:href="#linear-gradient-8"/><linearGradient id="linear-gradient-27" x1="1724.73" y1="610.04" x2="1811.67" y2="610.04" gradientTransform="translate(-1288.28)" xlink:href="#linear-gradient-9"/><linearGradient id="linear-gradient-28" x1="7195.48" y1="595.47" x2="7253.82" y2="728.2" gradientTransform="matrix(-1, 0, 0, 1, 7699.5, 0)" xlink:href="#linear-gradient-9"/><linearGradient id="linear-gradient-29" x1="520.6" y1="519.77" x2="533.1" y2="590.27" xlink:href="#linear-gradient-9"/><linearGradient id="linear-gradient-30" x1="1519.54" y1="719.82" x2="1787.3" y2="527.11" gradientTransform="translate(-1288.28)" xlink:href="#linear-gradient-8"/><linearGradient id="linear-gradient-31" x1="1534.49" y1="733.19" x2="1644.51" y2="733.19" gradientTransform="translate(-1288.28)" xlink:href="#linear-gradient-9"/><linearGradient id="linear-gradient-32" x1="403.16" y1="310.35" x2="403.16" y2="544.37" gradientTransform="matrix(1, 0, 0, 1, 0, 0)" xlink:href="#linear-gradient-2"/><linearGradient id="linear-gradient-33" x1="1636.34" y1="721.65" x2="1670.62" y2="721.65" gradientTransform="translate(-1288.28)" xlink:href="#linear-gradient-9"/><linearGradient id="linear-gradient-34" x1="360.93" y1="585.32" x2="347.43" y2="642.32" xlink:href="#linear-gradient-9"/><linearGradient id="linear-gradient-35" x1="-3873.22" y1="253.42" x2="-3900.22" y2="192.42" gradientTransform="matrix(0.75, -0.67, 0.67, 0.75, 4426.97, -1584.64)" xlink:href="#linear-gradient-9"/><linearGradient id="linear-gradient-36" x1="371.95" y1="422.91" x2="359.95" y2="502.91" gradientTransform="matrix(1, 0, 0, 1, 0, 0)" xlink:href="#linear-gradient-2"/><linearGradient id="linear-gradient-37" x1="-3886.53" y1="259.3" x2="-3913.53" y2="198.3" gradientTransform="matrix(0.75, -0.67, 0.67, 0.75, 4426.97, -1584.64)" xlink:href="#linear-gradient-9"/><linearGradient id="linear-gradient-38" x1="-6288.52" y1="1357.76" x2="-6223.47" y2="1357.76" gradientTransform="matrix(-1, 0, 0, 1, -4642.57, 0)" xlink:href="#linear-gradient-2"/><linearGradient id="linear-gradient-39" x1="-6288.52" y1="1369.46" x2="-6223.47" y2="1369.46" gradientTransform="matrix(-1, 0, 0, 1, -4642.57, 0)" xlink:href="#linear-gradient-8"/><linearGradient id="linear-gradient-40" x1="-6402.79" y1="1357.92" x2="-6372.33" y2="1357.92" gradientTransform="matrix(-1, 0, 0, 1, -4642.57, 0)" xlink:href="#linear-gradient-2"/><linearGradient id="linear-gradient-41" x1="-6402.79" y1="1371.77" x2="-6373.24" y2="1371.77" gradientTransform="matrix(-1, 0, 0, 1, -4642.57, 0)" xlink:href="#linear-gradient-8"/><linearGradient id="linear-gradient-42" x1="-6389.91" y1="1336.92" x2="-6370.15" y2="1336.92" gradientTransform="matrix(-1, 0, 0, 1, -4642.57, 0)" xlink:href="#linear-gradient-9"/><linearGradient id="linear-gradient-43" x1="-6285.21" y1="1335.63" x2="-6268.74" y2="1335.63" gradientTransform="matrix(-1, 0, 0, 1, -4642.57, 0)" xlink:href="#linear-gradient-9"/><linearGradient id="linear-gradient-44" x1="1780.64" y1="722.38" x2="1724.64" y2="976.38" gradientTransform="matrix(1, 0, 0, 1, 0, 0)" xlink:href="#linear-gradient-8"/><linearGradient id="linear-gradient-45" x1="-6244.25" y1="1082.39" x2="-6311.67" y2="1169.55" gradientTransform="matrix(-1, 0, 0, 1, -4642.57, 0)" gradientUnits="userSpaceOnUse"><stop offset="0" stop-color="#cb236d"/><stop offset="1" stop-color="#4c246d"/></linearGradient><linearGradient id="linear-gradient-46" x1="1787" y1="1041.28" x2="1201.59" y2="1052.76" gradientTransform="translate(-49)" xlink:href="#linear-gradient-8"/><linearGradient id="linear-gradient-47" x1="-6054.74" y1="811.25" x2="-6136.93" y2="940.31" gradientTransform="matrix(-1, 0, 0, 1, -4642.57, 0)" xlink:href="#linear-gradient-9"/><linearGradient id="linear-gradient-48" x1="1578.34" y1="854.12" x2="1611.67" y2="974.78" xlink:href="#linear-gradient-9"/><linearGradient id="linear-gradient-49" x1="1845.24" y1="-309.64" x2="2137.45" y2="-309.64" gradientTransform="translate(-371.79 690.29) rotate(18.5)" gradientUnits="userSpaceOnUse"><stop offset="0" stop-color="#fe7062"/><stop offset="1" stop-color="#ff928e"/></linearGradient><linearGradient id="linear-gradient-50" x1="1503.44" y1="1026.04" x2="1758.15" y2="1026.04" xlink:href="#linear-gradient"/><linearGradient id="linear-gradient-51" x1="2002.69" y1="-339.59" x2="2061.97" y2="-73.76" xlink:href="#linear-gradient-49"/><linearGradient id="linear-gradient-52" x1="1787.53" y1="958.5" x2="1197.57" y2="970.06" gradientTransform="translate(-49)" xlink:href="#linear-gradient-8"/><linearGradient id="linear-gradient-53" x1="-6360.15" y1="1058.71" x2="-6312.56" y2="1058.71" gradientTransform="matrix(-1, 0, 0, 1, -4642.57, 0)" xlink:href="#linear-gradient-9"/><linearGradient id="linear-gradient-54" x1="-3854.12" y1="-1147.08" x2="-3901.45" y2="-1107.08" gradientTransform="matrix(-1, 0, 0, 1, -4642.57, 0)" xlink:href="#linear-gradient-9"/><linearGradient id="linear-gradient-55" x1="1671.84" y1="464.11" x2="1635.84" y2="624.11" gradientTransform="matrix(1, 0, 0, 1, 0, 0)" xlink:href="#linear-gradient-8"/><linearGradient id="linear-gradient-56" x1="-3861.43" y1="-1155.73" x2="-3908.76" y2="-1115.73" gradientTransform="matrix(-1, 0, 0, 1, -4642.57, 0)" xlink:href="#linear-gradient-9"/><linearGradient id="linear-gradient-57" x1="1486.83" y1="807.7" x2="1509.81" y2="807.7" gradientTransform="translate(-49)" xlink:href="#linear-gradient-9"/><clipPath id="clip-path" transform="translate(0)"><rect class="cls-1" y="0.17" width="2194" height="1376"/></clipPath></defs><g class="cls-2"><g id="Calque_2" data-name="Calque 2"><g id="Illustration"><path class="cls-3" d="M2089.79,713c4-86.53,61.68-160.38,88.17-242.85,31.58-98.33,16-210.69-41.23-296.68S1981.94,29.64,1879,20.77C1722.67,7.28,1579.41,99,1443.61,177.7S1144.89,327,998.53,270.3C896.86,230.93,826.79,138.11,736.52,77,596.49-17.9,400.16-27.88,257.35,62.74S39.94,344.15,94.41,504.28C120,579.46,171.28,650.59,163.35,729.6,152.83,834.38,43.86,902.26,10.57,1002.17c-28.67,86.05,6.18,185,71.83,247.59s157,92.52,247.41,100,181.09-5.46,270.86-18.4l-5.82,31.14,442.28-34.25c175.69-13.6,352.21-27.21,527.9-13.63,125.62,9.72,253.24,33.18,376.29,6.12s243-123.1,247-249C2192.32,946.63,2084.05,838.06,2089.79,713Z" transform="translate(0)"/><path class="cls-4" d="M2176.25,1139.34c-67.51-32-471-200.11-767.37,188.56,0,0,224.37,186,766.64-176.67C2180.26,1148.06,2180.66,1141.43,2176.25,1139.34Z" transform="translate(0)"/><path class="cls-5" d="M2094.88,1161.44c-26,.13-52,.81-78,1.72s-52,2.16-77.92,3.7c-51.9,3.12-103.75,7.34-155.39,13.25q-38.73,4.34-77.27,10.15t-76.75,13.31c-12.74,2.44-25.39,5.32-38.06,8.1-12.6,3.06-25.23,6-37.71,9.49A741,741,0,0,0,1480,1245h0a4.13,4.13,0,0,1-3-7.7l0,0a746.61,746.61,0,0,1,74.83-23.57c12.61-3.42,25.35-6.29,38.06-9.27,12.76-2.71,25.51-5.5,38.34-7.86q38.41-7.36,77.16-12.78t77.57-9.58c51.81-5.53,103.77-9.36,155.77-12.08q39-2,78-3.12c26-.71,52-1.19,78.11-1.12a1.75,1.75,0,0,1,0,3.5Z" transform="translate(0)"/><path class="cls-4" d="M2101.63,76a13.12,13.12,0,0,0-18.44-13.36c-141.57,63.55-950.3,467-708,1293.92C1375.17,1356.55,1976,1228,2101.63,76Z" transform="translate(0)"/><path class="cls-5" d="M2010,201.39c-33.51,36.44-66.28,73.61-98.72,111s-64.42,75.28-96,113.47-62.64,76.74-93.27,115.66-60.62,78.34-90.13,118.11c-58.86,79.63-115.43,161-167.39,245.26q-39.16,63-73.58,128.82c-22.82,43.83-43.92,88.6-61.34,134.77v0a4.14,4.14,0,0,1-7.74-2.92v0c17.76-46.52,39.17-91.46,62.27-135.41s48-86.94,74.36-129c52.44-84.27,109.43-165.55,168.69-245.05q44.55-59.55,90.7-117.87t93.81-115.39q47.58-57.13,96.48-113.16c32.61-37.33,65.54-74.36,99.25-110.74a1.75,1.75,0,1,1,2.57,2.38Z" transform="translate(0)"/><path class="cls-4" d="M1270.7,504.08c42.11,47.49,275.15,336.78,28.41,671,0,0-205.08-138.9-37.94-667.54C1262.63,502.87,1268,501,1270.7,504.08Z" transform="translate(0)"/><path class="cls-5" d="M1271.73,575.78a1.75,1.75,0,0,1,3.37-1c12.43,42.51,23.49,85.36,33.72,128.43s19.41,86.39,27.24,130q5.94,32.68,10.65,65.59t8,66c1.13,11,1.88,22.1,2.72,33.16.59,11.09,1.28,22.17,1.5,33.28a632.72,632.72,0,0,1-1.43,66.73,4.13,4.13,0,1,1-8.24-.66v-.06a622.82,622.82,0,0,0,2-65.84c-.11-11-.69-22-1.18-33-.73-11-1.38-22-2.41-33q-2.83-33-7.32-65.77t-10-65.46c-7.42-43.54-16.25-86.84-26-129.94s-20.5-86-32.51-128.5Z" transform="translate(0)"/><path class="cls-6" d="M135.78,260.22a83,83,0,0,1,83-83.13l706.32-.63a73.19,73.19,0,0,1,73.14,69.39l53,1024a54,54,0,0,1-52.86,56.75L188.89,1342a51.23,51.23,0,0,1-52.2-51.17Z" transform="translate(0)"/><path class="cls-5" d="M307.18,1324.63h0l-90.58-1.09a56,56,0,0,1-55.11-55.73l-.13-136.76a2.07,2.07,0,0,1,2.07-2.07h0a2.07,2.07,0,0,1,2.07,2.06l.12,136.76a51.85,51.85,0,0,0,51,51.6l90.58,1.09a2.07,2.07,0,0,1,0,4.14Z" transform="translate(0)"/><rect class="cls-5" x="161.3" y="1064.47" width="4.13" height="26.28" rx="2.07"/><path class="cls-7" d="M193.58,192.87a24.12,24.12,0,0,1,27.34-24.08c96.47,13,428.19,53.15,702.4,31.86a22.31,22.31,0,0,1,24,21l55.58,1028.54a25.68,25.68,0,0,1-24.09,27c-115.33,6.93-590.3,33.74-759.74,16.14a20.33,20.33,0,0,1-18.21-20.11Z" transform="translate(0)"/><path class="cls-8" d="M205,218.64a23.21,23.21,0,0,1,26.31-23.18c92.83,12.5,412.06,51.15,675.94,30.66a21.47,21.47,0,0,1,23.14,20.23l53.49,989.81a24.72,24.72,0,0,1-23.19,26c-111,6.66-568.07,32.46-731.12,15.53A19.58,19.58,0,0,1,212,1258.34Z" transform="translate(0)"/><path class="cls-9" d="M291,294.88,301,507.09A13.49,13.49,0,0,0,314.11,520c39.3,1.07,161.78,3.95,230.92.28a15.06,15.06,0,0,0,14.26-14.58c1.28-39.8,4.07-155.63-5-204a17,17,0,0,0-16.15-13.82l-232.31-7.91A14.34,14.34,0,0,0,291,294.88Z" transform="translate(0)"/><circle class="cls-4" cx="424.7" cy="370.63" r="45.62" transform="translate(-119.69 516.85) rotate(-56.15)"/><path class="cls-4" d="M355.53,504.63l145.34-.13a11.24,11.24,0,0,0,9.43-17.35c-12.36-19.31-38.22-47.66-82.95-46.34-43.11,1.27-68.64,26.93-81.47,45.32A11.76,11.76,0,0,0,355.53,504.63Z" transform="translate(0)"/><path class="cls-5" d="M876.45,312.83a3.87,3.87,0,0,0,3.88-4l-.19-6.24a4.25,4.25,0,0,0-4.12-4.07l-263.3-4.45a2.59,2.59,0,0,0-2.66,3.7l4.07,11.52a6.06,6.06,0,0,0,5.33,3.77Z" transform="translate(0)"/><path class="cls-5" d="M612.76,333.63a2.6,2.6,0,0,0-2.67,3.7l4.07,11.53a6,6,0,0,0,5.33,3.76l257-.22a3.88,3.88,0,0,0,3.88-4l-.19-6.24a4.23,4.23,0,0,0-4.11-4.06Z" transform="translate(0)"/><path class="cls-5" d="M612.79,373.77a2.59,2.59,0,0,0-2.66,3.7L614.2,389a6.06,6.06,0,0,0,5.33,3.77l257-.23a3.87,3.87,0,0,0,3.88-4l-.19-6.24a4.25,4.25,0,0,0-4.12-4.07Z" transform="translate(0)"/><path class="cls-5" d="M901.43,586.07a3.71,3.71,0,0,0,3.74-4l-.42-6.26a4.4,4.4,0,0,0-4.27-4l-605.35-4.23c-2.2,0-2.87,1.38-1.5,3.1l10.21,12.8a9.44,9.44,0,0,0,6.5,3.13Z" transform="translate(0)"/><path class="cls-5" d="M295.17,607.13c-2.2,0-2.88,1.38-1.51,3.1L303.88,623a9.41,9.41,0,0,0,6.49,3.12l591.1-.52a3.71,3.71,0,0,0,3.73-4l-.42-6.25a4.37,4.37,0,0,0-4.26-4Z" transform="translate(0)"/><path class="cls-5" d="M377.57,760h-.13l-50.37-.44c-7.26-.06-13.26-5.05-14-11.62l-4.46-42.25a9.29,9.29,0,0,1,2.19-7,11.17,11.17,0,0,1,7.8-3.86h0c4.24-.29,10.22-.81,16.54-1.35,14-1.21,29.9-2.58,39.24-2.7,6.76-.08,12.63,4,14.24,10,2.64,9.72,2.42,28.1,1.94,47.67C390.44,754.84,384.61,760,377.57,760ZM318.92,699a7,7,0,0,0-4.91,2.4,5.19,5.19,0,0,0-1.25,3.91l4.47,42.26c.47,4.47,4.72,7.88,9.88,7.92l50.37.44h.09c4.81,0,8.79-3.39,8.9-7.59.47-19.25.69-37.29-1.8-46.48-1.09-4-5.3-6.9-10-6.9h-.16c-9.18.13-25.68,1.55-38.93,2.69-6.35.54-12.34,1.06-16.62,1.35Z" transform="translate(0)"/><path class="cls-5" d="M421.62,716a2.92,2.92,0,0,0-3,3.86l4.61,17.43a5.4,5.4,0,0,0,5,3.82l465.35-5.28a4,4,0,0,0,3.91-4L897.3,721a4.12,4.12,0,0,0-4.09-4Z" transform="translate(0)"/><path class="cls-10" d="M326.49,709.81h0a7.73,7.73,0,0,1,10.66,2.9l10,17.8a2.49,2.49,0,0,0,4.44-.2l24.59-54.88a2.75,2.75,0,0,1,5.26,1.18c-.24,16.78-4.66,48.68-31.45,75.41,0,0-14.78-5.73-26.7-31.85A8.12,8.12,0,0,1,326.49,709.81Z" transform="translate(0)"/><path class="cls-5" d="M377.66,868h-.12l-50.37-.44c-7.27-.07-13.27-5.06-14-11.63l-4.47-42.25a9.34,9.34,0,0,1,2.2-7,11.19,11.19,0,0,1,7.79-3.86h0c4.25-.29,10.22-.81,16.55-1.35,14-1.21,29.9-2.57,39.23-2.7,6.76-.07,12.63,4,14.25,10,2.64,9.73,2.42,28.1,1.94,47.67C390.54,862.79,384.7,868,377.66,868ZM319,806.92a7,7,0,0,0-4.92,2.39,5.19,5.19,0,0,0-1.24,3.91l4.46,42.26c.47,4.47,4.72,7.88,9.88,7.92l50.37.44h.09c4.82,0,8.8-3.38,8.9-7.58.48-19.26.7-37.3-1.79-46.48-1.1-4-5.3-6.91-10-6.91h-.15c-9.18.12-25.68,1.54-38.94,2.68-6.34.55-12.33,1.06-16.61,1.36Z" transform="translate(0)"/><path class="cls-5" d="M324.43,811.14c10.58-.73,33.58-3.09,44.49-3.23,4.62-.06,8.67,2.73,9.76,6.73,2.11,7.78,1.85,23.3,1.5,37.62-.11,4.29-4.05,7.71-8.86,7.67l-40.25-.35c-4.95,0-9.06-3.41-9.52-7.81L318,818C317.61,814.51,320.51,811.41,324.43,811.14Z" transform="translate(0)"/><path class="cls-5" d="M421.72,824a2.93,2.93,0,0,0-3,3.86l4.61,17.43a5.42,5.42,0,0,0,5,3.82l465.35-5.28a4,4,0,0,0,3.91-4L897.39,829a4.13,4.13,0,0,0-4.09-4Z" transform="translate(0)"/><path class="cls-11" d="M377.76,975.93h-.13l-50.37-.44c-7.26-.06-13.26-5.06-14-11.62l-4.46-42.26a9.29,9.29,0,0,1,2.19-7,11.16,11.16,0,0,1,7.8-3.85h0c4.24-.3,10.2-.81,16.51-1.35,13.34-1.15,29.93-2.58,39.27-2.71,6.76-.12,12.63,4,14.24,10,2.64,9.71,2.43,28.09,1.94,47.66C390.63,970.74,384.8,975.93,377.76,975.93Zm-2.94-65.1h-.16c-9.18.12-25.69,1.54-39,2.68-6.33.55-12.31,1.06-16.58,1.36h0a7.06,7.06,0,0,0-4.91,2.39,5.2,5.2,0,0,0-1.25,3.92l4.47,42.25c.47,4.47,4.72,7.88,9.88,7.93l50.37.43h.09c4.81,0,8.8-3.38,8.9-7.58.47-19.26.69-37.3-1.8-46.48C383.77,913.71,379.56,910.83,374.82,910.83Z" transform="translate(0)"/><path class="cls-5" d="M324.53,919.09c10.58-.73,33.57-3.08,44.48-3.23,4.62-.06,8.68,2.73,9.77,6.73,2.11,7.79,1.84,23.3,1.49,37.62-.1,4.29-4,7.72-8.85,7.67l-40.25-.35c-4.95,0-9.06-3.41-9.53-7.81L318.07,926C317.7,922.46,320.61,919.37,324.53,919.09Z" transform="translate(0)"/><path class="cls-5" d="M421.81,931.94a2.91,2.91,0,0,0-3,3.85l4.61,17.43a5.42,5.42,0,0,0,5,3.83l465.36-5.29a4,4,0,0,0,3.91-4l-.25-10.79a4.14,4.14,0,0,0-4.09-4Z" transform="translate(0)"/><path class="cls-5" d="M377.85,1083.88h-.12l-50.37-.44c-7.26-.06-13.27-5.06-14-11.62l-4.47-42.26a9.36,9.36,0,0,1,2.2-7,11.2,11.2,0,0,1,7.8-3.85c4.23-.3,10.19-.81,16.51-1.35,13.33-1.15,29.93-2.58,39.27-2.7,6.71-.09,12.62,4,14.24,9.95,2.64,9.71,2.42,28.09,1.94,47.66C390.73,1078.69,384.9,1083.88,377.85,1083.88Zm-2.93-65.1h-.16c-9.19.12-25.7,1.54-39,2.69-6.33.54-12.31,1.06-16.58,1.35h0a7.06,7.06,0,0,0-4.91,2.39,5.19,5.19,0,0,0-1.25,3.92l4.46,42.26c.48,4.47,4.72,7.87,9.89,7.92l50.37.44h.08c4.82,0,8.8-3.39,8.91-7.59.47-19.25.69-37.3-1.8-46.48C383.87,1021.66,379.66,1018.78,374.92,1018.78Z" transform="translate(0)"/><path class="cls-5" d="M324.62,1027.05c10.58-.74,33.58-3.09,44.49-3.24,4.62-.06,8.68,2.73,9.76,6.74,2.11,7.78,1.85,23.29,1.5,37.61-.11,4.29-4,7.72-8.85,7.68l-40.26-.35c-4.95,0-9.06-3.42-9.52-7.81l-3.57-33.77C317.8,1030.41,320.7,1027.32,324.62,1027.05Z" transform="translate(0)"/><path class="cls-5" d="M421.91,1039.89a2.92,2.92,0,0,0-3,3.86l4.62,17.43a5.43,5.43,0,0,0,5,3.82l465.35-5.28a4,4,0,0,0,3.91-4l-.24-10.79a4.15,4.15,0,0,0-4.1-4Z" transform="translate(0)"/><path class="cls-12" d="M615.6,37.12c-25.53-17.73-47.71-17.36-63.33-12.74a31.15,31.15,0,0,0-22.09,32.77l6.8,73.5,80.15,7S665.67,71.88,615.6,37.12ZM580.41,96.45a20,20,0,1,1,20-20A20,20,0,0,1,580.41,96.45Z" transform="translate(0)"/><path class="cls-4" d="M545,99.86A2.07,2.07,0,0,1,542.9,98l-1.08-11.7a2.06,2.06,0,1,1,4.11-.39L547,97.6a2.07,2.07,0,0,1-1.87,2.25Zm-2.13-22.94A2.07,2.07,0,0,1,540.78,75L540,66.15A29.85,29.85,0,0,1,561.1,34.8a60,60,0,0,1,29.36-1.23A2.05,2.05,0,0,1,592.07,36a2.08,2.08,0,0,1-2.44,1.62,55.88,55.88,0,0,0-27.35,1.14,25.72,25.72,0,0,0-18.21,27l.82,8.89A2.06,2.06,0,0,1,543,76.91Z" transform="translate(0)"/><path class="cls-13" d="M427.65,178.26l0-37a22.55,22.55,0,0,1,23.31-22.56l254.82,8.5a22,22,0,0,1,21.16,20.59l2.16,35.51Z" transform="translate(0)"/><path class="cls-4" d="M511.66,132.74a2.07,2.07,0,1,1,0-4.13h11a2.07,2.07,0,1,1,0,4.13Z" transform="translate(0)"/><path class="cls-4" d="M441.43,166.77a2.06,2.06,0,0,1-2.07-2.06l0-15a21.11,21.11,0,0,1,21.07-21.11l40.29,0h0a2.07,2.07,0,1,1,0,4.13l-40.29,0a17,17,0,0,0-16.93,17V164.7a2.07,2.07,0,0,1-2.06,2.07Z" transform="translate(0)"/><path class="cls-14" d="M347.79,164.8l445.59-.41a32.93,32.93,0,0,1,32.47,27.29l.38,2.18A28.28,28.28,0,0,1,798.39,227l-457.14.41a18.4,18.4,0,0,1-18.39-19.26l1-20.46A24,24,0,0,1,347.79,164.8Z" transform="translate(0)"/><path class="cls-5" d="M255.84,608.11c95,13.4,644.8,113.93,643.13,646.78,0,0-379,27-651.79-635.66A8.12,8.12,0,0,1,255.84,608.11Z" transform="translate(0)"/><path class="cls-4" d="M324.65,675.51c26.31,15.78,52.26,32.09,78.08,48.62s51.43,33.39,76.85,50.54q76.26,51.42,149.9,106.66c48.94,37,96.84,75.42,142.57,116.43q34.4,30.65,66.51,63.81c21.34,22.14,41.86,45.16,60.5,69.79a4.14,4.14,0,0,1-6.6,5v0l0,0c-18.2-24.38-38.37-47.33-59.41-69.43s-43-43.38-65.71-63.87c-45.26-41.12-92.8-79.77-141.39-117S527.5,813.12,477,778.55q-37.92-25.93-76.44-51c-25.68-16.68-51.52-33.15-77.66-49.06h0a1.75,1.75,0,0,1,1.81-3Z" transform="translate(0)"/><path class="cls-4" d="M455.66,71.12a11.4,11.4,0,0,1,16.82-10.4c118.5,64,793,464.43,530.86,1164.82C1003.34,1225.54,491.46,1076.21,455.66,71.12Z" transform="translate(0)"/><path class="cls-5" d="M529.6,183.42c26.89,33.62,53,67.75,78.93,102.13s51.32,69.06,76.38,104,49.7,70.24,73.92,105.8,47.87,71.52,71.08,107.76c46.28,72.56,90.49,146.52,130.57,222.78q30.24,57.09,56.24,116.37c17.23,39.51,32.94,79.78,45.39,121.2a4.13,4.13,0,1,1-7.92,2.38v0h0c-12.13-41-27.54-81.12-44.5-120.5s-35.55-78.11-55.47-116.14C914.6,753,870.82,679,824.94,606.3q-34.5-54.45-70.49-107.95t-73.37-106Q643.78,339.72,605.25,288c-25.69-34.46-51.7-68.71-78.38-102.39h0a1.75,1.75,0,0,1,2.74-2.18Z" transform="translate(0)"/><path class="cls-15" d="M745.05,1012.22v-1.34l-243.69.67-243.68-.67v1.34l-33.76.1v15.16c0,2.6,2.25,5.07,6.18,6.78l3.87,1.68c3.19,1.38,2.52,3.94-1.27,4.87-2.5.61-3,2.29-.89,3.22l4.89,2.19c3.2,1.43,3.2,3.93,0,5.37l-3.5,1.57c-3,1.36-2.94,3.76.18,5.06l3.77,1.57c2.62,1.09,3.05,3,1,4.38l-2.07,1.37a4.3,4.3,0,0,0-2.29,3.41v23.94H768.94V1069a4.3,4.3,0,0,0-2.29-3.41l-2.07-1.37c-2.06-1.35-1.63-3.29,1-4.38l3.77-1.57c3.12-1.3,3.21-3.7.18-5.06l-3.5-1.57c-3.19-1.44-3.19-3.94,0-5.37l4.89-2.19c2.07-.93,1.61-2.61-.89-3.22-3.79-.93-4.46-3.49-1.27-4.87l3.87-1.68c3.93-1.71,6.18-4.18,6.18-6.78v-15.16Z" transform="translate(0)"/><path class="cls-16" d="M223.92,1092.71v53c0,9.1,2.33,17.76,6.4,23.72l4,5.88c3.3,4.84,2.61,13.81-1.32,17h0c-2.58,2.14-3.07,8-.92,11.28l5.06,7.63c3.42,5.17,3.43,13.63,0,18.81l-3.63,5.52c-3.14,4.76-3,13.13.19,17.69l3.9,5.51c2.71,3.82,3.16,10.57,1,15.33l-2.15,4.79a29.6,29.6,0,0,0-2.37,11.93v83.76H763.61l-6.51-42.13,5.39-21.18a10.79,10.79,0,0,0-1.33-8.38l-.25-.41a10.81,10.81,0,0,1,.41-12.11l12.13-17.11a10.83,10.83,0,0,0,1.51-9.77l-16.67-49.88a10.77,10.77,0,0,1,.11-7.11l9.79-26.68a11.07,11.07,0,0,0-3.61-12.44h0a11,11,0,0,1-2.76-14.25l.28-.47a11,11,0,0,0,1.51-5.52v-59.53Z" transform="translate(0)"/><path class="cls-17" d="M784.74,1100.18H221a7.11,7.11,0,0,1-6.93-7.29h0a7.12,7.12,0,0,1,6.93-7.29H784.74a7.13,7.13,0,0,1,6.94,7.29h0A7.12,7.12,0,0,1,784.74,1100.18Z" transform="translate(0)"/><path class="cls-18" d="M784.74,1018.17H221a7.12,7.12,0,0,1-6.93-7.29h0a7.11,7.11,0,0,1,6.93-7.29H784.74a7.12,7.12,0,0,1,6.94,7.29h0A7.13,7.13,0,0,1,784.74,1018.17Z" transform="translate(0)"/><path class="cls-19" d="M207.63,1217.61v27.91A15.8,15.8,0,0,0,214,1258l4,3.1c3.3,2.54,2.6,7.26-1.32,9h0a3.42,3.42,0,0,0-.92,5.94l5.06,4a6.16,6.16,0,0,1,0,9.88l-3.63,2.91a5.72,5.72,0,0,0,.19,9.3l3.9,2.9a5.44,5.44,0,0,1,1,8.06l-2.15,2.52a9.67,9.67,0,0,0-2.37,6.28v44.06H862.38V1215Z" transform="translate(0)"/><path class="cls-20" d="M844,1249.92H226.2a1.78,1.78,0,1,1,0-3.53H844a1.78,1.78,0,1,1,0,3.53Z" transform="translate(0)"/><path class="cls-20" d="M844,1276.2H238.1a1.78,1.78,0,1,1,0-3.53H844a1.78,1.78,0,1,1,0,3.53Z" transform="translate(0)"/><path class="cls-20" d="M844,1295.54H244.2a1.78,1.78,0,1,1,0-3.53H844a1.78,1.78,0,1,1,0,3.53Z" transform="translate(0)"/><path class="cls-21" d="M872,1205.34H196.05c-4.27,0-8.09,2.78-8.49,6.57-.47,4.35,3.36,8,8.14,8H830.82c9.14,0,17,5.7,18.93,13.66,8.5,35.68,7.86,72.82-.15,111.15-1.86,8.88-10.59,15.33-20.73,15.33H206.33c-4.27,0-8.09,2.78-8.5,6.57-.46,4.35,3.36,8,8.15,8H868.26c13.09,0,24.36-8.32,26.69-19.8,9.45-46.49,10.28-91.12,0-133.34-2.3-9.47-11.8-16.16-22.66-16.16Z" transform="translate(0)"/><path class="cls-20" d="M745.27,1133.84H260.48a1.78,1.78,0,1,1,0-3.53H745.27a1.78,1.78,0,1,1,0,3.53Z" transform="translate(0)"/><path class="cls-22" d="M1308.25,187.26s111.43,29.11,149-50.26,178.07-161.7,293.12-46.36,14.29,238.1,124.69,260.7,168.35,93.56,121.07,237.9S1971.6,730,2025.27,794.94s29.86,125.47-92.34,218.24-270.85-23.93-315.44-137.06-18.38-137.3-64.49-133.35-158.59-95.1-136.85-232.07S1308.25,187.26,1308.25,187.26Z" transform="translate(0)"/><path class="cls-23" d="M836,181S770,233.77,737,296.41c-20,37.94-29.67,85.74-29.67,98.92s13.18,56.06,0,65.95-85.74,79.14-95.63,92.33,9.89,46.16,29.68,59.35c0,0,16.49,33-9.89,46.16,0,0-13.19,23.08,16.48,39.57,0,0-23.08,16.48-9.89,33s26.38,19.79,26.38,29.68S641.42,804.2,648,827.28s19.79,56.06,131.9,46.17,115.4,3.29,128.59,19.78,52.76,122,66,188,13.19,95.62-6.6,122c-18.66,24.88-84.27,93.78-102.72,159.64a9.35,9.35,0,0,0,9,11.82h525.17a34.43,34.43,0,0,0,32.1-46.89c-20.88-53.69-56.2-140.64-84.39-190.52-42.87-75.84-102.22-267.08-95.63-290.16s-69.24-375.9-36.27-445.14S915.1,98.58,836,181Z" transform="translate(0)"/><path class="cls-24" d="M727.15,477.77s13.19,16.48,62.65,6.59c0,0-16.49,19.79-49.46,16.49S690.88,477.77,727.15,477.77Z" transform="translate(0)"/><path class="cls-25" d="M817.83,195.85s-6.6-36.27,62.64-72.54,214.33-82.44,333-49.46,217.63,141.78,257.2,224.21,6.59,293.47-33,369.3-191.24,184.65-211,141.79-112-50.65-79.13-158.27c40.06-131-23.08-148.38-82.44-105.52S999.18,608,979.39,604.71,1012.37,195.85,817.83,195.85Z" transform="translate(0)"/><path class="cls-26" d="M823.93,415.6a1.82,1.82,0,0,0,2.46-2.62C816,399.42,793.85,374.64,770,372.25c-32.81-3.28-59.35,9.9-59.35,16.49,0,2.51,1.44,6.46,3.21,10.38a11.52,11.52,0,0,0,17,4.85c11.84-8,31.85-18.38,49.06-11.93C797,398.43,814,409,823.93,415.6Z" transform="translate(0)"/><path class="cls-27" d="M368.05,1054.05s-2,11.23-3,22.35a7.66,7.66,0,0,0,7.33,8.3c14.81.62,46.48,1.82,57.85,1.31a2.5,2.5,0,0,0,2.19-3.41h0a5.56,5.56,0,0,0-2.85-3l-52.32-24Z" transform="translate(0)"/><path class="cls-28" d="M366.43,1047.45l1.59,13.44s9.16,4.26,15.42-.54l-3.79-15Z" transform="translate(0)"/><path class="cls-29" d="M367.62,794.86c-.69,3.51-3.69,175.09,14.65,252a2.61,2.61,0,0,1-1.53,3,45.41,45.41,0,0,1-14.94,3,4.49,4.49,0,0,1-4.46-3.23c-5.24-17.84-30.36-107.22-33.64-192.6-3.66-95.41,0-3.25,0-3.25l2.15-59Z" transform="translate(0)"/><path class="cls-30" d="M307.87,1059.91s-3.16,5.67-6.22,20.74a4.68,4.68,0,0,0,4.12,5.6c4.88.48,12.41,1.09,18.44,1a4.66,4.66,0,0,0,4.61-5.2c-.66-5.5-2.74-14.52-9.17-21.55Z" transform="translate(0)"/><path class="cls-31" d="M305.09,1042.63l3.73,20.32s3.68,2.74,11,.75L318,1041.84Z" transform="translate(0)"/><path class="cls-32" d="M295,800.13c-15,90.52,3.26,223.74,9.41,249.81a4.08,4.08,0,0,0,3.29,3.09,27.31,27.31,0,0,0,11.73-.47,3.75,3.75,0,0,0,2.68-3.43c.82-21.08-.66-150.49,13.31-201.63a11.64,11.64,0,0,1,4.48-6.41l27.13-19.28,2.08-31.18Z" transform="translate(0)"/><path class="cls-33" d="M390.61,628.6c-44.95-.74-94.55,11.81-94.55,11.81-13.4,78.18-2.34,168.36-2.34,168.36,34.8,9.12,74.06-5.58,74.06-5.58,5.78-32.68,32.77-124.65,32.77-124.65,22-2.72,40.05-9.06,54.95-17.44-11.36-13.17-16.72-29.94-19.05-39.84C420.56,626.2,404.48,628.83,390.61,628.6Z" transform="translate(0)"/><path class="cls-34" d="M523.39,562.39a8.61,8.61,0,0,0-10-2.81c-6.61,27.95-41.3,50.6-76.93,61.68,2.33,9.9,7.69,26.67,19.05,39.84C514.64,627.85,523.39,562.39,523.39,562.39Z" transform="translate(0)"/><path class="cls-35" d="M522.32,563.75c.46,1.47-4.89,3.71-8-2.3-.11-2.88-1.86-15.22-.14-17.56,9.16-12.49,26.93-28.15,26.93-28.15a4.22,4.22,0,0,1,.52,5.87l-8.61,9c1.8,3.25,4,6,5,9.94a12.06,12.06,0,0,1-1.21,8.89,105.47,105.47,0,0,1-5.52,9A11.93,11.93,0,0,1,522.32,563.75Z" transform="translate(0)"/><path class="cls-36" d="M529.21,536.41l-7.86,6.66-2.46,6.63,7,7.77s2.35-13.16,4.1-16S530.84,537.24,529.21,536.41Z" transform="translate(0)"/><path class="cls-37" d="M313.3,683.93l-17.24-43.52s-42,28.53-48.89,64.7c7.93.58,22.37,2.64,36.5,9.78C286.77,697.81,313.3,683.93,313.3,683.93Z" transform="translate(0)"/><path class="cls-38" d="M350,724.89s-47.14,26.64-63,3.89a17.9,17.9,0,0,1-3.28-13.89c-14.13-7.14-28.57-9.2-36.5-9.78a49.92,49.92,0,0,0,5.43,34.22c27.86,51,103.63-2.82,103.63-2.82Z" transform="translate(0)"/><path class="cls-39" d="M344.33,758.59l25.73-89.84a2.61,2.61,0,0,1,2.21-1.89c4.67-.54,18.17-2.07,33.77-3.39,18.78-1.59,40.6-2.88,53.63-1.78a2.62,2.62,0,0,1,2.15,3.78c-7.41,15-37.9,76-53.17,96a2.64,2.64,0,0,1-2.12,1l-59.7-.55A2.64,2.64,0,0,1,344.33,758.59Z" transform="translate(0)"/><path class="cls-7" d="M408.71,655.68l18.65-3.11a1.34,1.34,0,0,1,1.49,1.74l-1.85,5.6a1.33,1.33,0,0,1-1.09.91l-18,2.39a1.34,1.34,0,0,1-1.48-1.63l1.14-4.88A1.35,1.35,0,0,1,408.71,655.68Z" transform="translate(0)"/><path class="cls-7" d="M394.74,671.47l1.54-8a1.84,1.84,0,0,1,1.63-1.49l37.67-3.83a1.86,1.86,0,0,1,2,2.28l-2.4,10a1.84,1.84,0,0,1-1.7,1.42l-36.82,1.85A1.85,1.85,0,0,1,394.74,671.47Z" transform="translate(0)"/><path class="cls-40" d="M350.55,736.89s-3.59-14.74-2.14-20S352.65,705,362,706.47a136.36,136.36,0,0,1,20.35,5.42s-.56,6.81-7.65,4.62l4.4,3.4s-.63,5.45-6.62,2.54l4.09,4.51s-2.58,4.48-7,1.61S363.05,738.66,350.55,736.89Z" transform="translate(0)"/><path class="cls-41" d="M345.08,592.11l-14.3,41.36a1.49,1.49,0,0,0,.68,1.8c3.89,2.15,17.94,8.38,34.87-2.35a7,7,0,0,0,3.23-5l4.63-35.8Z" transform="translate(0)"/><path class="cls-42" d="M376.2,553.81s15.71,29.56,13.69,41.51-21.48,11.08-38.47,1.38l-11.88-31.92Z" transform="translate(0)"/><path class="cls-43" d="M352.17,581a1.22,1.22,0,0,0,.53-1.78c-1.26-1.92-3.62-5.84-4.37-9.28,0,0-2.82-1.81,7.19-4.2s24.93-6.12,28.07-14.64c3.06-8.3-5-29.19-17.8-12.55a1.22,1.22,0,0,1-1.93,0c-2.1-2.73-7.63-8.41-15.3-5-7.18,3.22-8,8.49-7.89,11.14a1.22,1.22,0,0,1-1.44,1.24c-3.63-.69-12.34-1.29-16.41,7.65-3.35,7.36-1.17,11.53.81,13.56a1.21,1.21,0,0,1-.52,2c-2.38.73-5.46,2.75-5.15,8.34.42,7.73,9.06,7.05,11.52,6.7a1.21,1.21,0,0,1,1.08.38c2.11,2.34,11.62,12.25,21.9,13.44a1.23,1.23,0,0,0,1.29-1.62l-4.45-12.94A1.23,1.23,0,0,1,350,582Z" transform="translate(0)"/><path class="cls-44" d="M354,582.86s-11.19-7.67-12-1.21,10.07,9.36,15.46,7Z" transform="translate(0)"/><path class="cls-5" d="M1908.29,753.86a7,7,0,0,0-8.55-8.58c-79.7,21.35-538.48,164.55-481.43,619.2C1418.31,1364.48,1744.6,1348,1908.29,753.86Z" transform="translate(0)"/><path class="cls-4" d="M1850,812.56c-41.22,32.73-81.47,66.77-121,101.53s-78.27,70.48-115.87,107.32-74.07,74.82-108.38,114.65q-25.83,29.79-49.37,61.37c-15.63,21.06-30.43,42.75-43.39,65.44h0a4.13,4.13,0,1,1-7.18-4.1l0,0c13.36-23,28.49-44.78,44.42-65.91s32.71-41.59,50.16-61.42c34.79-39.77,71.69-77.57,109.63-114.23s77-72.09,116.88-106.64,80.39-68.26,122-100.75a1.75,1.75,0,0,1,2.17,2.75Z" transform="translate(0)"/><path class="cls-45" d="M1621.49,1370.88c-15.15.69-29.81.25-39.6-.25,8.92-6.34,29.45-20.15,46.63-25.64l11.8-.71s4,6.08,5.42,20C1643.79,1366.71,1638.07,1370.11,1621.49,1370.88Z" transform="translate(0)"/><path class="cls-46" d="M1581.77,1370.72l.12-.09c9.79.5,24.45.94,39.6.25,16.58-.77,22.3-4.17,24.25-6.61.07.64.14,1.28.19,2a5.53,5.53,0,0,1-5.07,6c-12.41.94-43.17,3.06-58,2.28A2.07,2.07,0,0,1,1581.77,1370.72Z" transform="translate(0)"/><path class="cls-47" d="M1729.83,1366.82c1.11-7.11,2.89-17.39,4.27-20,2.15-4.12,9.53,0,9.53,0s5.18,2.42,7.57,6.45c1.52,2.56,5.72,9.87,8.57,14.83a3.26,3.26,0,0,1,.45,1.76l-29.56,1A5.94,5.94,0,0,1,1729.83,1366.82Z" transform="translate(0)"/><path class="cls-48" d="M1760.22,1369.84a3.37,3.37,0,0,1-3.28,3.27l-21,.58a6,6,0,0,1-5.23-2.81Z" transform="translate(0)"/><path class="cls-49" d="M1727.57,1323.17c.26.85,4.08,19.36,5.75,27.49a4.66,4.66,0,0,0,4.78,3.71c1.25-.07,2.7-.18,4.23-.38a5.6,5.6,0,0,0,4.87-5.34c.27-7.11.4-20.78-2.21-26.07C1741.39,1315.27,1727.57,1323.17,1727.57,1323.17Z" transform="translate(0)"/><path class="cls-50" d="M1642.64,1328.47c-1.64-.06.65,8.45-1.83,16.82a4.3,4.3,0,0,1-3.93,3.39c-1.28,0-2.79,0-4.32-.13a4.77,4.77,0,0,1-4.38-4.28l-2-21.69Z" transform="translate(0)"/><path class="cls-51" d="M1596.82,1097.87c.73,3.56,26.54,154.07,28.1,232a2.66,2.66,0,0,0,2.29,2.58,52.23,52.23,0,0,0,15.84-.11,1.87,1.87,0,0,0,1.54-1.71c.9-14.51,8.15-137.23-.73-195,0,0,73.37,154.42,84.49,197a2.23,2.23,0,0,0,2.29,1.68c3.15-.17,9.68-.73,14.87-2.64a3.89,3.89,0,0,0,2.45-4.57c-6.22-25.48-49.76-201-79.33-239.72Z" transform="translate(0)"/><path class="cls-52" d="M1643.86,1136.56a.94.94,0,0,0,.67-.28,1,1,0,0,0,0-1.36l-9.83-10.05a1,1,0,1,0-1.37,1.35l9.82,10A1,1,0,0,0,1643.86,1136.56Z" transform="translate(0)"/><path class="cls-53" d="M1508.11,909.91a93.37,93.37,0,0,0,46.75-.48c21.5-5.63,63.75-14.91,92.54-9.73l62.72,262.76a12.38,12.38,0,0,1-7.16,14.28c-29.46,12.56-58.61,21.48-86.78,18.9a12,12,0,0,1-10.81-10.88l-10-107.65-45-110.76s-59.9-8.65-92.3-48a161.15,161.15,0,0,0,18.1-24.53A78.16,78.16,0,0,0,1508.11,909.91Z" transform="translate(0)"/><path class="cls-54" d="M1440.68,835l7.6-3.34s-.38,38,27.9,62.11a161.15,161.15,0,0,1-18.1,24.53C1442.11,898.9,1432.81,872,1440.68,835Z" transform="translate(0)"/><path class="cls-55" d="M1600.21,857.8s5.72,34.13,6.49,44.85c0,0-27.62,7.63-34.83,3.54l.9-41.29Z" transform="translate(0)"/><path class="cls-56" d="M1491.28,949.28a5.07,5.07,0,0,0-5.33,5.86l22.45,141a5.07,5.07,0,0,0,4.79,4.27l224.66,9.39a5.07,5.07,0,0,0,5.27-4.86l5.58-134a5.06,5.06,0,0,0-4.73-5.27Z" transform="translate(0)"/><path class="cls-57" d="M1509.22,939.59a5.32,5.32,0,0,0-5.78,5.45l4.57,153a5.31,5.31,0,0,0,5.09,5.14l224,9.37a5.32,5.32,0,0,0,5.5-4.72l15.54-140.54a5.31,5.31,0,0,0-4.8-5.87Z" transform="translate(0)"/><path class="cls-58" d="M1531.6,931.8a6.56,6.56,0,0,0-7.65,5.84L1508.82,1096a6.56,6.56,0,0,0,6.25,7.18l220.59,9.22a6.56,6.56,0,0,0,6.81-6.09L1751.69,976a6.57,6.57,0,0,0-5.42-6.92Z" transform="translate(0)"/><path class="cls-59" d="M1623.22,940.4l24.18-40.7S1698,943,1713.25,1003.25l-26.82,16.85C1675.43,1000.45,1656.26,974.28,1623.22,940.4Z" transform="translate(0)"/><path class="cls-60" d="M1676.1,1109.48a6.55,6.55,0,0,0,5.83-3.82c2.74-6,8.13-17.31,11-21,0,0-3.1-1.52-8.6-.23s-10.15-1-10.31-4l25.7-11c.92-2.62,4.66-17.35-13.24-49.32l26.82-16.85c5.72,22.55,6.51,47.47-2.16,73.39,0,0-5,29.43-15.29,35.38s-25.81-2.41-25.81-2.41Z" transform="translate(0)"/><path class="cls-61" d="M1569.18,826.34s-9.19,21.09-9.8,32.16-3,18.26,9.8,20.49,23.58-4.15,29.42-15.18c0,0,9.16-17,7.1-23.95S1569.18,826.34,1569.18,826.34Z" transform="translate(0)"/><path class="cls-62" d="M1594.23,855.88h-1.62s6.67-13.68.81-16.08-29.07-7.13-34.07-15.37c-4.83-7.94-.53-18.19,5.91-21.06a.87.87,0,0,1,1.1.4l.53,1a.87.87,0,0,0,1.61-.16h0a.87.87,0,0,1,1.56-.24c1.53,2.46,5.68,6.47,16.81,8.52,15.8,2.92,26.24,9.31,26.5,20.22a.86.86,0,0,0,1.34.72c1.17-.71,3-1.05,5.53,1,4.33,3.65,2.56,13.11-7,20.89a.86.86,0,0,0,0,1.39c1.73,1.12,4.3,3.79-2.36,7.35s-10.84,3.25-12.36,2.86a.87.87,0,0,1-.66-.9l.6-9.68a.87.87,0,0,0-.87-.92Z" transform="translate(0)"/><path class="cls-63" d="M1593.83,857.91s3.5-13.48,9.54-9.7-3.13,15.1-8,15.6Z" transform="translate(0)"/><path class="cls-64" d="M1449.25,838.42l11.56-22.4L1446,777s-10.25,5.12-5.94,14.22-.53,19.36-1.06,23.19S1433.57,838.05,1449.25,838.42Z" transform="translate(0)"/><path class="cls-65" d="M631.69,558a4.2,4.2,0,0,1-4.21-4.14,4.08,4.08,0,0,1,4.07-4.13,68.18,68.18,0,0,0,13.7-1.39,4.13,4.13,0,1,1,1.66,8.1A76.19,76.19,0,0,1,631.69,558Zm37.42-10.41a4.13,4.13,0,0,1-2.12-7.68,68.27,68.27,0,0,0,13-10c1.61-1.6,3.17-3.32,4.63-5.09A4.13,4.13,0,0,1,691,530a74.54,74.54,0,0,1-5.21,5.73A76.08,76.08,0,0,1,671.22,547,4.1,4.1,0,0,1,669.11,547.57ZM700,510.05a4.07,4.07,0,0,1-1.41-.25,4.14,4.14,0,0,1-2.47-5.31,67.9,67.9,0,0,0,4.2-22.89,4.14,4.14,0,0,1,4.14-4.1h0a4.13,4.13,0,0,1,4.1,4.17,76.36,76.36,0,0,1-4.7,25.66A4.14,4.14,0,0,1,700,510.05Z" transform="translate(0)"/><g class="cls-66"><g class="cls-67"><path class="cls-68" d="M2177.92,470.47a350.58,350.58,0,0,0-41.24-296.78A334.58,334.58,0,0,0,2096,123.87q2.91-23.57,5.56-47.69a13.14,13.14,0,0,0-18.45-13.37c-9.82,4.41-22.85,10.47-38.52,18.16a348,348,0,0,0-165.65-60c-64.22-5.54-126.23,6.68-186.42,28.43C1592.1,2.23,1488.46,70.73,1457,137.2c-14.27,30.19-39.22,44.68-64.68,51.06C1344.51,138,1282.25,93.19,1213.29,74c-118.72-33-263.84,13.19-333.1,49.48A160.71,160.71,0,0,0,834.45,157c-31.73-28.08-63.48-56.31-98.24-79.86C596.16-17.73,399.79-27.72,257,62.93S39.49,344.43,94,504.6c11.3,33.26,27.63,65.74,41.68,98.43L135.83,809c-37.3,65.29-101.5,121-125.71,193.67C-18.56,1088.72,16.3,1187.71,82,1250.3a316.43,316.43,0,0,0,54.3,41.38,51.23,51.23,0,0,0,51.57,50.89h.64l29-.54v18.6H205.91a8.17,8.17,0,0,0-8.49,6.58,7.68,7.68,0,0,0,7.31,8,7.85,7.85,0,0,0,.84,0H868a29.24,29.24,0,0,0,3.74-.25,9.24,9.24,0,0,0,2.16.25h525.27a34.09,34.09,0,0,0,25-10.77,248.78,248.78,0,0,0,38.82-8.55c50.73,17.88,138.3,33,268,3.95-.46,2.61-.9,5.25-1.26,7.54a6,6,0,0,0,5,6.8,5.35,5.35,0,0,0,1.06.07l21.06-.58a3.34,3.34,0,0,0,3.27-3.27,3.28,3.28,0,0,0-.45-1.76c-2.51-4.39-6.09-10.6-8-13.75,22.4-5.65,46-12.6,70.75-21a581.45,581.45,0,0,0,118.75-12.56c93.43-20.55,185.08-80.87,225.57-163.84l8.68-5.76c4.74-3.17,5.14-9.81.73-11.9l-1.44-.67a205.64,205.64,0,0,0,13.54-66.93c4-125.17-104.32-233.77-98.58-358.86,4-86.56,61.69-160.43,88.18-242.92" transform="translate(0)"/></g></g><path class="cls-65" d="M657.49,911.91a4.12,4.12,0,0,1-4.07-3.48l-3.59-22.33a4.13,4.13,0,0,1,8.16-1.32l3.59,22.34a4.13,4.13,0,0,1-3.43,4.74A3.67,3.67,0,0,1,657.49,911.91ZM650,865.08a4.12,4.12,0,0,1-4.07-3.48L642,837.11a4.14,4.14,0,1,1,8.17-1.31l3.93,24.49a4.13,4.13,0,0,1-3.43,4.74A3.67,3.67,0,0,1,650,865.08Zm-7.86-49a4.14,4.14,0,0,1-4.08-3.48l-3.93-24.49a4.13,4.13,0,1,1,8.16-1.32l3.93,24.5a4.12,4.12,0,0,1-3.42,4.73A3.68,3.68,0,0,1,642.11,816.1Zm-7.87-49a4.12,4.12,0,0,1-4.07-3.48l-3.94-24.49a4.14,4.14,0,1,1,8.17-1.31l3.93,24.49a4.13,4.13,0,0,1-3.43,4.74A3.67,3.67,0,0,1,634.24,767.11Zm-7.86-49a4.14,4.14,0,0,1-4.08-3.48l-3.93-24.49a4.13,4.13,0,1,1,8.16-1.31l3.93,24.49a4.14,4.14,0,0,1-3.42,4.74A5.14,5.14,0,0,1,626.38,718.13Zm-7.87-49a4.15,4.15,0,0,1-4.08-3.48l-3.93-24.5a4.13,4.13,0,0,1,8.16-1.31l3.94,24.5a4.13,4.13,0,0,1-3.43,4.73A3.68,3.68,0,0,1,618.51,669.15Zm-7.87-49a4.13,4.13,0,0,1-4.07-3.48l-3.93-24.49a4.13,4.13,0,1,1,8.16-1.31l3.93,24.49a4.13,4.13,0,0,1-3.43,4.74A4.89,4.89,0,0,1,610.64,620.16Zm-7.86-49a4.14,4.14,0,0,1-4.08-3.48l-3.93-24.49a4.13,4.13,0,1,1,8.16-1.32l3.94,24.5a4.14,4.14,0,0,1-3.43,4.73A3.68,3.68,0,0,1,602.78,571.18Z" transform="translate(0)"/><path class="cls-65" d="M556.15,603.53a4.14,4.14,0,0,1-2.77-7.21l6-5.37a4.13,4.13,0,0,1,5.51,6.16l-6,5.36A4.12,4.12,0,0,1,556.15,603.53Zm24.47-21.89a4.14,4.14,0,0,1-2.75-7.22q9.27-8.26,18.56-16.48a4.13,4.13,0,0,1,5.48,6.19q-9.28,8.22-18.54,16.46A4.12,4.12,0,0,1,580.62,581.64Zm37.15-32.9a4.13,4.13,0,0,1-2.74-7.23q9.32-8.21,18.65-16.37a4.13,4.13,0,1,1,5.45,6.22q-9.33,8.16-18.63,16.35A4.13,4.13,0,0,1,617.77,548.74Zm37.33-32.67a4.13,4.13,0,0,1-2.72-7.25q9.36-8.15,18.75-16.27a4.14,4.14,0,0,1,5.41,6.26q-9.37,8.12-18.73,16.25A4.11,4.11,0,0,1,655.1,516.07Zm37.52-32.45a4.13,4.13,0,0,1-2.69-7.27q9.41-8.1,18.84-16.15a4.13,4.13,0,1,1,5.37,6.28q-9.42,8.06-18.82,16.14A4.15,4.15,0,0,1,692.62,483.62Zm37.72-32.23a4.14,4.14,0,0,1-2.68-7.29q9.45-8,18.93-16a4.13,4.13,0,1,1,5.34,6.31q-9.46,8-18.92,16A4.13,4.13,0,0,1,730.34,451.39Zm37.9-32a4.13,4.13,0,0,1-2.66-7.3q9.49-8,19-15.93a4.14,4.14,0,0,1,5.3,6.35q-9.52,7.93-19,15.91A4.09,4.09,0,0,1,768.24,419.37Zm38.09-31.79a4.13,4.13,0,0,1-2.65-7.31q9.55-7.93,19.13-15.82a4.13,4.13,0,1,1,5.26,6.38q-9.57,7.88-19.11,15.8A4.09,4.09,0,0,1,806.33,387.58Z" transform="translate(0)"/><path class="cls-65" d="M430.42,812.5l1.81,5.92v0a2.85,2.85,0,1,1-5.45,1.66h0l-1.81-6a2.85,2.85,0,1,1,5.45-1.65Z" transform="translate(0)"/><path class="cls-65" d="M436.63,832.14l2,5.86v0a2.87,2.87,0,1,1-5.44,1.83h0l-2-5.91a2.87,2.87,0,1,1,5.44-1.82Z" transform="translate(0)"/><path class="cls-65" d="M443.39,851.58l2.15,5.79v0a2.9,2.9,0,0,1-5.43,2h0L438,853.56a2.88,2.88,0,1,1,5.41-2Z" transform="translate(0)"/><path class="cls-65" d="M450.75,870.8l2.33,5.72v0a2.91,2.91,0,1,1-5.39,2.2h0L445.36,873a2.9,2.9,0,0,1,5.38-2.18Z" transform="translate(0)"/><path class="cls-65" d="M458.75,889.75l2.52,5.63,0,0a2.93,2.93,0,0,1-5.35,2.4h0l-2.54-5.7a2.92,2.92,0,1,1,5.34-2.38Z" transform="translate(0)"/><path class="cls-65" d="M467.41,908.4l2.73,5.53v0a2.95,2.95,0,1,1-5.28,2.62h0L462.11,911a2.94,2.94,0,1,1,5.28-2.6Z" transform="translate(0)"/><path class="cls-65" d="M476.77,926.7l3,5.42v0a3,3,0,1,1-5.21,2.84h0l-3-5.48a3,3,0,0,1,5.21-2.82Z" transform="translate(0)"/><path class="cls-65" d="M486.86,944.6l3.18,5.28,0,0a3,3,0,1,1-5.12,3.08h0l-3.21-5.36a3,3,0,1,1,5.11-3.06Z" transform="translate(0)"/><path class="cls-65" d="M497.73,962l3.41,5.12,0,0a3,3,0,1,1-5,3.33h0l-3.45-5.2a3,3,0,0,1,5-3.31Z" transform="translate(0)"/><path class="cls-65" d="M509.38,978.93l3.65,5,0,0a3,3,0,1,1-4.87,3.59h0l-3.69-5a3,3,0,1,1,4.86-3.58Z" transform="translate(0)"/><path class="cls-65" d="M521.83,995.23l3.9,4.75,0,0a3,3,0,0,1-4.71,3.86h0L517.1,999a3,3,0,1,1,4.71-3.84Z" transform="translate(0)"/><path class="cls-65" d="M535.12,1010.85l4.14,4.54,0,0a3.07,3.07,0,0,1-4.53,4.13h0l-4.21-4.62a3.06,3.06,0,0,1,4.53-4.12Z" transform="translate(0)"/><path class="cls-65" d="M549.23,1025.71l4.4,4.29,0,0a3.08,3.08,0,0,1-4.31,4.41h0l-4.47-4.38a3.08,3.08,0,0,1,4.3-4.4Z" transform="translate(0)"/><path class="cls-65" d="M564.19,1039.69l4.65,4,0,0a3.11,3.11,0,0,1-4.06,4.7h0l-4.73-4.1a3.09,3.09,0,0,1,4-4.68Z" transform="translate(0)"/><path class="cls-65" d="M580,1052.74l4.88,3.72,0,0a3.12,3.12,0,1,1-3.78,5h0l-5-3.8a3.12,3.12,0,1,1,3.79-5Z" transform="translate(0)"/><path class="cls-65" d="M596.53,1064.79l5.11,3.41.05,0a3.14,3.14,0,0,1-3.49,5.23h0L593,1070a3.14,3.14,0,0,1,3.49-5.21Z" transform="translate(0)"/><path class="cls-65" d="M613.8,1075.77l5.32,3.07,0,0a3.16,3.16,0,1,1-3.16,5.47h0l-5.41-3.14a3.16,3.16,0,1,1,3.17-5.46Z" transform="translate(0)"/><path class="cls-65" d="M631.75,1085.6l5.5,2.71.06,0a3.18,3.18,0,1,1-2.81,5.71h0l-5.62-2.78a3.17,3.17,0,1,1,2.82-5.68Z" transform="translate(0)"/><path class="cls-65" d="M650.3,1094.2l5.68,2.32.06,0a3.2,3.2,0,1,1-2.42,5.92h0l-5.8-2.38a3.2,3.2,0,1,1,2.43-5.91Z" transform="translate(0)"/><path class="cls-65" d="M669.41,1101.46l5.83,1.9.07,0a3.22,3.22,0,1,1-2,6.12h0l-6-2a3.21,3.21,0,1,1,2-6.1Z" transform="translate(0)"/><path class="cls-65" d="M689,1107.29l5.95,1.45H695a3.24,3.24,0,1,1-1.54,6.29h0l-6.09-1.5a3.23,3.23,0,0,1,1.55-6.27Z" transform="translate(0)"/><path class="cls-65" d="M708.93,1111.58l6,1h.08a3.26,3.26,0,1,1-1,6.43h0l-6.2-1a3.25,3.25,0,0,1,1.05-6.41Z" transform="translate(0)"/><path class="cls-65" d="M729.15,1114.24l6.1.47h.09a3.27,3.27,0,0,1-.5,6.53h0l-6.27-.5a3.27,3.27,0,1,1,.52-6.51Z" transform="translate(0)"/><path class="cls-65" d="M749.51,1115.19l6.12-.06h.08a3.3,3.3,0,1,1,.06,6.59h0l-6.28,0a3.29,3.29,0,1,1,0-6.58Z" transform="translate(0)"/><path class="cls-65" d="M769.89,1114.41l6.09-.57h.08a3.31,3.31,0,1,1,.61,6.6h0l-6.25.57a3.31,3.31,0,0,1-.6-6.59Z" transform="translate(0)"/><path class="cls-65" d="M790.14,1112l6-1,.08,0a3.33,3.33,0,0,1,1.13,6.57h0l-6.19,1.06a3.33,3.33,0,1,1-1.12-6.56Z" transform="translate(0)"/><path class="cls-65" d="M810.15,1108l5.94-1.49.07,0a3.35,3.35,0,1,1,1.63,6.5h0l-6.09,1.51a3.34,3.34,0,0,1-1.62-6.49Z" transform="translate(0)"/><path class="cls-65" d="M829.83,1102.49l5.83-1.89.07,0a3.37,3.37,0,1,1,2.08,6.41h0l-6,1.93a3.37,3.37,0,0,1-2.08-6.41Z" transform="translate(0)"/><path class="cls-65" d="M849.13,1095.73l5.7-2.26.06,0a3.39,3.39,0,1,1,2.5,6.3h0l-5.82,2.3a3.39,3.39,0,0,1-2.48-6.3Z" transform="translate(0)"/><path class="cls-65" d="M868,1087.8l5.57-2.59,0,0a3.41,3.41,0,1,1,2.87,6.19h0l-5.67,2.62a3.4,3.4,0,0,1-2.86-6.18Z" transform="translate(0)"/><path class="cls-65" d="M886.42,1078.84l5.44-2.87,0,0a3.43,3.43,0,0,1,3.2,6.06h0l-5.53,2.91a3.42,3.42,0,1,1-3.19-6.06Z" transform="translate(0)"/><path class="cls-65" d="M904.41,1069l5.31-3.11,0,0a3.44,3.44,0,1,1,3.49,5.94h0l-5.39,3.15a3.45,3.45,0,0,1-3.48-6Z" transform="translate(0)"/><path class="cls-65" d="M922,1058.33l5.18-3.33,0,0a3.47,3.47,0,1,1,3.75,5.83h0l-5.25,3.36a3.46,3.46,0,0,1-3.73-5.83Z" transform="translate(0)"/><path class="cls-65" d="M939.09,1047l5.07-3.51,0,0a3.49,3.49,0,0,1,4,5.73h0l-5.13,3.55a3.48,3.48,0,0,1-4-5.73Z" transform="translate(0)"/><path class="cls-65" d="M955.85,1035.09l5-3.67,0,0A3.51,3.51,0,1,1,965,1037h0l-5,3.71a3.5,3.5,0,0,1-4.16-5.63Z" transform="translate(0)"/><path class="cls-65" d="M972.26,1022.68l4.85-3.82h0a3.52,3.52,0,0,1,4.35,5.54h0l-4.9,3.83a3.52,3.52,0,1,1-4.34-5.54Z" transform="translate(0)"/><path class="cls-65" d="M988.34,1009.83l4.77-3.93h0a3.54,3.54,0,1,1,4.51,5.47h0l-4.81,3.95a3.54,3.54,0,1,1-4.49-5.47Z" transform="translate(0)"/><path class="cls-65" d="M1004.15,996.62l4.7-4h0a3.56,3.56,0,1,1,4.64,5.41h0l-4.74,4a3.56,3.56,0,0,1-4.62-5.41Z" transform="translate(0)"/><path class="cls-65" d="M1019.73,983.1l4.63-4.09h0a3.58,3.58,0,0,1,4.75,5.37h0l-4.66,4.11a3.58,3.58,0,0,1-4.73-5.37Z" transform="translate(0)"/><path class="cls-65" d="M1035.13,969.38l4.59-4.15h0a3.6,3.6,0,1,1,4.83,5.34h0l-4.61,4.15a3.59,3.59,0,1,1-4.81-5.34Z" transform="translate(0)"/><path class="cls-65" d="M1050.39,955.5l4.55-4.2a3.62,3.62,0,0,1,4.92,5.32h0l-4.57,4.2a3.62,3.62,0,1,1-4.89-5.33Z" transform="translate(0)"/><path class="cls-65" d="M1065.52,941.47l4.52-4.23a3.64,3.64,0,1,1,5,5.3h0l-4.54,4.24a3.64,3.64,0,1,1-5-5.32Z" transform="translate(0)"/><path class="cls-65" d="M1080.55,927.32l4.49-4.26a3.66,3.66,0,1,1,5,5.29h0l-4.51,4.27a3.65,3.65,0,0,1-5-5.31Z" transform="translate(0)"/><path class="cls-65" d="M1095.5,913.07l4.47-4.29a3.68,3.68,0,1,1,5.1,5.3h0l-4.49,4.29a3.67,3.67,0,1,1-5.07-5.31Z" transform="translate(0)"/><path class="cls-65" d="M1110.38,898.75l4.45-4.31a3.7,3.7,0,1,1,5.15,5.31h0l-4.46,4.3a3.69,3.69,0,1,1-5.13-5.31Z" transform="translate(0)"/><path class="cls-65" d="M1125.22,884.37l4.45-4.32a3.72,3.72,0,0,1,5.18,5.33h0l-4.45,4.32a3.71,3.71,0,0,1-5.17-5.33Z" transform="translate(0)"/><path class="cls-65" d="M1140,870l4.44-4.33a3.74,3.74,0,1,1,5.22,5.35h0l-4.45,4.32A3.73,3.73,0,1,1,1140,870Z" transform="translate(0)"/><path class="cls-65" d="M1154.85,855.53l4.45-4.32a3.76,3.76,0,0,1,5.24,5.38h0l-4.45,4.31a3.75,3.75,0,0,1-5.23-5.38Z" transform="translate(0)"/><path class="cls-65" d="M1169.69,841.12l4.46-4.32a3.78,3.78,0,0,1,5.25,5.43h0l-4.46,4.31a3.77,3.77,0,1,1-5.24-5.42Z" transform="translate(0)"/><path class="cls-65" d="M1184.57,826.74l4.47-4.3a3.79,3.79,0,1,1,5.26,5.47h0l-4.47,4.29a3.79,3.79,0,1,1-5.25-5.47Z" transform="translate(0)"/><path class="cls-65" d="M1199.5,812.42l4.5-4.28a3.81,3.81,0,1,1,5.26,5.52h0l-4.49,4.27a3.81,3.81,0,0,1-5.26-5.52Z" transform="translate(0)"/><path class="cls-65" d="M1214.52,798.18l4.52-4.26a3.84,3.84,0,0,1,5.26,5.59h0l-4.52,4.23a3.82,3.82,0,1,1-5.24-5.57Z" transform="translate(0)"/><path class="cls-65" d="M1229.64,784l4.56-4.22a3.85,3.85,0,1,1,5.23,5.65h0l-4.55,4.2a3.85,3.85,0,1,1-5.23-5.64Z" transform="translate(0)"/><path class="cls-65" d="M1244.88,770l4.6-4.18a3.87,3.87,0,1,1,5.2,5.73h0l-4.59,4.16h0a3.87,3.87,0,0,1-5.19-5.73Z" transform="translate(0)"/><path class="cls-65" d="M1260.26,756.15l4.64-4.13a3.89,3.89,0,1,1,5.17,5.81h0l-4.63,4.1h0a3.89,3.89,0,1,1-5.16-5.81Z" transform="translate(0)"/><path class="cls-65" d="M1275.8,742.45l4.7-4.07a3.91,3.91,0,1,1,5.12,5.9h0l-4.69,4h0a3.9,3.9,0,0,1-5.11-5.9Z" transform="translate(0)"/><path class="cls-65" d="M1291.53,729l4.76-4a3.93,3.93,0,0,1,5.06,6h0l-4.74,4h0a3.92,3.92,0,1,1-5-6Z" transform="translate(0)"/><path class="cls-65" d="M1307.45,715.68l4.82-3.94a4,4,0,0,1,5,6.12h0l-4.8,3.91h0a3.94,3.94,0,0,1-5-6.11Z" transform="translate(0)"/><path class="cls-65" d="M1323.59,702.65l4.88-3.85a4,4,0,1,1,4.92,6.22h0l-4.86,3.82h0a4,4,0,0,1-4.9-6.22Z" transform="translate(0)"/><path class="cls-65" d="M1340,689.9l5-3.77a4,4,0,0,1,4.83,6.35h0l0,0-4.93,3.73h0a4,4,0,0,1-4.81-6.34Z" transform="translate(0)"/><path class="cls-65" d="M1356.55,677.45l5-3.67a4,4,0,0,1,4.73,6.47h0l-5,3.64h0a4,4,0,1,1-4.71-6.46Z" transform="translate(0)"/><path class="cls-65" d="M1373.39,665.33l5.11-3.57a4,4,0,0,1,4.61,6.6h0l0,0L1378,671.9l0,0a4,4,0,0,1-4.6-6.59Z" transform="translate(0)"/><path class="cls-65" d="M1390.5,653.56l5.18-3.45a4,4,0,0,1,4.49,6.73h0l0,0-5.15,3.41,0,0a4,4,0,1,1-4.47-6.73Z" transform="translate(0)"/><path class="cls-65" d="M1407.87,642.18l5.26-3.33a4.07,4.07,0,1,1,4.35,6.87h0l0,0-5.22,3.29,0,0a4.06,4.06,0,0,1-4.33-6.87Z" transform="translate(0)"/><path class="cls-65" d="M1425.52,631.23l5.36-3.2a4.08,4.08,0,1,1,4.19,7h0l-5.31,3.17h0a4.08,4.08,0,0,1-4.18-7Z" transform="translate(0)"/><path class="cls-65" d="M1443.46,620.73l5.44-3.06a4.1,4.1,0,0,1,4,7.15h0l0,0-5.38,3,0,0a4.09,4.09,0,1,1-4-7.14Z" transform="translate(0)"/><path class="cls-65" d="M1461.68,610.71l5.52-2.9a4.12,4.12,0,1,1,3.83,7.3h0l0,0-5.47,2.86h0a4.12,4.12,0,0,1-3.82-7.29Z" transform="translate(0)"/><path class="cls-65" d="M1480.18,601.24l5.6-2.74a4.14,4.14,0,0,1,3.63,7.45h0l0,0-5.54,2.69h0a4.13,4.13,0,0,1-3.61-7.43Z" transform="translate(0)"/><path class="cls-65" d="M1499,592.32l5.69-2.55a4.16,4.16,0,1,1,3.41,7.59h0l0,0-5.62,2.51h0a4.15,4.15,0,1,1-3.4-7.58Z" transform="translate(0)"/><path class="cls-65" d="M1518,584l5.77-2.37a4.18,4.18,0,0,1,3.17,7.74h0l-5.7,2.33,0,0A4.18,4.18,0,0,1,1518,584Z" transform="translate(0)"/><path class="cls-65" d="M1537.37,576.34l5.85-2.17a4.2,4.2,0,1,1,2.92,7.87h0l0,0-5.77,2.13h0a4.19,4.19,0,1,1-2.91-7.86Z" transform="translate(0)"/><path class="cls-65" d="M1557,569.34l6-2a4.22,4.22,0,1,1,2.64,8h0l0,0-5.85,1.92h-.05a4.21,4.21,0,0,1-2.64-8Z" transform="translate(0)"/><path class="cls-65" d="M1576.86,563.08l6-1.72a4.23,4.23,0,1,1,2.33,8.14h0l-5.92,1.68,0,0a4.23,4.23,0,0,1-2.32-8.14Z" transform="translate(0)"/><path class="cls-65" d="M1597,557.62l6.07-1.48a4.26,4.26,0,1,1,2,8.27H1605l-6,1.45h0a4.25,4.25,0,0,1-2-8.26Z" transform="translate(0)"/><path class="cls-65" d="M1617.29,553l6.13-1.23a4.27,4.27,0,0,1,1.69,8.38h-.06l-6,1.21h0a4.27,4.27,0,0,1-1.68-8.38Z" transform="translate(0)"/><path class="cls-65" d="M1637.78,549.14l6.18-1a4.29,4.29,0,0,1,1.35,8.48h-.07l-6.07,1h-.05a4.29,4.29,0,0,1-1.34-8.47Z" transform="translate(0)"/><path class="cls-65" d="M1658.42,546.16l6.21-.72a4.31,4.31,0,0,1,1,8.57h-.07l-6.1.7h-.06a4.31,4.31,0,0,1-1-8.56Z" transform="translate(0)"/><path class="cls-65" d="M1679.17,544.07l6.24-.46a4.34,4.34,0,0,1,.63,8.65H1686l-6.13.44h0a4.33,4.33,0,1,1-.62-8.63Z" transform="translate(0)"/><path class="cls-65" d="M1700,542.87l6.26-.17a4.35,4.35,0,1,1,.25,8.7h-.07l-6.14.16h-.06a4.35,4.35,0,0,1-.24-8.69Z" transform="translate(0)"/><path class="cls-65" d="M1720.86,542.62l6.26.11a4.37,4.37,0,1,1-.15,8.74h-.07l-6.14-.12h-.06a4.37,4.37,0,0,1,.16-8.73Z" transform="translate(0)"/><path class="cls-65" d="M1741.73,543.33l6.25.41a4.39,4.39,0,0,1-.57,8.76h-.07l-6.13-.41h-.06a4.38,4.38,0,0,1,.58-8.75Z" transform="translate(0)"/><path class="cls-65" d="M1762.54,545.05l6.23.71a4.41,4.41,0,0,1-1,8.77h-.07l-6.1-.71h-.06a4.4,4.4,0,0,1,1-8.75Z" transform="translate(0)"/><path class="cls-65" d="M1783.25,547.8l6.19,1a4.43,4.43,0,1,1-1.46,8.73h-.08l-6-1h-.07a4.43,4.43,0,0,1,1.46-8.73Z" transform="translate(0)"/><path class="cls-65" d="M1803.8,551.63l6.12,1.36a4.45,4.45,0,0,1-1.93,8.68h0l-.07,0-6-1.33-.07,0a4.44,4.44,0,0,1,1.94-8.67Z" transform="translate(0)"/><path class="cls-65" d="M1824.12,556.55l6,1.7a4.47,4.47,0,0,1-2.42,8.6h0l-.08,0-5.89-1.67-.07,0a4.46,4.46,0,0,1,2.42-8.59Z" transform="translate(0)"/><path class="cls-65" d="M1844.15,562.61l5.93,2a4.48,4.48,0,1,1-2.91,8.48h0l-.07,0-5.79-2-.07,0a4.48,4.48,0,1,1,2.92-8.47Z" transform="translate(0)"/><path class="cls-65" d="M1863.8,569.81l5.81,2.39a4.5,4.5,0,1,1-3.42,8.33h0l-.07,0-5.66-2.34-.08,0a4.5,4.5,0,0,1,3.43-8.32Z" transform="translate(0)"/><path class="cls-65" d="M1883,578.17l5.65,2.73a4.52,4.52,0,0,1-3.93,8.15h0l-.07,0-5.5-2.67-.08,0a4.52,4.52,0,0,1,3.94-8.13Z" transform="translate(0)"/><path class="cls-65" d="M1901.66,587.7l5.48,3.11a4.54,4.54,0,1,1-4.48,7.9h0l-.08-.05-5.31-3-.08,0a4.54,4.54,0,0,1,4.48-7.89Z" transform="translate(0)"/><path class="cls-65" d="M1919.66,598.49l5.25,3.47a4.57,4.57,0,1,1-5,7.62h0l-.08-.05-5.09-3.38-.08,0a4.56,4.56,0,0,1,5-7.6Z" transform="translate(0)"/><path class="cls-65" d="M1936.88,610.47l5,3.81a4.58,4.58,0,1,1-5.56,7.29h0l-.07-.06-4.86-3.71-.07,0a4.58,4.58,0,0,1,5.56-7.28Z" transform="translate(0)"/><path class="cls-65" d="M1953.26,623.56l4.74,4.14a4.6,4.6,0,1,1-6,6.94h0l-.07-.06-4.6-4-.07-.06a4.6,4.6,0,0,1,6-6.93Z" transform="translate(0)"/><path class="cls-65" d="M1968.75,637.7l4.46,4.43a4.62,4.62,0,0,1-6.51,6.56h0l-.06-.06-4.33-4.32-.06-.06a4.61,4.61,0,0,1,6.51-6.54Z" transform="translate(0)"/><path class="cls-65" d="M1983.29,652.81l4.16,4.71a4.64,4.64,0,1,1-7,6.15h0l-.06-.07-4-4.58-.06-.07a4.63,4.63,0,1,1,7-6.13Z" transform="translate(0)"/><path class="cls-65" d="M1996.81,668.84l3.86,5a4.67,4.67,0,0,1-7.38,5.71h0l-.06-.07-3.73-4.84,0-.08a4.65,4.65,0,1,1,7.36-5.68Z" transform="translate(0)"/><path class="cls-65" d="M2009.26,685.72l3.52,5.22a4.68,4.68,0,0,1-7.77,5.23h0l-.06-.08-3.39-5.07-.06-.08a4.67,4.67,0,0,1,7.76-5.21Z" transform="translate(0)"/><path class="cls-65" d="M2020.56,703.41l3.15,5.45a4.7,4.7,0,1,1-8.13,4.7h0l0-.08-3-5.29,0-.08a4.69,4.69,0,0,1,8.13-4.69Z" transform="translate(0)"/><path class="cls-65" d="M2030.63,721.83l2.76,5.66a4.71,4.71,0,1,1-8.47,4.14h0l0-.09-2.67-5.49,0-.09a4.71,4.71,0,1,1,8.47-4.13Z" transform="translate(0)"/><path class="cls-65" d="M2039.37,740.93l2.36,5.85a4.74,4.74,0,0,1-8.79,3.54h0l0-.1-2.26-5.66,0-.1a4.73,4.73,0,0,1,8.78-3.52Z" transform="translate(0)"/><path class="cls-65" d="M2046.71,760.63l1.91,6a4.76,4.76,0,1,1-9.07,2.87h0l0-.11-1.83-5.81,0-.1a4.75,4.75,0,0,1,9.06-2.87Z" transform="translate(0)"/><path class="cls-65" d="M2052.53,780.85,2054,787a4.77,4.77,0,0,1-9.3,2.17h0l0-.11-1.38-5.93,0-.11a4.77,4.77,0,0,1,9.29-2.16Z" transform="translate(0)"/><path class="cls-65" d="M2056.74,801.48l.93,6.25a4.79,4.79,0,1,1-9.48,1.41h0l0-.11-.89-6,0-.12a4.79,4.79,0,0,1,9.48-1.4Z" transform="translate(0)"/><path class="cls-65" d="M2059.24,822.4l.4,6.31a4.81,4.81,0,1,1-9.6.61h0v-.12l-.38-6.06V823a4.81,4.81,0,0,1,9.6-.6Z" transform="translate(0)"/><path class="cls-65" d="M2060,843.47l-.14,6.32a4.84,4.84,0,1,1-9.67-.22h0v-.12l.15-6.07v-.13a4.83,4.83,0,1,1,9.65.23Z" transform="translate(0)"/><path class="cls-65" d="M2058.82,864.54c-.23,2.09-.44,4.19-.71,6.29v0a4.85,4.85,0,0,1-9.63-1.24h0c.26-2,.47-4,.69-6v-.1a4.85,4.85,0,0,1,9.64,1.07Z" transform="translate(0)"/><path class="cls-65" d="M2055.7,885.46l-1.35,6.2a4.87,4.87,0,1,1-9.52-2.07h0l0-.14,1.29-5.91,0-.15a4.86,4.86,0,1,1,9.5,2.08Z" transform="translate(0)"/><path class="cls-65" d="M2050.49,906l-1.95,6a4.89,4.89,0,1,1-9.31-3h0l0-.13,1.87-5.76,0-.14a4.88,4.88,0,0,1,9.29,3Z" transform="translate(0)"/><path class="cls-65" d="M2043.32,925.84l-2.51,5.82a4.91,4.91,0,0,1-9-3.89h0l0-.13,2.42-5.56,0-.13a4.9,4.9,0,1,1,9,3.9Z" transform="translate(0)"/><path class="cls-65" d="M2034.34,945l-3,5.56a4.93,4.93,0,1,1-8.66-4.71h0l.06-.11,2.91-5.33.07-.11a4.92,4.92,0,1,1,8.64,4.71Z" transform="translate(0)"/><path class="cls-65" d="M2023.69,963.17l-3.5,5.27A4.95,4.95,0,0,1,2012,963h0l.07-.11,3.37-5.05.07-.11a4.94,4.94,0,0,1,8.23,5.48Z" transform="translate(0)"/><path class="cls-65" d="M2011.5,980.38l-3.94,5a5,5,0,0,1-7.78-6.19h0l.08-.1,3.79-4.75.08-.1a5,5,0,0,1,7.76,6.19Z" transform="translate(0)"/><path class="cls-65" d="M1997.87,996.48l-4.35,4.6a5,5,0,1,1-7.24-6.86h0l.09-.1,4.18-4.4.09-.09a5,5,0,0,1,7.23,6.85Z" transform="translate(0)"/><path class="cls-65" d="M1982.92,1011.36l-4.73,4.21a5,5,0,0,1-6.66-7.48h0l.1-.08,4.54-4,.1-.09a5,5,0,0,1,6.64,7.48Z" transform="translate(0)"/><path class="cls-65" d="M1966.73,1024.9l-5.09,3.78a5,5,0,1,1-6-8.07h0l.11-.08,4.88-3.61.1-.08a5,5,0,1,1,6,8.06Z" transform="translate(0)"/><path class="cls-65" d="M1949.39,1037l-5.41,3.31a5,5,0,0,1-5.26-8.6h0l.12-.07,5.17-3.16.12-.07a5,5,0,1,1,5.25,8.6Z" transform="translate(0)"/><path class="cls-65" d="M1931,1047.4l-5.7,2.79a5.06,5.06,0,1,1-4.45-9.1h0l.13-.07,5.44-2.65.13-.06a5.06,5.06,0,0,1,4.44,9.09Z" transform="translate(0)"/><path class="cls-65" d="M1911.69,1056l-6,2.21a5.08,5.08,0,1,1-3.54-9.53h0l.14-.06,5.67-2.09.14,0a5.08,5.08,0,0,1,3.53,9.52Z" transform="translate(0)"/><path class="cls-65" d="M1891.58,1062.69l-6.17,1.58a5.1,5.1,0,1,1-2.54-9.88h0l.16,0,5.85-1.49.16,0a5.09,5.09,0,0,1,2.53,9.87Z" transform="translate(0)"/><path class="cls-65" d="M1870.83,1067.18l-6.31.89a5.12,5.12,0,1,1-1.44-10.14h0l.18,0,6-.84.18,0a5.11,5.11,0,0,1,1.42,10.13Z" transform="translate(0)"/><path class="cls-65" d="M1849.69,1069.32l-6.38.16a5.14,5.14,0,1,1-.26-10.28h.19l6-.14h.18a5.14,5.14,0,0,1,.25,10.27Z" transform="translate(0)"/><path class="cls-65" d="M1828.42,1069l-6.36-.6a5.16,5.16,0,0,1,1-10.28h.19l6,.58.18,0a5.15,5.15,0,0,1-1,10.26Z" transform="translate(0)"/></g></g></g></svg>