<svg xmlns="http://www.w3.org/2000/svg" xmlns:xlink="http://www.w3.org/1999/xlink" viewBox="0 0 458.14 625.83"><defs><style>.cls-1{fill:url(#Dégradé_sans_nom_11);}.cls-2{fill:url(#Dégradé_sans_nom_11-4);}.cls-3{fill:url(#Dégradé_sans_nom_11-5);}.cls-4{fill:url(#Dégradé_sans_nom_11-6);}.cls-5{fill:url(#Dégradé_sans_nom_11-8);}.cls-6{fill:url(#Dégradé_sans_nom_11-9);}.cls-7{fill:url(#Dégradé_sans_nom_11-12);}.cls-8{fill:#7e7e7e;}</style><radialGradient id="Dégradé_sans_nom_11" cx="562.3" cy="468.7" r="411.18" gradientTransform="translate(0 -133.34) scale(1 1.28)" gradientUnits="userSpaceOnUse"><stop offset="0.49" stop-color="#f04936"/><stop offset="0.63" stop-color="#f3692f"/><stop offset="0.77" stop-color="#f58129"/><stop offset="0.89" stop-color="#f78f26"/><stop offset="1" stop-color="#f79425"/></radialGradient><radialGradient id="Dégradé_sans_nom_11-4" cx="562.3" cy="468.7" r="411.18" xlink:href="#Dégradé_sans_nom_11"/><radialGradient id="Dégradé_sans_nom_11-5" cx="562.3" cy="468.7" r="411.18" xlink:href="#Dégradé_sans_nom_11"/><radialGradient id="Dégradé_sans_nom_11-6" cx="562.3" cy="468.7" r="411.18" xlink:href="#Dégradé_sans_nom_11"/><radialGradient id="Dégradé_sans_nom_11-8" cx="562.3" cy="468.7" r="411.18" xlink:href="#Dégradé_sans_nom_11"/><radialGradient id="Dégradé_sans_nom_11-9" cx="562.3" cy="468.7" r="411.18" xlink:href="#Dégradé_sans_nom_11"/><radialGradient id="Dégradé_sans_nom_11-12" cx="562.3" cy="468.7" r="411.18" xlink:href="#Dégradé_sans_nom_11"/></defs><g id="Calque_2" data-name="Calque 2"><g id="Calque_1-2" data-name="Calque 1"><path class="cls-1" d="M410.89,208.66a160.53,160.53,0,0,0-51.26-35.23,157.88,157.88,0,0,0-42.27-11.62,124.15,124.15,0,0,0,6.81-40.48,121.87,121.87,0,0,0-34.9-85.88A117.31,117.31,0,0,0,210.13,0V29.09c47.68,2.7,85.53,43,85.53,92.24a92.86,92.86,0,0,1-35.76,73.53,130.57,130.57,0,0,1,36.93-5.31c73.34,0,132.8,60.61,132.8,135.37s-59.46,135.36-132.8,135.36a130.84,130.84,0,0,1-86.7-32.82v36.15A160.18,160.18,0,0,0,234,476.4a158.86,158.86,0,0,0,125.6,0,160.5,160.5,0,0,0,51.26-35.22,163.88,163.88,0,0,0,34.56-52.25,167.78,167.78,0,0,0,0-128A163.88,163.88,0,0,0,410.89,208.66Z"/><polygon class="cls-1" points="40.55 426.87 40.55 434.87 140.12 406.88 140.12 398.31 40.55 371.28 40.55 379.27 130.98 402.31 130.98 402.69 40.55 426.87"/><path class="cls-1" d="M120.89,228.68v-.38h19.23v-7.24H4.19v7.24H58.07v.38c-10.66,3.62-19.8,11-19.8,24.75,0,24.56,21.32,31.41,51.78,31.41,30.84,0,52.36-7.8,52.36-31C142.41,239.91,134.41,231.15,120.89,228.68ZM90.05,276.85c-30.27,0-45.31-6.67-45.31-23.8,0-15,12.57-24.94,45.31-24.75,29.13,0,45.88,6.66,45.88,24.37C135.93,272.28,115.37,276.85,90.05,276.85Z"/><path class="cls-2" d="M57.88,116.16v.38H40.55v7.23h99.57v-7.23H76.92c-16.38,0-32.18-8.38-32.18-25.32V87H38.27v4.19C38.27,104.35,46.45,112.54,57.88,116.16Z"/><polygon class="cls-3" points="26.65 162.81 0 177.66 0 186.79 26.65 169.09 26.65 162.81"/><rect class="cls-4" x="4.19" y="447.05" width="135.93" height="7.24"/><path class="cls-1" d="M107.57,472v7.23c7.42,0,28.36,3.43,28.36,24.37,0,23.23-30.08,23.42-46.07,23.42V470.66c-32.17,0-51.59,7.62-51.59,31,0,22.47,18.85,33.32,49.31,33.32,33.88,0,54.83-6.47,54.83-32.17C142.41,480.37,122.8,472,107.57,472ZM83.39,527c-13,0-38.65-2.86-38.65-24.94,0-20.57,20.56-23.42,38.65-23.42Z"/><path class="cls-5" d="M107.57,299.31v7.24c7.42,0,28.36,3.43,28.36,24.37,0,23.22-30.08,23.41-46.07,23.41V298c-32.17,0-51.59,7.62-51.59,31,0,22.47,18.85,33.32,49.31,33.32,33.88,0,54.83-6.47,54.83-32.17C142.41,307.69,122.8,299.31,107.57,299.31Zm-24.18,55c-13,0-38.65-2.85-38.65-24.94C44.74,308.83,65.3,306,83.39,306Z"/><path class="cls-6" d="M103.19,549.29c-18.66,0-32.94,9.9-34.27,29.51h-.38c-1.91-15-12.19-25.13-30.46-25.13-20.18,0-33.89,9-33.89,35.6v36.56H140.12v-37.7C140.12,564.14,126,549.29,103.19,549.29ZM65.68,617.83h-55V588.32c0-17.51,9-26.65,27.42-26.65,19.23,0,27.6,12.56,27.6,30.08Zm68,0H72.16V591.37c0-19.42,6.66-34.08,30.84-34.08,22.46,0,30.65,11.61,30.65,33.7Z"/><polygon class="cls-2" points="26.65 330.73 0 313.02 0 322.16 26.65 337.01 26.65 330.73"/><path class="cls-1" d="M107.57,17.35v7.23C115,24.58,135.93,28,135.93,49c0,23.23-30.08,23.42-46.07,23.42V16c-32.17,0-51.59,7.61-51.59,31,0,22.46,18.85,33.32,49.31,33.32,33.88,0,54.83-6.48,54.83-32.18C142.41,25.73,122.8,17.35,107.57,17.35Zm-24.18,55c-13,0-38.65-2.86-38.65-24.94C44.74,26.87,65.3,24,83.39,24Z"/><path class="cls-7" d="M107.57,140.72V148c7.42,0,28.36,3.42,28.36,24.36,0,23.23-30.08,23.42-46.07,23.42V139.39c-32.17,0-51.59,7.61-51.59,31,0,22.47,18.85,33.32,49.31,33.32,33.88,0,54.83-6.48,54.83-32.18C142.41,149.1,122.8,140.72,107.57,140.72Zm-24.18,55c-13,0-38.65-2.85-38.65-24.94,0-20.56,20.56-23.42,38.65-23.42Z"/><rect class="cls-8" x="166.69" y="161.54" width="5.7" height="2.12"/><rect class="cls-8" x="166.69" y="111.84" width="5.7" height="2.12"/><path class="cls-8" d="M177.37,185.47v2.13h39.08v-2.13H201v-.11c4-.73,6.32-3.3,6.32-7.38,0-6.82-6.32-9.11-15.37-9.11-8.56,0-15.21,2.07-15.21,9,0,4.53,2.68,6.43,5.81,7.49v.11Zm1.23-7.55c0-4,3.91-6.7,13.31-6.7,7.43,0,13.47,1.34,13.47,7.1,0,5.2-4.92,7.15-13.47,7.15C182.91,185.47,178.6,183.29,178.6,177.92Z"/><path class="cls-8" d="M203.09,128.5H184.42c-4.2,0-7.72,1.57-7.72,8,0,6.82,5,8.27,9,8.27v-2.12c-4,0-7.1-1.46-7.1-6.38,0-3.18,1.12-5.64,6.43-5.64,2.46,0,3.63.33,4.31,2.85l1.73,6.32c1.12,4.13,3.63,5.92,8.05,5.92s8.16-2.23,8.16-7.32a7.65,7.65,0,0,0-5.37-7.66v-.11h1.85a2.89,2.89,0,0,0,3.19-2.52,4,4,0,0,0-.51-2.24h-1.67a2.71,2.71,0,0,1,.28,1.35C205.05,127.94,204.49,128.5,203.09,128.5Zm2.29,9.51c0,3.69-2.46,5.36-6.26,5.36-3.47,0-5.48-1.23-6.43-4.64l-1.17-4.3c-.62-2.18-.79-3-2-3.69v-.11h6C201.47,130.63,205.38,133,205.38,138Z"/><path class="cls-8" d="M191.18,106.64c9.95,0,16.1-1.9,16.1-9.45,0-6.59-5.76-9-10.23-9v2.12c2.18,0,8.33,1,8.33,7.16,0,6.82-8.83,6.87-13.53,6.87V87.74c-9.45,0-15.15,2.24-15.15,9.12C176.7,103.46,182.23,106.64,191.18,106.64ZM190,90.09v14.2c-3.8,0-11.35-.83-11.35-7.32C178.6,90.93,184.64,90.09,190,90.09Z"/><path class="cls-8" d="M182.46,80.92V81h-5.09v2.12h29.24V81H188.05c-4.81,0-9.45-2.46-9.45-7.44V72.37h-1.9V73.6C176.7,77.46,179.1,79.86,182.46,80.92Z"/><rect class="cls-8" x="177.37" y="111.84" width="29.24" height="2.12"/><rect class="cls-8" x="177.37" y="161.54" width="29.24" height="2.12"/><path class="cls-8" d="M168.71,154.05h8.66v4h1.9v-4H202c3.18,0,4.92-1.28,4.92-4.3a15.85,15.85,0,0,0-.34-3h-1.9a8.69,8.69,0,0,1,.34,2.63c0,1.23-.45,2.57-3.25,2.57H179.27v-4.87h-1.9v4.87h-8.66Z"/><rect class="cls-8" x="166.69" y="120.12" width="39.92" height="2.12"/><path class="cls-8" d="M177.37,317.42h1.9v-4H202c3.18,0,4.92-1.29,4.92-4.31a15.85,15.85,0,0,0-.34-3h-1.9a8.73,8.73,0,0,1,.34,2.63c0,1.23-.45,2.57-3.25,2.57H179.27v-4.86h-1.9v4.86h-8.66v2.13h8.66Z"/><path class="cls-8" d="M206.61,251.84H187.88c-5.09,0-9.28-2.52-9.28-7,0-3.64,1.79-5.82,7-5.82h21v-2.12h-22c-5.53,0-7.88,3.24-7.88,7.38a7.79,7.79,0,0,0,5.09,7.43v.12h-15.1V254h39.92Z"/><path class="cls-8" d="M176.7,292.82v1.23c0,3.85,2.4,6.26,5.76,7.32v.11h-5.09v2.13h29.24v-2.13H188.05c-4.81,0-9.45-2.46-9.45-7.43v-1.23Z"/><path class="cls-8" d="M197.05,364.49v2.35c2.18,0,8.33,1,8.33,6.37s-4.3,7.44-13.42,7.44c-8.38,0-13.36-2-13.36-7.44,0-5,5.37-6.2,7.16-6.2v-2.35c-2.13,0-9.06,1.4-9.06,8.5,0,6.87,5.48,9.84,15.15,9.84,8.78,0,15.43-1.9,15.43-9.45S199.79,364.49,197.05,364.49Z"/><path class="cls-8" d="M185.59,322.84h21v-2.13h-22c-5.53,0-7.88,3.25-7.88,7.38a7.81,7.81,0,0,0,5.09,7.44v.11h-4.42v2.13h29.24v-2.13H187.88c-5.09,0-9.28-2.51-9.28-7C178.6,325,180.39,322.84,185.59,322.84Z"/><path class="cls-8" d="M197.05,342.74v2.13c2.18,0,8.33,1,8.33,7.15,0,6.82-8.83,6.88-13.53,6.88V342.35c-9.45,0-15.15,2.24-15.15,9.11,0,6.6,5.53,9.79,14.48,9.79,9.95,0,16.1-1.9,16.1-9.45C207.28,345.2,201.52,342.74,197.05,342.74ZM190,358.9c-3.8,0-11.35-.84-11.35-7.32,0-6,6-6.88,11.35-6.88Z"/><path class="cls-8" d="M197.05,272.35v2.13c2.18,0,8.33,1,8.33,7.15,0,6.83-8.83,6.88-13.53,6.88V272c-9.45,0-15.15,2.24-15.15,9.12,0,6.59,5.53,9.78,14.48,9.78,9.95,0,16.1-1.9,16.1-9.45C207.28,274.81,201.52,272.35,197.05,272.35ZM190,288.51c-3.8,0-11.35-.84-11.35-7.32,0-6,6-6.88,11.35-6.88Z"/><path class="cls-8" d="M192,212.36c-8.38,0-15.26,1.9-15.26,9.62,0,8.05,6.88,10,15.26,10s15.32-1.9,15.32-9.61C207.28,214.26,200.41,212.36,192,212.36Zm.06,17.22c-8.44,0-13.42-1.84-13.42-7.43s5-7.44,13.42-7.44,13.36,1.85,13.36,7.44S200.41,229.58,192,229.58Z"/><path class="cls-8" d="M199.23,191.85c-4,0-6.43,1.78-7.77,5.31l-1.68,4.47c-1.12,2.91-2.68,4.36-5.76,4.36-3.85,0-5.42-2.57-5.42-5.65,0-4.8,3.52-5.48,6.15-5.48h.84v-2.12h-.9c-3.57,0-8,1.12-8,7.6,0,4.64,2.68,8,7.55,8,3.74,0,5.87-1.85,7.32-5.48l1.73-4.31c1.29-3.24,3.19-4.36,6-4.36,3.24,0,6.09,1.79,6.09,6.1,0,4.86-3,6.54-7.16,6.54h-.95V209h.79c3.41,0,9.22-.56,9.22-8.66C207.28,195.65,204.15,191.85,199.23,191.85Z"/></g></g></svg>