<?xml version="1.0" encoding="utf-8"?>
<!-- Generator: Adobe Illustrator 25.0.1, SVG Export Plug-In . SVG Version: 6.00 Build 0)  -->
<svg version="1.1"
	 id="google" xmlns:cc="http://creativecommons.org/ns#" xmlns:dc="http://purl.org/dc/elements/1.1/" xmlns:rdf="http://www.w3.org/1999/02/22-rdf-syntax-ns#"
	 xmlns="http://www.w3.org/2000/svg" xmlns:xlink="http://www.w3.org/1999/xlink" x="0px" y="0px" viewBox="0 0 578.5 204.8"
	 style="enable-background:new 0 0 578.5 204.8;" xml:space="preserve">
<style type="text/css">
	.st0{fill:#4885ED;}
	.st1{fill:#DB3236;}
	.st2{fill:#F4C20D;}
	.st3{fill:#3CBA54;}
</style>
<g>
	<path class="st0" d="M19,35.9h15.2v105.1h50.4v12.8H19V35.9z"/>
	<path class="st1" d="M175.2,110.7c0,31.3-21.7,44.9-42.1,44.9c-22.9,0-40.6-16.8-40.6-43.5c0-28.3,18.5-44.9,42-44.9
		C158.7,67.2,175.2,84.8,175.2,110.7z M108,111.6c0,18.5,10.7,32.5,25.7,32.5c14.7,0,25.7-13.8,25.7-32.9c0-14.3-7.2-32.5-25.4-32.5
		C115.9,78.7,108,95.5,108,111.6z"/>
	<path class="st2" d="M267.5,69.1c-0.4,6.1-0.7,12.9-0.7,23.3v49.1c0,19.4-3.8,31.3-12.1,38.6c-8.2,7.7-20.1,10.1-30.8,10.1
		c-10.1,0-21.3-2.4-28.1-7l3.8-11.7c5.6,3.5,14.3,6.6,24.8,6.6c15.7,0,27.3-8.2,27.3-29.5v-9.4h-0.3c-4.7,7.9-13.8,14.2-26.9,14.2
		c-21,0-36-17.8-36-41.3c0-28.7,18.7-44.9,38.1-44.9c14.7,0,22.7,7.7,26.4,14.7h0.4l0.7-12.8H267.5z M251.6,102.5
		c0-2.6-0.2-4.9-0.9-7c-2.8-8.9-10.3-16.3-21.5-16.3c-14.7,0-25.2,12.4-25.2,32c0,16.6,8.4,30.4,25,30.4c9.4,0,18-5.9,21.3-15.7
		c0.9-2.6,1.2-5.6,1.2-8.2V102.5z"/>
	<path class="st0" d="M368.9,110.7c0,31.3-21.7,44.9-42.1,44.9c-22.9,0-40.6-16.8-40.6-43.5c0-28.3,18.5-44.9,42-44.9
		C352.5,67.2,368.9,84.8,368.9,110.7z M301.8,111.6c0,18.5,10.7,32.5,25.7,32.5c14.7,0,25.7-13.8,25.7-32.9
		c0-14.3-7.2-32.5-25.4-32.5C309.6,78.7,301.8,95.5,301.8,111.6z"/>
	<path class="st3" d="M442.5,45.3c0.2,5.2-3.7,9.4-9.8,9.4c-5.4,0-9.3-4.2-9.3-9.4c0-5.4,4-9.6,9.6-9.6
		C438.8,35.7,442.5,39.9,442.5,45.3z M425.4,153.7V69.1h15.4v84.6H425.4z"/>
	<path class="st1" d="M526.6,150.6c-4,2.1-12.9,4.9-24.3,4.9c-25.5,0-42.1-17.3-42.1-43.2c0-26.1,17.8-44.9,45.5-44.9
		c9.1,0,17.1,2.3,21.3,4.4l-3.5,11.9c-3.7-2.1-9.4-4-17.8-4c-19.4,0-29.9,14.3-29.9,32c0,19.6,12.6,31.6,29.4,31.6
		c8.7,0,14.5-2.3,18.9-4.2L526.6,150.6z"/>
	<path class="st0" d="M561.7,45.3c0.2,5.2-3.7,9.4-9.8,9.4c-5.4,0-9.3-4.2-9.3-9.4c0-5.4,4-9.6,9.6-9.6
		C558.1,35.7,561.7,39.9,561.7,45.3z M544.6,153.7V69.1H560v84.6H544.6z"/>
</g>
</svg>
