<svg xmlns="http://www.w3.org/2000/svg" xmlns:xlink="http://www.w3.org/1999/xlink" width="524.043" height="328.627" viewBox="0 0 524.043 328.627"><defs><clipPath id="a"><rect width="524.043" height="328.627" fill="none"/></clipPath><clipPath id="b"><rect width="524.041" height="325.511" fill="none"/></clipPath><clipPath id="c"><path d="M499.141,170.335c.95-20.671,14.734-38.314,21.063-58.015a83.721,83.721,0,0,0-9.849-70.878A83.722,83.722,0,0,0,448.794,4.961C411.436,1.738,377.212,23.65,344.77,42.452S273.406,78.116,238.439,64.575c-24.288-9.406-41.029-31.581-62.593-46.189C142.393-4.276,95.489-6.662,61.372,14.988S9.432,82.218,22.445,120.472c6.11,17.961,18.366,34.953,16.471,53.829-2.513,25.033-28.546,41.248-36.5,65.116-6.849,20.557,1.476,44.2,17.159,59.149s37.513,22.1,59.107,23.9,43.261-1.3,64.708-4.4L142,325.51l105.659-8.182c41.972-3.25,84.145-6.5,126.117-3.256,30.009,2.321,60.5,7.925,89.894,1.46s58.062-29.408,59.015-59.491c.947-29.893-24.918-55.83-23.545-85.706" transform="translate(0 0)" fill="none"/></clipPath><linearGradient id="d" x1="0.008" y1="1.009" x2="0.009" y2="1.009" gradientUnits="objectBoundingBox"><stop offset="0" stop-color="#b37cff"/><stop offset="1" stop-color="#f895e7"/></linearGradient><clipPath id="e"><rect width="184.058" height="71.622" fill="none"/></clipPath><clipPath id="f"><path d="M864.659,535.6c-16.128-7.635-112.515-47.8-183.324,45.046,0,0,53.6,44.437,183.149-42.206,1.133-.758,1.228-2.342.175-2.841" transform="translate(-681.335 -520.42)" fill="none"/></clipPath><linearGradient id="g" x1="-1.392" y1="0.656" x2="-1.389" y2="0.656" gradientUnits="objectBoundingBox"><stop offset="0" stop-color="#a737d5"/><stop offset="1" stop-color="#ef497a"/></linearGradient><clipPath id="h"><rect width="148.667" height="20.879" fill="none"/></clipPath><clipPath id="i"><rect width="186.375" height="309.398" fill="none"/></clipPath><clipPath id="j"><path d="M827.564,33.2a3.136,3.136,0,0,0-4.407-3.193C789.337,45.19,596.131,141.577,654.012,339.126c0,0,143.53-30.712,173.552-305.924" transform="translate(-643.266 -29.728)" fill="none"/></clipPath><linearGradient id="k" x1="-0.9" y1="0.967" x2="-0.898" y2="0.967" gradientUnits="objectBoundingBox"><stop offset="0" stop-color="#fdf53f"/><stop offset="1" stop-color="#d93c65"/></linearGradient><clipPath id="l"><rect width="164.571" height="232.395" fill="none"/></clipPath><clipPath id="m"><rect width="51.407" height="160.657" fill="none"/></clipPath><clipPath id="n"><path d="M596.1,243.478c10.061,11.347,65.735,80.458,6.787,160.293,0,0-48.993-33.184-9.063-159.476.349-1.105,1.619-1.559,2.276-.818" transform="translate(-578.153 -243.115)" fill="none"/></clipPath><linearGradient id="o" x1="-1.129" y1="1.238" x2="-1.127" y2="1.238" xlink:href="#g"/><clipPath id="p"><rect width="20.901" height="126.2" fill="none"/></clipPath><clipPath id="q"><path d="M254.025,85.365l-168.739.15a19.842,19.842,0,0,0-19.824,19.86L65.68,351.59a12.236,12.236,0,0,0,12.47,12.223l193.393-3.686a12.891,12.891,0,0,0,12.628-13.556L271.5,101.942a17.481,17.481,0,0,0-17.457-16.577h-.016" transform="translate(-65.462 -85.365)" fill="none"/></clipPath><linearGradient id="r" x1="0.1" y1="0.929" x2="0.101" y2="0.929" gradientUnits="objectBoundingBox"><stop offset="0" stop-color="#2b3582"/><stop offset="1" stop-color="#150e42"/></linearGradient><clipPath id="t"><path d="M93.425,87.352l1.747,258.1a4.859,4.859,0,0,0,4.353,4.8c40.478,4.2,153.947-2.2,181.5-3.855a6.133,6.133,0,0,0,5.756-6.455L273.5,94.23a5.329,5.329,0,0,0-5.743-5.021C202.25,94.3,123,84.7,99.957,81.6a5.907,5.907,0,0,0-.781-.052,5.766,5.766,0,0,0-5.752,5.807" transform="translate(-93.425 -81.545)" fill="none"/></clipPath><linearGradient id="u" x1="0.063" y1="1.031" x2="0.065" y2="1.031" gradientUnits="objectBoundingBox"><stop offset="0" stop-color="#53eac9"/><stop offset="0.996" stop-color="#45aed8"/><stop offset="1" stop-color="#45aed8"/></linearGradient><clipPath id="w"><rect width="186.084" height="259.949" fill="none"/></clipPath><clipPath id="x"><rect width="64.447" height="57.857" fill="none"/></clipPath><clipPath id="y"><path d="M194.052,157.227a10.9,10.9,0,1,0,.01,0h-.01" transform="translate(-183.163 -157.227)" fill="none"/></clipPath><linearGradient id="z" x1="-2.85" y1="8.435" x2="-2.834" y2="8.435" xlink:href="#k"/><clipPath id="aa"><path d="M186.041,213.232a24.206,24.206,0,0,0-19.464,10.828,2.81,2.81,0,0,0,2.3,4.42l34.722-.031a2.688,2.688,0,0,0,2.254-4.146c-2.887-4.508-8.854-11.081-19.1-11.081-.237,0-.475,0-.717.01" transform="translate(-166.065 -213.222)" fill="none"/></clipPath><linearGradient id="ab" x1="-2.343" y1="5.498" x2="-2.329" y2="5.498" xlink:href="#k"/><clipPath id="ad"><rect width="64.312" height="4.52" fill="none"/></clipPath><clipPath id="ag"><rect width="145.764" height="4.538" fill="none"/></clipPath><clipPath id="ai"><rect width="114.188" height="5.985" fill="none"/></clipPath><clipPath id="aj"><path d="M168.6,326.344l-5.875,13.111a.593.593,0,0,1-1.059.047l-2.377-4.252a1.846,1.846,0,0,0-2.548-.691,1.937,1.937,0,0,0-.776,2.473c2.848,6.24,6.379,7.609,6.379,7.609a25.875,25.875,0,0,0,7.513-18.014.653.653,0,0,0-.667-.672.633.633,0,0,0-.59.39" transform="translate(-155.793 -325.954)" fill="none"/></clipPath><linearGradient id="ak" x1="-3.091" y1="7.767" x2="-3.07" y2="7.767" xlink:href="#g"/><clipPath id="am"><rect width="14.924" height="12.429" fill="none"/></clipPath><clipPath id="as"><path d="M263.447,23.582a4.774,4.774,0,1,1,4.778,4.77h0a4.774,4.774,0,0,1-4.774-4.77M261.5,11.134a7.442,7.442,0,0,0-5.278,7.828l1.624,17.56L277,38.2s11.6-15.723-.364-24.028a18.609,18.609,0,0,0-10.707-3.687,15.549,15.549,0,0,0-4.421.644" transform="translate(-256.193 -10.49)" fill="none"/></clipPath><linearGradient id="at" x1="-2.907" y1="7.734" x2="-2.896" y2="7.734" xlink:href="#r"/><clipPath id="av"><path d="M206.639,62.826l.008,8.829,72.007,1.215-.516-8.483a5.24,5.24,0,0,0-5.055-4.919l-60.876-2.031c-.061,0-.122,0-.183,0a5.388,5.388,0,0,0-5.384,5.392" transform="translate(-206.639 -57.434)" fill="none"/></clipPath><linearGradient id="aw" x1="-1.973" y1="4.886" x2="-1.964" y2="4.886" xlink:href="#r"/><clipPath id="ay"><path d="M268.366,79.527l-106.45.1a5.736,5.736,0,0,0-5.724,5.466l-.231,4.888a4.394,4.394,0,0,0,4.393,4.6l109.211-.1a6.757,6.757,0,0,0,6.651-7.915l-.091-.521a7.866,7.866,0,0,0-7.751-6.519h-.007" transform="translate(-155.956 -79.527)" fill="none"/></clipPath><linearGradient id="az" x1="-1.435" y1="2.981" x2="-1.428" y2="2.981" gradientUnits="objectBoundingBox"><stop offset="0" stop-color="#53d8ff"/><stop offset="1" stop-color="#3840f7"/></linearGradient><clipPath id="bb"><rect width="156.081" height="154.571" fill="none"/></clipPath><clipPath id="bc"><path d="M121.27,294.159c22.7,3.2,154.043,27.217,153.644,154.515,0,0-90.538,6.448-155.713-151.861a1.94,1.94,0,0,1,2.068-2.654" transform="translate(-119.054 -294.139)" fill="none"/></clipPath><linearGradient id="bd" x1="-0.276" y1="1.072" x2="-0.273" y2="1.072" xlink:href="#az"/><clipPath id="be"><rect width="138.06" height="110.545" fill="none"/></clipPath><clipPath id="bf"><rect width="145.174" height="278.606" fill="none"/></clipPath><clipPath id="bg"><path d="M220.207,31.521a2.722,2.722,0,0,1,4.016-2.485C252.536,44.32,413.662,139.987,351.048,307.311c0,0-122.288-35.675-130.841-275.79" transform="translate(-220.205 -28.705)" fill="none"/></clipPath><linearGradient id="bh" x1="-0.151" y1="1.199" x2="-0.15" y2="1.199" xlink:href="#az"/><clipPath id="bi"><rect width="128.003" height="211.679" fill="none"/></clipPath><clipPath id="bj"><path d="M174.383,489.177l-58.217-.16v.322l-8.066.022v3.621c0,.622.539,1.212,1.477,1.62l.926.4c.761.33.6.943-.3,1.164-.6.146-.709.548-.213.77l1.168.522c.763.341.765.94,0,1.283l-.839.377c-.723.325-.7.9.044,1.208l.9.375c.625.261.73.723.238,1.047l-.5.327a1.028,1.028,0,0,0-.548.814v5.719H238.307v-5.719a1.028,1.028,0,0,0-.548-.814l-.5-.327c-.492-.324-.388-.786.238-1.047l.9-.375c.747-.312.767-.883.044-1.208l-.838-.377c-.762-.342-.761-.941,0-1.283l1.167-.522c.5-.222.385-.624-.212-.77-.9-.221-1.065-.834-.3-1.164l.926-.4c.938-.407,1.477-1,1.477-1.62v-3.621l-8.066-.022v-.322Z" transform="translate(-108.1 -489.017)" fill="none"/></clipPath><linearGradient id="bk" x1="-0.399" y1="3.738" x2="-0.395" y2="3.738" xlink:href="#k"/><clipPath id="bl"><path d="M108.1,527.368v12.673a10.3,10.3,0,0,0,1.529,5.666l.959,1.406a3.5,3.5,0,0,1-.314,4.071,2.331,2.331,0,0,0-.22,2.694l1.207,1.823a4.43,4.43,0,0,1,.006,4.493l-.868,1.319a4.2,4.2,0,0,0,.045,4.227l.933,1.315a4.057,4.057,0,0,1,.245,3.663l-.513,1.143a7.075,7.075,0,0,0-.567,2.85v20.011H237.034l-1.556-10.065,1.287-5.059a2.577,2.577,0,0,0-.318-2l-.059-.1a2.583,2.583,0,0,1,.1-2.895l2.9-4.086a2.586,2.586,0,0,0,.362-2.334l-3.98-11.918a2.549,2.549,0,0,1,.025-1.7l2.339-6.374a2.645,2.645,0,0,0-.863-2.972,2.63,2.63,0,0,1-.659-3.4l.066-.113a2.6,2.6,0,0,0,.362-1.317V526.165Z" transform="translate(-108.1 -526.165)" fill="none"/></clipPath><linearGradient id="bm" x1="-0.356" y1="0.908" x2="-0.352" y2="0.908" xlink:href="#k"/><clipPath id="bn"><path d="M105,525.166a1.744,1.744,0,0,0,0,3.483H239.673a1.744,1.744,0,0,0,0-3.483Z" transform="translate(-103.341 -525.166)" fill="none"/></clipPath><linearGradient id="bo" x1="-0.374" y1="3.712" x2="-0.371" y2="3.712" xlink:href="#g"/><clipPath id="bp"><path d="M105,485.49a1.744,1.744,0,0,0,0,3.484H239.673a1.744,1.744,0,0,0,0-3.484Z" transform="translate(-103.341 -485.49)" fill="none"/></clipPath><linearGradient id="bq" x1="-0.374" y1="4.643" x2="-0.371" y2="4.643" xlink:href="#g"/><clipPath id="br"><path d="M100.224,588.378v6.666a3.777,3.777,0,0,0,1.529,2.981l.959.739a1.225,1.225,0,0,1-.314,2.142.816.816,0,0,0-.22,1.418l1.209.96a1.473,1.473,0,0,1,0,2.362l-.868.693a1.369,1.369,0,0,0,.046,2.224l.932.691a1.3,1.3,0,0,1,.246,1.927l-.514.6a2.308,2.308,0,0,0-.567,1.5v10.526H256.642V587.745Z" transform="translate(-100.224 -587.745)" fill="none"/></clipPath><linearGradient id="bs" x1="-0.342" y1="0.679" x2="-0.339" y2="0.679" xlink:href="#d"/><clipPath id="bu"><rect width="148.549" height="0.845" fill="none"/></clipPath><clipPath id="bv"><rect width="145.706" height="0.845" fill="none"/></clipPath><clipPath id="bw"><rect width="144.248" height="0.845" fill="none"/></clipPath><clipPath id="bx"><path d="M254.01,583.087H92.531a1.95,1.95,0,0,0-2.03,1.571,1.834,1.834,0,0,0,1.946,1.913h151.73a4.532,4.532,0,0,1,4.521,3.264,60.284,60.284,0,0,1-.036,26.553,4.92,4.92,0,0,1-4.952,3.662H94.986a1.949,1.949,0,0,0-2.029,1.57,1.833,1.833,0,0,0,1.945,1.913h158.22a6.319,6.319,0,0,0,6.374-4.729c2.258-11.108,2.456-21.769,0-31.856a5.431,5.431,0,0,0-5.415-3.862Z" transform="translate(-90.492 -583.087)" fill="none"/></clipPath><linearGradient id="by" x1="-0.26" y1="1.006" x2="-0.257" y2="1.006" xlink:href="#g"/><clipPath id="ca"><rect width="116.764" height="0.844" fill="none"/></clipPath><clipPath id="cb"><path d="M668.239,40.945c-8.964,18.963-35.584,12.008-35.584,12.008s30.97,44.548,25.777,77.27,21.677,56.385,32.693,55.441,4.752,4.831,15.405,31.857,46.166,54.905,75.359,32.744,34.883-36.62,22.061-52.137-18.269-14.656-6.974-49.14-2.551-51.436-28.926-56.835-2.3-34.727-29.787-62.281c-9.788-9.813-20.348-13.637-30.295-13.637-17.983,0-33.959,12.5-39.731,24.71" transform="translate(-632.655 -16.235)" fill="none"/></clipPath><linearGradient id="cc" x1="-0.832" y1="1.111" x2="-0.83" y2="1.111" gradientUnits="objectBoundingBox"><stop offset="0" stop-color="#cb236d"/><stop offset="1" stop-color="#4c246d"/></linearGradient><clipPath id="cd"><path d="M348.635,83.313s-15.754,12.6-23.632,27.57c-4.769,9.062-7.09,20.481-7.09,23.632s3.151,13.392,0,15.755-20.481,18.9-22.844,22.056,2.363,11.029,7.09,14.179c0,0,3.939,7.877-2.364,11.029,0,0-3.151,5.514,3.939,9.453,0,0-5.514,3.938-2.364,7.877s6.3,4.726,6.3,7.089-5.514,10.241-3.938,15.755,4.726,13.391,31.509,11.028,27.571.787,30.721,4.726,12.6,29.146,15.755,44.9,3.151,22.844-1.575,29.146c-4.459,5.945-20.134,22.405-24.541,38.138a2.234,2.234,0,0,0,2.159,2.824H483.226a8.224,8.224,0,0,0,7.668-11.2c-4.989-12.827-13.426-33.6-20.161-45.515-10.241-18.118-24.42-63.806-22.844-69.32s-16.542-89.8-8.665-106.343c6.723-14.118-50.244-56.925-78.837-56.926-4.91,0-8.982,1.262-11.752,4.148" transform="translate(-294.441 -79.165)" fill="none"/></clipPath><linearGradient id="ce" x1="-0.717" y1="1.001" x2="-0.715" y2="1.001" gradientUnits="objectBoundingBox"><stop offset="0" stop-color="#f9b776"/><stop offset="1" stop-color="#f47960"/></linearGradient><clipPath id="cf"><path d="M349.668,236.637c7.877.788,11.816-3.939,11.816-3.939-11.816,2.363-14.966-1.576-14.966-1.576-8.665,0-4.727,4.727,3.151,5.515" transform="translate(-341.614 -231.122)" fill="none"/></clipPath><linearGradient id="cg" x1="-6.727" y1="18.099" x2="-6.707" y2="18.099" xlink:href="#cc"/><clipPath id="ch"><path d="M410.333,44.773c-16.542,8.665-14.966,17.33-14.966,17.33,46.476,0,33.872,96.89,38.6,97.678s6.3-3.939,20.481-14.179,29.264-6.09,19.693,25.208c-7.862,25.711,14.179,27.571,18.906,37.811s40.962-15.755,50.414-33.873,17.33-68.533,7.877-88.226-33.085-45.688-61.443-53.566a79.54,79.54,0,0,0-21.259-2.7c-22.752,0-45.746,7.939-58.3,14.515" transform="translate(-395.326 -30.258)" fill="none"/></clipPath><linearGradient id="ci" x1="-0.607" y1="1.394" x2="-0.605" y2="1.394" xlink:href="#cc"/><clipPath id="cj"><path d="M343.567,183.891a7.277,7.277,0,0,0,.767,2.481,2.753,2.753,0,0,0,4.056,1.157c2.827-1.911,7.608-4.391,11.718-2.849a55.089,55.089,0,0,1,10.517,5.629.436.436,0,0,0,.588-.627c-2.49-3.237-7.774-9.159-13.468-9.729-.845-.084-1.673-.123-2.477-.123-6.655,0-11.7,2.657-11.7,4.062" transform="translate(-343.567 -179.829)" fill="none"/></clipPath><linearGradient id="ck" x1="-5.634" y1="12.517" x2="-5.618" y2="12.517" xlink:href="#cc"/><clipPath id="cl"><path d="M176.388,515.242a1.831,1.831,0,0,0,1.751,1.983c3.537.147,11.1.434,13.819.313a.6.6,0,0,0,.524-.815A1.332,1.332,0,0,0,191.8,516l-12.5-5.744-2.207-.357s-.474,2.684-.707,5.339" transform="translate(-176.381 -509.903)" fill="none"/></clipPath><linearGradient id="cm" x1="-5.178" y1="4.722" x2="-5.148" y2="4.722" xlink:href="#cc"/><clipPath id="cn"><path d="M177.04,506.2l.381,3.209s2.19,1.019,3.685-.128l-.907-3.576Z" transform="translate(-177.04 -505.707)" fill="none"/></clipPath><linearGradient id="co" x1="-21.506" y1="16.691" x2="-21.385" y2="16.691" xlink:href="#ce"/><clipPath id="cp"><path d="M157.908,398.606s-.875-22.017,0,.776c.783,20.4,6.784,41.75,8.037,46.012a1.074,1.074,0,0,0,1.066.77,10.857,10.857,0,0,0,3.569-.725.625.625,0,0,0,.365-.725c-4.382-18.368-3.663-59.357-3.5-60.2h-9.024Z" transform="translate(-157.519 -384.518)" fill="none"/></clipPath><linearGradient id="cq" x1="-1.737" y1="2.097" x2="-1.724" y2="2.097" gradientUnits="objectBoundingBox"><stop offset="0" stop-color="#50e7b7"/><stop offset="0.996" stop-color="#323992"/><stop offset="1" stop-color="#323992"/></linearGradient><clipPath id="cr"><path d="M145.682,517.691a1.117,1.117,0,0,0,.983,1.337c1.168.115,2.966.262,4.407.253a1.113,1.113,0,0,0,1.1-1.242,9.388,9.388,0,0,0-2.192-5.15l-2.814-.153a19.33,19.33,0,0,0-1.485,4.954" transform="translate(-145.659 -512.737)" fill="none"/></clipPath><linearGradient id="cs" x1="-7.531" y1="8.199" x2="-7.478" y2="8.199" xlink:href="#cc"/><clipPath id="ct"><path d="M147.37,504.185l.89,4.854a3.138,3.138,0,0,0,2.62.18L150.456,504Z" transform="translate(-147.37 -503.996)" fill="none"/></clipPath><linearGradient id="cu" x1="-20.73" y1="13.992" x2="-20.589" y2="13.992" xlink:href="#ce"/><clipPath id="cv"><path d="M141.089,384.742c-3.583,21.627.777,53.451,2.248,59.68a.972.972,0,0,0,.785.738,6.531,6.531,0,0,0,2.8-.112.89.89,0,0,0,.64-.82c.2-5.036-.158-35.951,3.181-48.169a2.776,2.776,0,0,1,1.071-1.531l6.48-4.608.5-7.447Z" transform="translate(-139.71 -382.474)" fill="none"/></clipPath><linearGradient id="cw" x1="-3.138" y1="2.222" x2="-3.114" y2="2.222" xlink:href="#cq"/><clipPath id="cx"><path d="M163.966,302.292c-10.739-.177-22.588,2.82-22.588,2.82-3.2,18.678-.56,40.221-.56,40.221,8.313,2.18,17.692-1.333,17.692-1.333,1.382-7.807,7.829-29.778,7.829-29.778a35.379,35.379,0,0,0,13.129-4.167,23.026,23.026,0,0,1-4.551-9.519,36.035,36.035,0,0,1-10.951,1.756" transform="translate(-139.794 -300.536)" fill="none"/></clipPath><linearGradient id="cy" x1="-0.945" y1="3.017" x2="-0.937" y2="3.017" xlink:href="#cq"/><clipPath id="cz"><path d="M229.294,270.556c-1.58,6.675-9.866,12.088-18.379,14.733a23.026,23.026,0,0,0,4.551,9.519c14.128-7.943,16.219-23.581,16.219-23.581a2.061,2.061,0,0,0-1.629-.814,2.019,2.019,0,0,0-.762.143" transform="translate(-210.915 -270.413)" fill="none"/></clipPath><linearGradient id="da" x1="-5.015" y1="7.997" x2="-4.991" y2="7.997" xlink:href="#ce"/><clipPath id="db"><path d="M248.313,256.216c-.411.56.007,3.507.034,4.2.752,1.435,2.031.9,1.921.55a2.849,2.849,0,0,0,2.14-1.263c.466-.662.959-1.508,1.321-2.16a2.884,2.884,0,0,0,.287-2.124,9.968,9.968,0,0,0-1.2-2.376l2.059-2.145a1.01,1.01,0,0,0-.126-1.4,54.919,54.919,0,0,0-6.433,6.726" transform="translate(-248.133 -249.49)" fill="none"/></clipPath><linearGradient id="dc" x1="-8.284" y1="17.252" x2="-8.25" y2="17.252" xlink:href="#ce"/><clipPath id="dd"><path d="M251.384,261.083l-.589,1.583,1.673,1.856a21.562,21.562,0,0,1,.981-3.822c.418-.68.2-1.009-.188-1.208Z" transform="translate(-250.795 -259.492)" fill="none"/></clipPath><linearGradient id="de" x1="-20.785" y1="37.734" x2="-20.701" y2="37.734" xlink:href="#ce"/><clipPath id="df"><path d="M119.349,325.258a23.711,23.711,0,0,1,8.72,2.337c.742-4.081,7.079-7.4,7.079-7.4l-4.119-10.4s-10.031,6.815-11.68,15.457" transform="translate(-119.349 -309.801)" fill="none"/></clipPath><linearGradient id="dg" x1="-2.379" y1="7.544" x2="-2.358" y2="7.544" xlink:href="#cq"/><clipPath id="dh"><path d="M120.411,349.276c6.657,12.176,24.759-.673,24.759-.673l-1.49-2.776s-11.262,6.365-15.062.929a4.273,4.273,0,0,1-.783-3.319,23.711,23.711,0,0,0-8.72-2.337,11.929,11.929,0,0,0,1.3,8.176" transform="translate(-118.886 -341.1)" fill="none"/></clipPath><linearGradient id="di" x1="-2.201" y1="7.867" x2="-2.182" y2="7.867" xlink:href="#ce"/><clipPath id="dj"><path d="M181.068,320.422c-3.726.315-6.953.68-8.066.81a.624.624,0,0,0-.529.45l-6.146,21.465a.628.628,0,0,0,.6.8l14.26.132a.629.629,0,0,0,.507-.248c3.648-4.774,10.933-19.349,12.7-22.932a.628.628,0,0,0-.514-.9c-.807-.068-1.756-.1-2.8-.1-2.972,0-6.694.242-10.018.523" transform="translate(-166.302 -319.899)" fill="none"/></clipPath><linearGradient id="dk" x1="-2.395" y1="5.761" x2="-2.38" y2="5.761" gradientUnits="objectBoundingBox"><stop offset="0" stop-color="#9cfffb"/><stop offset="1" stop-color="#9bfffa"/></linearGradient><clipPath id="dl"><path d="M201.4,315.682l-4.457.742a.32.32,0,0,0-.259.242l-.273,1.166a.321.321,0,0,0,.354.391l4.288-.573a.321.321,0,0,0,.262-.217l.441-1.336a.319.319,0,0,0-.3-.42.285.285,0,0,0-.054,0" transform="translate(-196.399 -315.677)" fill="none"/></clipPath><linearGradient id="dm" x1="-26.259" y1="29.554" x2="-26.126" y2="29.554" xlink:href="#az"/><clipPath id="dn"><path d="M200.486,318.383l-9,.913a.443.443,0,0,0-.39.357l-.367,1.912a.443.443,0,0,0,.456.525l8.8-.443a.442.442,0,0,0,.407-.338l.572-2.383a.442.442,0,0,0-.429-.545.348.348,0,0,0-.045,0" transform="translate(-190.721 -318.381)" fill="none"/></clipPath><linearGradient id="do" x1="-17.979" y1="16.163" x2="-17.888" y2="16.163" xlink:href="#az"/><clipPath id="dp"><path d="M168.24,344.2c-.345,1.249.511,4.77.511,4.77a3.239,3.239,0,0,0,2.929-1.023c.673-.66,1.071-1.319,1.617-.964a1.139,1.139,0,0,0,1.668-.383l-.978-1.079c1.432.7,1.582-.607,1.582-.607l-1.051-.813a1.276,1.276,0,0,0,1.828-1.1,32.677,32.677,0,0,0-4.861-1.3,3.8,3.8,0,0,0-.6-.051c-1.754,0-2.33,1.42-2.643,2.549" transform="translate(-168.158 -341.654)" fill="none"/></clipPath><linearGradient id="dq" x1="-9.795" y1="21.254" x2="-9.736" y2="21.254" xlink:href="#ce"/><clipPath id="dr"><path d="M163.191,286.437l-3.416,9.881a.357.357,0,0,0,.162.429,8.034,8.034,0,0,0,8.331-.56,1.676,1.676,0,0,0,.772-1.2l1.107-8.552Z" transform="translate(-159.755 -286.437)" fill="none"/></clipPath><linearGradient id="ds" x1="-7.562" y1="15.198" x2="-7.514" y2="15.198" xlink:href="#ce"/><clipPath id="dt"><path d="M164.034,270.528l2.838,7.626c4.06,2.317,8.711,2.522,9.192-.331s-3.272-9.916-3.272-9.916Z" transform="translate(-164.034 -267.907)" fill="none"/></clipPath><linearGradient id="du" x1="-4.511" y1="11.462" x2="-4.482" y2="11.462" xlink:href="#ce"/><clipPath id="dv"><path d="M165.015,259a.291.291,0,0,1-.461,0,3,3,0,0,0-3.656-1.188,2.753,2.753,0,0,0-1.885,2.66.289.289,0,0,1-.343.3,3.358,3.358,0,0,0-3.92,1.827c-.8,1.759-.28,2.754.194,3.241a.29.29,0,0,1-.124.482,1.746,1.746,0,0,0-1.233,1.993c.1,1.846,2.166,1.684,2.754,1.6a.289.289,0,0,1,.258.091c.5.558,2.774,2.926,5.232,3.21a.293.293,0,0,0,.308-.388l-1.063-3.091a.293.293,0,0,1,.158-.362l.527-.234a.292.292,0,0,0,.127-.426,7.605,7.605,0,0,1-1.044-2.216s-.675-.432,1.717-1,5.957-1.461,6.707-3.5c.533-1.447-.344-4.494-2.046-4.494-.632,0-1.377.419-2.206,1.5" transform="translate(-153.582 -257.509)" fill="none"/></clipPath><linearGradient id="dw" x1="-3.173" y1="8.982" x2="-3.152" y2="8.982" xlink:href="#r"/><clipPath id="dx"><path d="M165.193,280.742c-.2,1.544,2.406,2.236,3.694,1.66l-.827-1.37a5.359,5.359,0,0,0-2.175-.908.63.63,0,0,0-.692.618" transform="translate(-165.183 -280.124)" fill="none"/></clipPath><linearGradient id="dy" x1="-18.177" y1="39.792" x2="-18.067" y2="39.792" xlink:href="#ce"/><clipPath id="ea"><rect width="120.471" height="147.985" fill="none"/></clipPath><clipPath id="eb"><path d="M801.753,362.523a1.668,1.668,0,0,0-2.043-2.049c-19.042,5.1-128.644,39.311-115.015,147.926,0,0,77.952-3.947,117.058-145.876" transform="translate(-683.526 -360.415)" fill="none"/></clipPath><linearGradient id="ec" x1="-2.116" y1="1.081" x2="-2.113" y2="1.081" xlink:href="#az"/><clipPath id="ed"><rect width="106.657" height="108.829" fill="none"/></clipPath><clipPath id="ee"><path d="M776.169,650.474c-4.1,1.312-9.01,4.61-11.14,6.126,2.339.12,5.842.225,9.461.058,3.962-.182,5.327-.995,5.794-1.577a11.48,11.48,0,0,0-1.3-4.775Z" transform="translate(-765.029 -650.305)" fill="none"/></clipPath><linearGradient id="ef" x1="-24.767" y1="1.147" x2="-24.735" y2="1.147" xlink:href="#r"/><clipPath id="eg"><path d="M774.246,661.551c-3.619.167-7.121.062-9.461-.058l-.029.021a.5.5,0,0,0,.26.9c3.544.186,10.892-.322,13.856-.546a1.32,1.32,0,0,0,1.212-1.425c-.013-.161-.029-.313-.044-.466-.467.583-1.832,1.4-5.794,1.577" transform="translate(-764.548 -659.974)" fill="none"/></clipPath><linearGradient id="eh" x1="-23.936" y1="1.03" x2="-23.904" y2="1.03" xlink:href="#az"/><clipPath id="ei"><path d="M837.6,651.074a27.3,27.3,0,0,0-1.018,4.783,1.4,1.4,0,0,0,.2.968l7.06-.246a.8.8,0,0,0-.107-.422c-.681-1.185-1.685-2.929-2.048-3.542a4.68,4.68,0,0,0-1.807-1.54,3.624,3.624,0,0,0-1.459-.438.852.852,0,0,0-.819.438" transform="translate(-836.562 -650.636)" fill="none"/></clipPath><linearGradient id="ej" x1="-56.443" y1="1.182" x2="-56.376" y2="1.182" xlink:href="#r"/><clipPath id="ek"><path d="M837,662.915a1.417,1.417,0,0,0,1.248.673l5.03-.138a.8.8,0,0,0,.782-.781Z" transform="translate(-836.999 -662.669)" fill="none"/></clipPath><linearGradient id="el" x1="-58.544" y1="1.468" x2="-58.474" y2="1.468" xlink:href="#az"/><clipPath id="em"><path d="M835.505,639.186c.061.2.973,4.626,1.372,6.567a1.109,1.109,0,0,0,1.141.886c.3-.015.646-.042,1.01-.089a1.338,1.338,0,0,0,1.164-1.276c.065-1.7.1-4.965-.527-6.231a1.4,1.4,0,0,0-1.367-.74,6.969,6.969,0,0,0-2.793.882" transform="translate(-835.505 -638.304)" fill="none"/></clipPath><linearGradient id="en" x1="-86.232" y1="1.603" x2="-86.129" y2="1.603" xlink:href="#ce"/><clipPath id="eo"><path d="M786.929,644.985a1.134,1.134,0,0,0,1.045,1.023c.366.03.728.035,1.032.031a1.026,1.026,0,0,0,.941-.81c.592-2,.045-4.031.436-4.018l-3.935-1.408Z" transform="translate(-786.447 -639.803)" fill="none"/></clipPath><linearGradient id="ep" x1="-94.924" y1="2.03" x2="-94.803" y2="2.03" xlink:href="#ce"/><clipPath id="eq"><path d="M772.252,528.522c.175.85,6.34,36.808,6.714,55.415a.632.632,0,0,0,.545.616,12.452,12.452,0,0,0,3.784-.024.447.447,0,0,0,.368-.409c.215-3.468,1.948-32.784-.174-46.584,0,0,17.528,36.891,20.185,47.063a.535.535,0,0,0,.547.4,13.248,13.248,0,0,0,3.551-.631.929.929,0,0,0,.586-1.091c-1.484-6.088-11.888-48.03-18.951-57.271Z" transform="translate(-772.252 -526.005)" fill="none"/></clipPath><linearGradient id="er" x1="-5.456" y1="1.082" x2="-5.448" y2="1.082" xlink:href="#cq"/><clipPath id="es"><path d="M789.856,544.09a.23.23,0,0,0,0,.325l2.347,2.4a.23.23,0,0,0,.164.069.23.23,0,0,0,.164-.391l-2.347-2.4a.23.23,0,0,0-.325,0" transform="translate(-789.787 -544.024)" fill="none"/></clipPath><linearGradient id="et" x1="-97.186" y1="15.103" x2="-97.063" y2="15.103" xlink:href="#cc"/><clipPath id="eu"><path d="M705.133,438.235c7.74,9.409,22.051,11.474,22.051,11.474l10.757,26.462,2.381,25.716a2.868,2.868,0,0,0,2.581,2.6c6.731.615,13.695-1.514,20.732-4.514a2.961,2.961,0,0,0,1.712-3.411l-14.985-62.774c-6.876-1.238-16.97.979-22.106,2.325a22.287,22.287,0,0,1-11.169.115,18.677,18.677,0,0,1-7.629-3.852,38.312,38.312,0,0,1-4.324,5.86" transform="translate(-705.133 -432.375)" fill="none"/></clipPath><linearGradient id="ev" x1="-5.609" y1="1.565" x2="-5.601" y2="1.565" xlink:href="#u"/><clipPath id="ew"><path d="M696.019,403.13c-1.878,8.839.341,15.261,4.157,19.9a38.308,38.308,0,0,0,4.324-5.86c-6.755-5.77-6.665-14.836-6.665-14.836Z" transform="translate(-695.339 -402.333)" fill="none"/></clipPath><linearGradient id="ex" x1="-16.996" y1="5.695" x2="-16.971" y2="5.695" xlink:href="#ce"/><clipPath id="ey"><path d="M760.4,416.662l-.216,9.863c1.723.978,8.322-.845,8.322-.845-.183-2.563-1.55-10.715-1.55-10.715Z" transform="translate(-760.18 -414.964)" fill="none"/></clipPath><linearGradient id="ez" x1="-36.635" y1="9.068" x2="-36.586" y2="9.068" xlink:href="#ce"/><clipPath id="fa"><path d="M718.6,460.617l5.364,33.695a1.212,1.212,0,0,0,1.145,1.019l53.67,2.243a1.211,1.211,0,0,0,1.261-1.159l1.333-32.006a1.211,1.211,0,0,0-1.131-1.259l-60.367-3.932-.081,0a1.211,1.211,0,0,0-1.193,1.4" transform="translate(-718.584 -459.216)" fill="none"/></clipPath><linearGradient id="fb" x1="-6.352" y1="1.65" x2="-6.343" y2="1.65" xlink:href="#dk"/><clipPath id="fc"><path d="M727.077,455.829l1.093,36.541a1.267,1.267,0,0,0,1.214,1.229l53.508,2.236a1.267,1.267,0,0,0,1.313-1.127l3.714-33.575a1.267,1.267,0,0,0-1.147-1.4l-58.313-5.2c-.039,0-.077,0-.115,0a1.268,1.268,0,0,0-1.266,1.3" transform="translate(-727.077 -454.524)" fill="none"/></clipPath><linearGradient id="fd" x1="-6.154" y1="1.678" x2="-6.145" y2="1.678" xlink:href="#dk"/><clipPath id="fe"><path d="M733.289,452.133l-3.616,37.844a1.566,1.566,0,0,0,1.494,1.714l52.7,2.2a1.567,1.567,0,0,0,1.628-1.455l2.2-31.142a1.566,1.566,0,0,0-1.294-1.654l-51.283-8.9a1.566,1.566,0,0,0-1.827,1.395" transform="translate(-729.666 -450.715)" fill="none"/></clipPath><linearGradient id="ff" x1="-7.447" y1="1.855" x2="-7.437" y2="1.855" xlink:href="#k"/><clipPath id="fg"><path d="M785.021,444.957c7.893,8.1,12.473,14.346,15.1,19.042l6.406-4.025c-3.653-14.391-15.731-24.739-15.731-24.739Z" transform="translate(-785.021 -435.235)" fill="none"/></clipPath><linearGradient id="fh" x1="-17.555" y1="3.903" x2="-17.533" y2="3.903" xlink:href="#u"/><clipPath id="fi"><path d="M811.576,489.354c4.276,7.638,3.383,11.155,3.163,11.782l-6.14,2.631c.039.729,1.151,1.265,2.463.959a3.277,3.277,0,0,1,2.054.057,39.6,39.6,0,0,0-2.615,5.012,1.567,1.567,0,0,1-1.393.912l-1.46.03s3.72,2,6.165.577,3.654-8.454,3.654-8.454a30.632,30.632,0,0,0,.515-17.531Z" transform="translate(-807.648 -485.329)" fill="none"/></clipPath><linearGradient id="fj" x1="-33.544" y1="3.245" x2="-33.503" y2="3.245" xlink:href="#ce"/><clipPath id="fk"><path d="M754,407.43c-.148,2.645-.718,4.361,2.34,4.893a6.5,6.5,0,0,0,7.03-3.626s2.187-4.059,1.7-5.722-8.727-3.23-8.727-3.23-2.194,5.039-2.34,7.685" transform="translate(-753.857 -399.745)" fill="none"/></clipPath><linearGradient id="fl" x1="-20.642" y1="7.536" x2="-20.614" y2="7.536" xlink:href="#ce"/><clipPath id="fm"><path d="M755.03,388.617a3.659,3.659,0,0,0-1.414,5.032c1.2,1.967,6.74,3.1,8.14,3.672s-.193,3.842-.193,3.842h1.211a.208.208,0,0,1,.207.22l-.143,2.311a.207.207,0,0,0,.157.215,4.242,4.242,0,0,0,2.954-.682c1.59-.849.976-1.487.564-1.756a.206.206,0,0,1-.009-.333c2.271-1.859,2.695-4.119,1.659-4.99-.6-.5-1.041-.421-1.32-.252a.208.208,0,0,1-.322-.17c-.061-2.608-2.556-4.135-6.33-4.831-2.659-.491-3.651-1.447-4.016-2.036a.207.207,0,0,0-.373.057.208.208,0,0,1-.383.039l-.127-.241a.212.212,0,0,0-.185-.113.194.194,0,0,0-.077.016" transform="translate(-753.122 -388.601)" fill="none"/></clipPath><linearGradient id="fn" x1="-16.369" y1="6.175" x2="-16.347" y2="6.175" xlink:href="#r"/><clipPath id="fo"><path d="M770.8,412.479l.371,1.41c1.161-.12,3.352-2.825,1.909-3.727a.944.944,0,0,0-.5-.159c-1.132,0-1.776,2.476-1.776,2.476" transform="translate(-770.804 -410.003)" fill="none"/></clipPath><linearGradient id="fp" x1="-71.007" y1="23.85" x2="-70.915" y2="23.85" xlink:href="#ce"/><clipPath id="fq"><path d="M695.862,379.266c1.03,2.172-.125,4.625-.253,5.541s-1.288,5.652,2.459,5.741l2.763-5.352-3.55-9.327s-2.449,1.224-1.418,3.4" transform="translate(-695.339 -375.868)" fill="none"/></clipPath><linearGradient id="fr" x1="-52.592" y1="9.742" x2="-52.516" y2="9.742" xlink:href="#ce"/><clipPath id="ft"><rect width="524.041" height="328.626" fill="none"/></clipPath></defs><g transform="translate(0 -4)"><g transform="translate(0 4)"><g clip-path="url(#a)"><g opacity="0.5"><g clip-path="url(#b)"><g transform="translate(0 0)"><g clip-path="url(#c)"><rect width="532.182" height="332.172" transform="translate(-4.432 -6.661)" fill="url(#d)"/></g></g></g></g><g transform="translate(336.472 257.006)" opacity="0.87"><g clip-path="url(#e)"><g transform="translate(0.001 0)"><g clip-path="url(#f)"><rect width="226.623" height="228.163" transform="matrix(0.691, -0.723, 0.723, 0.691, -68.572, 39.187)" fill="url(#g)"/></g></g><g transform="translate(15.638 19.623)" opacity="0.86"><g clip-path="url(#h)"><path d="M861.246,560.994c-6.206.03-12.42.194-18.627.411s-12.413.515-18.614.885c-12.4.745-24.785,1.754-37.123,3.164q-9.254,1.038-18.462,2.425-9.208,1.364-18.333,3.179c-3.046.584-6.067,1.271-9.094,1.936-3.01.73-6.027,1.436-9.008,2.268a176.272,176.272,0,0,0-17.635,5.7l-.005,0a.988.988,0,1,1-.716-1.841l.007,0a177.785,177.785,0,0,1,17.876-5.633c3.013-.816,6.056-1.5,9.091-2.215,3.05-.645,6.095-1.313,9.16-1.876q9.18-1.759,18.433-3.052,9.246-1.318,18.532-2.29c12.377-1.32,24.791-2.235,37.214-2.886q9.318-.483,18.645-.743c6.219-.17,12.434-.286,18.661-.269a.418.418,0,0,1,0,.837Z" transform="translate(-712.999 -560.155)" fill="#fff"/></g></g></g></g><g transform="translate(315.616 14.681)" opacity="0.87"><g clip-path="url(#i)"><g transform="translate(2.056 0)"><g clip-path="url(#j)"><rect width="276.086" height="341.687" transform="translate(-93.665 6.434) rotate(-8.731)" fill="url(#k)"/></g></g><g transform="translate(0 32.725)" opacity="0.86"><g clip-path="url(#l)"><path d="M803.561,96.7c-8,8.707-15.835,17.587-23.584,26.529s-15.389,17.983-22.924,27.106-14.964,18.335-22.282,27.633-14.483,18.714-21.532,28.215c-14.061,19.025-27.576,38.468-39.989,58.593q-9.357,15.063-17.579,30.774a297.127,297.127,0,0,0-14.653,32.2l0,0a.987.987,0,1,1-1.848-.7v0A299.055,299.055,0,0,1,654.046,294.7q8.3-15.741,17.765-30.813c12.528-20.13,26.143-39.549,40.3-58.542q10.645-14.226,21.669-28.159,11.043-13.916,22.411-27.566t23.049-27.033c7.791-8.918,15.657-17.766,23.711-26.457a.418.418,0,0,1,.614.569Z" transform="translate(-639.103 -95.995)" fill="#fff"/></g></g></g></g><g transform="translate(285.517 120.061)" opacity="0.87"><g clip-path="url(#m)"><g transform="translate(0 0)"><g clip-path="url(#n)"><rect width="193.452" height="174.147" transform="matrix(0.501, -0.865, 0.865, 0.501, -94.131, 120.16)" fill="url(#o)"/></g></g><g transform="translate(18.175 16.96)" opacity="0.86"><g clip-path="url(#p)"><path d="M615.776,277.759c2.97,10.156,5.613,20.392,8.057,30.681,2.427,10.292,4.635,20.639,6.506,31.053q1.421,7.807,2.545,15.669,1.143,7.857,1.9,15.771c.27,2.636.45,5.28.65,7.924.142,2.647.305,5.294.357,7.949a151.4,151.4,0,0,1-.34,15.942.988.988,0,0,1-1.969-.157v-.014a149.5,149.5,0,0,0,.475-15.729c-.027-2.628-.166-5.256-.284-7.884-.174-2.627-.33-5.254-.575-7.877q-.675-7.872-1.749-15.711-1.051-7.838-2.4-15.639c-1.772-10.4-3.884-20.747-6.214-31.043-2.346-10.29-4.9-20.546-7.767-30.7v-.006a.418.418,0,0,1,.8-.231" transform="translate(-614.956 -277.458)" fill="#fff"/></g></g></g></g></g><g transform="translate(32.328 42.157)"><g clip-path="url(#q)"><rect width="354.365" height="342.995" transform="matrix(0.605, -0.796, 0.796, 0.605, -134.21, 176.597)" fill="url(#r)"/></g></g><g clip-path="url(#a)"><path d="M112.672,592.891h-.006l-21.64-.261A13.377,13.377,0,0,1,77.86,579.317l-.029-32.672a.494.494,0,0,1,.493-.494h0a.493.493,0,0,1,.494.493l.029,32.672a12.386,12.386,0,0,0,12.19,12.327l21.64.261a.494.494,0,0,1-.006.988" transform="translate(-39.395 -276.438)" fill="#fff"/><path d="M78.3,521.221a.494.494,0,0,1-.494-.493l0-5.291a.494.494,0,0,1,.988,0l0,5.291a.494.494,0,0,1-.493.494Z" transform="translate(-39.381 -260.642)" fill="#fff"/></g><g transform="translate(46.137 40.27)"><g clip-path="url(#t)"><rect width="327.364" height="286.079" transform="translate(-99.55 229.815) rotate(-66.584)" fill="url(#u)"/></g></g><g clip-path="url(#a)"><g transform="translate(48.857 46.644)" opacity="0.6"><g clip-path="url(#w)"><path d="M98.933,100.041a5.546,5.546,0,0,1,6.286-5.537c22.178,2.987,98.441,12.22,161.483,7.325a5.129,5.129,0,0,1,5.528,4.832l12.778,236.466a5.9,5.9,0,0,1-5.539,6.212c-26.515,1.593-135.711,7.755-174.665,3.711a4.677,4.677,0,0,1-4.188-4.624Z" transform="translate(-98.933 -94.452)" fill="#fff"/></g></g><g transform="translate(69.398 66.857)" opacity="0.78"><g clip-path="url(#x)"><path d="M140.529,138.971l2.4,50.7a3.222,3.222,0,0,0,3.13,3.072c9.39.256,38.648.944,55.167.068a3.6,3.6,0,0,0,3.406-3.483c.307-9.508.971-37.182-1.205-48.748a4.062,4.062,0,0,0-3.859-3.3l-55.5-1.892a3.427,3.427,0,0,0-3.54,3.587" transform="translate(-140.525 -135.382)" fill="#fff"/></g></g></g><g transform="translate(90.454 77.645)"><g clip-path="url(#y)"><rect width="30.253" height="30.255" transform="translate(-10.09 15.042) rotate(-56.162)" fill="url(#z)"/></g></g><g transform="translate(82.01 105.298)"><g clip-path="url(#aa)"><rect width="35.912" height="43.158" transform="translate(-7.848 10.528) rotate(-56.162)" fill="url(#ab)"/></g></g><g clip-path="url(#a)"><g transform="translate(145.867 70.269)" opacity="0.6"><g clip-path="url(#ad)"><path d="M357.758,146.758a1.8,1.8,0,0,0,1.924-1.7,1.967,1.967,0,0,0-2.026-1.734l-60.862-1.031a1.284,1.284,0,0,0-1.318,1.829l.293.83a2.994,2.994,0,0,0,2.633,1.861Z" transform="translate(-295.37 -142.29)" fill="#fff"/></g></g><g transform="translate(145.875 79.721)" opacity="0.6"><g clip-path="url(#ad)"><path d="M296.811,161.429a1.284,1.284,0,0,0-1.317,1.829l.293.83a3,3,0,0,0,2.633,1.861l59.355-.053a1.8,1.8,0,0,0,1.924-1.7,1.968,1.968,0,0,0-2.026-1.734Z" transform="translate(-295.388 -161.429)" fill="#fff"/></g></g><g transform="translate(145.884 89.309)" opacity="0.6"><g clip-path="url(#ad)"><path d="M296.828,180.846a1.283,1.283,0,0,0-1.317,1.829l.293.83a3,3,0,0,0,2.633,1.861l59.355-.053a1.8,1.8,0,0,0,1.924-1.7,1.968,1.968,0,0,0-2.026-1.734Z" transform="translate(-295.405 -180.845)" fill="#fff"/></g></g><g transform="translate(70.324 135.599)" opacity="0.6"><g clip-path="url(#ag)"><path d="M286.3,278.993a1.719,1.719,0,0,0,1.862-1.7,2.033,2.033,0,0,0-2.089-1.714l-142.577-1c-1.086-.007-1.421.681-.744,1.53l1.168,1.465a4.654,4.654,0,0,0,3.208,1.543Z" transform="translate(-142.402 -274.579)" fill="#fff"/></g></g><g transform="translate(70.333 145.051)" opacity="0.6"><g clip-path="url(#ag)"><path d="M143.513,293.718c-1.086-.008-1.421.681-.743,1.53l1.168,1.465a4.649,4.649,0,0,0,3.207,1.542l139.173-.123a1.718,1.718,0,0,0,1.862-1.7,2.033,2.033,0,0,0-2.089-1.714Z" transform="translate(-142.419 -293.718)" fill="#fff"/></g></g><path d="M165.541,350.713h-.03l-12.033-.1a3.266,3.266,0,0,1-3.335-2.777l-1.067-10.1a2.227,2.227,0,0,1,.524-1.674,2.673,2.673,0,0,1,1.863-.921h0c1.013-.071,2.441-.194,3.952-.323,3.348-.288,7.143-.615,9.373-.645a3.4,3.4,0,0,1,3.4,2.378c.631,2.323.579,6.712.464,11.387a3.006,3.006,0,0,1-3.114,2.775m-14.009-14.587a1.68,1.68,0,0,0-1.174.57,1.245,1.245,0,0,0-.3.936l1.067,10.095a2.282,2.282,0,0,0,2.361,1.893l12.033.1h.022a2.018,2.018,0,0,0,2.126-1.812c.113-4.6.166-8.909-.43-11.1a2.435,2.435,0,0,0-2.4-1.649H164.8c-2.194.03-6.135.369-9.3.641C153.985,335.932,152.553,336.055,151.532,336.126Z" transform="translate(-75.45 -169.144)" fill="#fff"/><g transform="translate(100.103 171.062)" opacity="0.6"><g clip-path="url(#ai)"><path d="M204.234,346.388a1.444,1.444,0,0,0-1.47,1.905l.581,2.193a2.674,2.674,0,0,0,2.481,1.887l109.133-1.239a1.954,1.954,0,0,0,1.93-2l-.012-.539a2.041,2.041,0,0,0-2.02-1.979Z" transform="translate(-202.701 -346.388)" fill="#fff"/></g></g></g><g transform="translate(76.937 160.97)"><g clip-path="url(#aj)"><rect width="23.354" height="21.785" transform="matrix(0.505, -0.863, 0.863, 0.505, -8.378, 13.925)" fill="url(#ak)"/></g></g><g clip-path="url(#a)"><path d="M165.588,402.936h-.03l-12.033-.105a3.264,3.264,0,0,1-3.335-2.776l-1.067-10.095a2.227,2.227,0,0,1,.524-1.675,2.673,2.673,0,0,1,1.863-.922c1.014-.07,2.442-.193,3.953-.323,3.348-.288,7.143-.615,9.373-.644a3.4,3.4,0,0,1,3.4,2.377c.631,2.323.579,6.712.464,11.388a3.006,3.006,0,0,1-3.114,2.775m-14.01-14.587a1.679,1.679,0,0,0-1.174.571,1.245,1.245,0,0,0-.3.936l1.067,10.1a2.281,2.281,0,0,0,2.361,1.892l12.033.105h.022a2.019,2.019,0,0,0,2.126-1.812c.113-4.6.166-8.909-.43-11.1a2.435,2.435,0,0,0-2.4-1.649h-.037c-2.194.029-6.135.368-9.3.641-1.516.13-2.948.253-3.97.324" transform="translate(-75.474 -195.577)" fill="#fff"/><g transform="translate(75.848 193.009)" opacity="0.6"><g clip-path="url(#am)"><path d="M155.138,391.6c2.527-.175,8.021-.738,10.627-.772a2.329,2.329,0,0,1,2.333,1.608c.5,1.859.441,5.566.357,8.987a2,2,0,0,1-2.115,1.833l-9.616-.084a2.221,2.221,0,0,1-2.276-1.866l-.853-8.067a1.562,1.562,0,0,1,1.542-1.639" transform="translate(-153.588 -390.83)" fill="#fff"/></g></g><g transform="translate(100.126 196.851)" opacity="0.6"><g clip-path="url(#ai)"><path d="M204.281,398.611a1.443,1.443,0,0,0-1.47,1.905l.581,2.193a2.675,2.675,0,0,0,2.481,1.887l109.133-1.239a1.954,1.954,0,0,0,1.93-2l-.012-.539a2.042,2.042,0,0,0-2.02-1.979Z" transform="translate(-202.748 -398.611)" fill="#fff"/></g></g><path d="M165.635,455.158h-.03l-12.033-.1a3.266,3.266,0,0,1-3.335-2.777l-1.067-10.1a2.226,2.226,0,0,1,.524-1.675,2.67,2.67,0,0,1,1.862-.921c1.012-.071,2.437-.193,3.946-.322,3.185-.275,7.149-.616,9.38-.646a3.388,3.388,0,0,1,3.4,2.378c.63,2.322.578,6.71.463,11.387a3.006,3.006,0,0,1-3.114,2.775m-.7-15.553H164.9c-2.2.03-6.139.369-9.308.642-1.513.13-2.942.253-3.962.324h0a1.678,1.678,0,0,0-1.174.57,1.246,1.246,0,0,0-.3.936l1.067,10.1a2.283,2.283,0,0,0,2.361,1.893l12.033.1h.022a2.019,2.019,0,0,0,2.126-1.812c.113-4.6.165-8.911-.43-11.1a2.435,2.435,0,0,0-2.4-1.648" transform="translate(-75.497 -222.009)" fill="#fff"/><g transform="translate(75.871 218.798)" opacity="0.6"><g clip-path="url(#am)"><path d="M155.184,443.825c2.527-.175,8.021-.738,10.627-.772a2.329,2.329,0,0,1,2.333,1.608c.5,1.859.441,5.566.357,8.987a2,2,0,0,1-2.115,1.833l-9.616-.084a2.221,2.221,0,0,1-2.276-1.866l-.853-8.067a1.562,1.562,0,0,1,1.542-1.639" transform="translate(-153.634 -443.052)" fill="#fff"/></g></g><g transform="translate(100.148 222.641)" opacity="0.6"><g clip-path="url(#ai)"><path d="M204.327,450.834a1.443,1.443,0,0,0-1.47,1.905l.581,2.193a2.675,2.675,0,0,0,2.481,1.887l109.133-1.239a1.954,1.954,0,0,0,1.93-2l-.012-.538a2.041,2.041,0,0,0-2.02-1.979Z" transform="translate(-202.794 -450.834)" fill="#fff"/></g></g><path d="M165.68,507.381h-.03l-12.033-.105a3.265,3.265,0,0,1-3.335-2.776l-1.067-10.1a2.227,2.227,0,0,1,.524-1.675,2.673,2.673,0,0,1,1.863-.921c1.011-.07,2.436-.193,3.944-.322,3.186-.274,7.15-.615,9.381-.645a3.4,3.4,0,0,1,3.4,2.377c.63,2.322.579,6.711.464,11.387a3.006,3.006,0,0,1-3.114,2.776m-.7-15.553h-.038c-2.2.029-6.14.368-9.309.641-1.513.13-2.941.253-3.961.324h0a1.679,1.679,0,0,0-1.174.57,1.248,1.248,0,0,0-.3.936l1.067,10.1a2.282,2.282,0,0,0,2.361,1.892l12.033.105h.022a2.018,2.018,0,0,0,2.126-1.812c.113-4.6.165-8.911-.43-11.1a2.435,2.435,0,0,0-2.4-1.649" transform="translate(-75.52 -248.443)" fill="#fff"/><g transform="translate(75.894 244.588)" opacity="0.6"><g clip-path="url(#am)"><path d="M155.231,496.048c2.527-.175,8.021-.738,10.627-.772a2.33,2.33,0,0,1,2.333,1.608c.5,1.859.441,5.566.357,8.987a2,2,0,0,1-2.114,1.833l-9.616-.084a2.221,2.221,0,0,1-2.276-1.866l-.853-8.067a1.562,1.562,0,0,1,1.542-1.639" transform="translate(-153.68 -495.275)" fill="#fff"/></g></g><g transform="translate(100.172 248.431)" opacity="0.6"><g clip-path="url(#ai)"><path d="M204.374,503.056a1.443,1.443,0,0,0-1.47,1.905l.581,2.193a2.675,2.675,0,0,0,2.481,1.887L315.1,507.8a1.954,1.954,0,0,0,1.93-2l-.012-.538a2.041,2.041,0,0,0-2.02-1.979Z" transform="translate(-202.841 -503.056)" fill="#fff"/></g></g></g><g transform="translate(126.519 5.18)"><g clip-path="url(#as)"><rect width="41.841" height="42.798" transform="matrix(0.604, -0.797, 0.797, 0.604, -13.641, 17.589)" fill="url(#at)"/></g></g><g clip-path="url(#a)"><path d="M262.15,31.767a.494.494,0,0,1-.491-.448l-.259-2.8a.494.494,0,0,1,.984-.091l.258,2.8a.493.493,0,0,1-.446.537l-.046,0m-.507-5.48a.494.494,0,0,1-.491-.448l-.2-2.124a7.135,7.135,0,0,1,5.053-7.491,14.341,14.341,0,0,1,7.013-.294.494.494,0,0,1-.2.968,13.358,13.358,0,0,0-6.535.274,6.144,6.144,0,0,0-4.349,6.453l.2,2.124a.494.494,0,0,1-.446.537l-.046,0" transform="translate(-132.069 -7.911)" fill="#fff"/></g><g transform="translate(102.047 28.363)"><g clip-path="url(#av)"><rect width="55.829" height="66.703" transform="matrix(0.604, -0.797, 0.797, 0.604, -7.436, 9.796)" fill="url(#aw)"/></g></g><g clip-path="url(#a)"><path d="M246.791,63.2a.494.494,0,0,1,0-.988l2.618,0h0a.494.494,0,0,1,0,.988l-2.618,0Z" transform="translate(-124.665 -31.488)" fill="#fff"/><path d="M212.813,71.335a.494.494,0,0,1-.494-.493l0-3.571a5.042,5.042,0,0,1,5.032-5.041l9.624-.009h0a.494.494,0,0,1,0,.988l-9.624.009a4.053,4.053,0,0,0-4.046,4.052l0,3.571a.494.494,0,0,1-.493.494Z" transform="translate(-107.465 -31.493)" fill="#fff"/></g><g transform="translate(77.018 39.274)"><g clip-path="url(#ay)"><rect width="71.046" height="113.584" transform="matrix(0.477, -0.879, 0.879, 0.477, -6.429, 11.622)" fill="url(#az)"/></g></g><g clip-path="url(#a)"><g transform="translate(58.793 145.258)" opacity="0.87"><g clip-path="url(#bb)"><g transform="translate(0 0)"><g clip-path="url(#bc)"><rect width="176.192" height="180.064" transform="matrix(0.992, -0.129, 0.129, 0.992, -21.071, 2.501)" fill="url(#bd)"/></g></g><g transform="translate(18.022 16.061)" opacity="0.86"><g clip-path="url(#be)"><path d="M156.179,326.72c6.287,3.771,12.486,7.666,18.654,11.617s12.286,7.977,18.36,12.072Q211.412,362.695,229,375.89c11.691,8.836,23.136,18.019,34.061,27.816q8.216,7.32,15.888,15.244a185.234,185.234,0,0,1,14.452,16.673.988.988,0,0,1-1.575,1.192l0,0,0,0a183.489,183.489,0,0,0-14.193-16.588q-7.552-7.913-15.7-15.258c-10.814-9.825-22.169-19.058-33.778-27.951s-23.512-17.414-35.59-25.672q-9.058-6.194-18.26-12.178c-6.135-3.985-12.309-7.92-18.553-11.72l0,0a.418.418,0,0,1,.433-.716" transform="translate(-155.546 -326.661)" fill="#fff"/></g></g></g></g><g transform="translate(108.747 14.176)" opacity="0.87"><g clip-path="url(#bf)"><g transform="translate(0 0)"><g clip-path="url(#bg)"><rect width="315.465" height="251.057" transform="matrix(0.224, -0.975, 0.975, 0.224, -60.918, 264.653)" fill="url(#bh)"/></g></g><g transform="translate(16.921 29.485)" opacity="0.46"><g clip-path="url(#bi)"><path d="M255.214,88.567c6.423,8.031,12.674,16.187,18.856,24.4s12.26,16.5,18.246,24.854S304.19,154.6,309.978,163.1s11.436,17.085,16.981,25.743c11.056,17.335,21.616,35,31.193,53.222q7.224,13.64,13.436,27.8a259.694,259.694,0,0,1,10.843,28.955.988.988,0,0,1-1.892.569l0,0v0a257.76,257.76,0,0,0-10.63-28.786q-6.1-14.106-13.254-27.747c-9.462-18.205-19.922-35.891-30.88-53.251q-8.245-13.006-16.841-25.788-8.613-12.769-17.527-25.334t-18.117-24.918c-6.138-8.232-12.351-16.416-18.725-24.461l0,0a.419.419,0,0,1,.655-.521" transform="translate(-254.469 -88.41)" fill="#fff"/></g></g></g></g></g><g transform="translate(53.384 241.498)"><g clip-path="url(#bj)"><rect width="133.131" height="23.882" transform="translate(-0.635 0.021) rotate(-1.858)" fill="url(#bk)"/></g></g><g transform="translate(53.384 259.843)"><g clip-path="url(#bl)"><rect width="139.457" height="84.545" transform="translate(-8.522 1.076) rotate(-7.198)" fill="url(#bm)"/></g></g><g transform="translate(51.034 259.349)"><g clip-path="url(#bn)"><rect width="137.307" height="21.029" transform="translate(-0.44 0.056) rotate(-7.317)" fill="url(#bo)"/></g></g><g transform="translate(51.034 239.756)"><g clip-path="url(#bp)"><rect width="137.308" height="21.03" transform="translate(-0.44 0.057) rotate(-7.317)" fill="url(#bq)"/></g></g><g transform="translate(49.495 290.254)"><g clip-path="url(#br)"><rect width="151.579" height="113.865" transform="matrix(0.846, -0.533, 0.533, 0.846, -16.262, 10.24)" fill="url(#bs)"/></g></g><g clip-path="url(#a)"><g transform="translate(53.456 297.761)" opacity="0.78"><g clip-path="url(#bu)"><path d="M256.319,603.79h-147.6a.425.425,0,1,1,0-.844h147.6a.425.425,0,1,1,0,.844" transform="translate(-108.244 -602.946)" fill="#fff"/></g></g><g transform="translate(56.298 304.039)" opacity="0.78"><g clip-path="url(#bv)"><path d="M259.233,616.5H114.474a.425.425,0,1,1,0-.844H259.233a.425.425,0,1,1,0,.844" transform="translate(-114 -615.66)" fill="#fff"/></g></g><g transform="translate(57.756 308.66)" opacity="0.78"><g clip-path="url(#bw)"><path d="M260.727,625.861h-143.3a.425.425,0,1,1,0-.844h143.3a.425.425,0,1,1,0,.844" transform="translate(-116.953 -625.017)" fill="#fff"/></g></g></g><g transform="translate(44.689 287.953)"><g clip-path="url(#bx)"><rect width="171.562" height="40.447" transform="translate(-0.102)" fill="url(#by)"/></g></g><g clip-path="url(#a)"><g transform="translate(61.646 270.029)" opacity="0.78"><g clip-path="url(#ca)"><path d="M241.119,547.636H125.3a.425.425,0,1,1,0-.844H241.119a.425.425,0,1,1,0,.844" transform="translate(-124.829 -546.792)" fill="#fff"/></g></g></g><g transform="translate(312.432 8.018)"><g clip-path="url(#cb)"><rect width="303.683" height="315.095" transform="translate(-124.885 99.594) rotate(-38.572)" fill="url(#cc)"/></g></g><g transform="translate(145.408 39.095)"><g clip-path="url(#cd)"><rect width="200.283" height="289.306" transform="translate(-1.735 0)" fill="url(#ce)"/></g></g><g transform="translate(168.704 114.138)"><g clip-path="url(#cf)"><rect width="24.457" height="12.008" transform="matrix(0.968, -0.25, 0.25, 0.968, -5.287, 0.394)" fill="url(#cg)"/></g></g><g transform="translate(195.229 14.943)"><g clip-path="url(#ch)"><rect width="250.433" height="245.291" transform="translate(-90.495 125.589) rotate(-54.689)" fill="url(#ci)"/></g></g><g transform="translate(169.668 88.807)"><g clip-path="url(#cj)"><rect width="29.936" height="19.51" transform="translate(-3.4 1.211) rotate(-19.612)" fill="url(#ck)"/></g></g><g transform="translate(87.104 251.812)"><g clip-path="url(#cl)"><rect width="16.765" height="17.275" transform="matrix(0.677, -0.736, 0.736, 0.677, -3.948, 4.203)" fill="url(#cm)"/></g></g><g transform="translate(87.43 249.74)"><g clip-path="url(#cn)"><rect width="4.065" height="4.724" transform="translate(0 0)" fill="url(#co)"/></g></g><g transform="translate(77.79 189.891)"><g clip-path="url(#cp)"><rect width="37.678" height="70.042" transform="translate(-23.497 0.767) rotate(-20.7)" fill="url(#cq)"/></g></g><g transform="translate(71.933 253.211)"><g clip-path="url(#cr)"><rect width="9.361" height="9.37" transform="translate(-3.374 3.552) rotate(-47.406)" fill="url(#cs)"/></g></g><g transform="translate(72.778 248.895)"><g clip-path="url(#ct)"><rect width="3.511" height="5.697" transform="translate(0 0)" fill="url(#cu)"/></g></g><g transform="translate(68.995 188.882)"><g clip-path="url(#cv)"><rect width="21.288" height="62.883" transform="translate(-2.204 0)" fill="url(#cw)"/></g></g><g transform="translate(69.036 148.418)"><g clip-path="url(#cx)"><rect width="60.955" height="62.249" transform="matrix(0.812, -0.584, 0.584, 0.812, -23.89, 16.029)" fill="url(#cy)"/></g></g><g transform="translate(104.159 133.542)"><g clip-path="url(#cz)"><rect width="20.77" height="24.395" transform="translate(0 0)" fill="url(#da)"/></g></g><g transform="translate(122.539 123.209)"><g clip-path="url(#db)"><rect width="14.354" height="11.893" transform="translate(-4.783 10.356) rotate(-66.274)" fill="url(#dc)"/></g></g><g transform="translate(123.853 128.148)"><g clip-path="url(#dd)"><rect width="5.891" height="5.317" transform="matrix(0.545, -0.838, 0.838, 0.545, -2.299, 3.535)" fill="url(#de)"/></g></g><g transform="translate(58.94 152.993)"><g clip-path="url(#df)"><rect width="23.217" height="23.671" transform="matrix(0.812, -0.584, 0.584, 0.812, -8.436, 6.071)" fill="url(#dg)"/></g></g><g transform="translate(58.711 168.45)"><g clip-path="url(#dh)"><rect width="26.553" height="20.352" transform="translate(-0.269)" fill="url(#di)"/></g></g><g transform="translate(82.127 157.98)"><g clip-path="url(#dj)"><rect width="33.24" height="30.138" transform="translate(-5.578 1.317) rotate(-13.496)" fill="url(#dk)"/></g></g><g transform="translate(96.99 155.895)"><g clip-path="url(#dl)"><rect width="3.725" height="5.901" transform="translate(-0.6 2.449) rotate(-77.171)" fill="url(#dm)"/></g></g><g transform="translate(94.186 157.23)"><g clip-path="url(#dn)"><rect width="5.374" height="10.824" transform="translate(-0.65 3.622) rotate(-80.538)" fill="url(#do)"/></g></g><g transform="translate(83.044 168.723)"><g clip-path="url(#dp)"><rect width="8.452" height="7.523" transform="translate(-0.263)" fill="url(#dq)"/></g></g><g transform="translate(78.894 141.455)"><g clip-path="url(#dr)"><rect width="10.428" height="12.313" transform="translate(-0.037)" fill="url(#ds)"/></g></g><g transform="translate(81.007 132.304)"><g clip-path="url(#dt)"><rect width="17.416" height="17.329" transform="matrix(0.521, -0.854, 0.854, 0.521, -5.677, 9.307)" fill="url(#du)"/></g></g><g transform="translate(75.845 127.169)"><g clip-path="url(#dv)"><rect width="22.846" height="22.852" transform="translate(-7.972 9.495) rotate(-51.697)" fill="url(#dw)"/></g></g><g transform="translate(81.574 138.337)"><g clip-path="url(#dx)"><rect width="4.462" height="4.807" transform="translate(-1.454 2.08) rotate(-58.62)" fill="url(#dy)"/></g></g><g clip-path="url(#a)"><g transform="translate(335.372 177.988)" opacity="0.87"><g clip-path="url(#ea)"><g transform="translate(2.183 0)"><g clip-path="url(#eb)"><rect width="149.29" height="132.195" transform="translate(-13.63 147.975) rotate(-89.547)" fill="url(#ec)"/></g></g><g transform="translate(0 15.382)" opacity="0.86"><g clip-path="url(#ed)"><path d="M785.6,392.313c-9.848,7.819-19.463,15.951-28.912,24.254s-18.7,16.84-27.681,25.64-17.7,17.875-25.893,27.39q-6.17,7.117-11.794,14.662a157.427,157.427,0,0,0-10.366,15.632l0,0a.988.988,0,1,1-1.715-.981l0-.006a159.474,159.474,0,0,1,10.612-15.748q5.719-7.565,11.984-14.672c8.311-9.5,17.127-18.531,26.19-27.29s18.406-17.222,27.924-25.476,19.206-16.307,29.137-24.07a.418.418,0,0,1,.518.657Z" transform="translate(-679.106 -391.563)" fill="#fff"/></g></g></g></g></g><g transform="translate(377.804 321.148)"><g clip-path="url(#ee)"><rect width="15.254" height="6.52" fill="url(#ef)"/></g></g><g transform="translate(377.567 325.923)"><g clip-path="url(#eg)"><rect width="15.767" height="2.623" transform="translate(-0.172)" fill="url(#eh)"/></g></g><g transform="translate(413.13 321.312)"><g clip-path="url(#ei)"><rect width="7.319" height="6.189" transform="translate(-0.038)" fill="url(#ej)"/></g></g><g transform="translate(413.346 327.254)"><g clip-path="url(#ek)"><rect width="7.06" height="0.935" transform="translate(0 0)" fill="url(#el)"/></g></g><g transform="translate(412.608 315.222)"><g clip-path="url(#em)"><rect width="4.785" height="8.363" transform="translate(0 0)" fill="url(#en)"/></g></g><g transform="translate(388.381 315.962)"><g clip-path="url(#eo)"><rect width="4.092" height="6.24" transform="translate(0)" fill="url(#ep)"/></g></g><g transform="translate(381.371 259.764)"><g clip-path="url(#eq)"><rect width="67.074" height="67.576" transform="matrix(0.718, -0.696, 0.696, 0.718, -29.489, 28.583)" fill="url(#er)"/></g></g><g transform="translate(390.031 268.662)"><g clip-path="url(#es)"><rect width="4.007" height="4.008" transform="matrix(0.791, -0.612, 0.612, 0.791, -1.408, 1.071)" fill="url(#et)"/></g></g><g transform="translate(348.225 213.525)"><g clip-path="url(#eu)"><rect width="61.962" height="73.9" transform="translate(-1.425 0.028) rotate(-1.123)" fill="url(#ev)"/></g></g><g transform="translate(343.388 198.689)"><g clip-path="url(#ew)"><rect width="19.855" height="23.021" transform="translate(-10.576 5.971) rotate(-32.49)" fill="url(#ex)"/></g></g><g transform="translate(375.409 204.927)"><g clip-path="url(#ey)"><rect width="10.222" height="13.709" transform="translate(-1.981 0.321) rotate(-9.211)" fill="url(#ez)"/></g></g><g transform="translate(354.867 226.781)"><g clip-path="url(#fa)"><rect width="56.368" height="71.847" transform="translate(-11.654 34.522) rotate(-71.5)" fill="url(#fb)"/></g></g><g transform="translate(359.062 224.463)"><g clip-path="url(#fc)"><rect width="58.539" height="70.908" transform="translate(-12.46 37.176) rotate(-71.5)" fill="url(#fd)"/></g></g><g transform="translate(360.34 222.582)"><g clip-path="url(#fe)"><rect width="48.991" height="62.315" transform="matrix(0.103, -0.995, 0.995, 0.103, -4.518, 42.753)" fill="url(#ff)"/></g></g><g transform="translate(387.677 214.938)"><g clip-path="url(#fg)"><rect width="22.068" height="29.18" transform="translate(-0.564 0.011) rotate(-1.123)" fill="url(#fh)"/></g></g><g transform="translate(398.851 239.676)"><g clip-path="url(#fi)"><rect width="11.89" height="27.407" transform="translate(0 0)" fill="url(#fj)"/></g></g><g transform="translate(372.287 197.411)"><g clip-path="url(#fk)"><rect width="17.872" height="17.716" transform="translate(-6.906 8.269) rotate(-52.579)" fill="url(#fl)"/></g></g><g transform="translate(371.924 191.908)"><g clip-path="url(#fm)"><rect width="22.504" height="22.723" transform="translate(-8.166 9.665) rotate(-52.164)" fill="url(#fn)"/></g></g><g transform="translate(380.656 202.477)"><g clip-path="url(#fo)"><rect width="5.349" height="5.319" transform="matrix(0.608, -0.794, 0.794, 0.608, -1.876, 2.451)" fill="url(#fp)"/></g></g><g transform="translate(343.388 185.62)"><g clip-path="url(#fq)"><rect width="6.51" height="14.679" transform="translate(-1.019 0)" fill="url(#fr)"/></g></g><g clip-path="url(#a)"><path d="M302.474,349.69a.988.988,0,0,1-.974-.832l-.857-5.336a.988.988,0,0,1,1.95-.314l.857,5.337a.988.988,0,0,1-.819,1.132.951.951,0,0,1-.158.013m-1.8-11.188a.988.988,0,0,1-.974-.831l-.939-5.851a.988.988,0,0,1,1.95-.314l.94,5.852a.987.987,0,0,1-.819,1.131,1.014,1.014,0,0,1-.158.012M298.8,326.8a.987.987,0,0,1-.974-.832l-.94-5.851a.988.988,0,0,1,1.951-.314l.939,5.852a.988.988,0,0,1-.819,1.132,1,1,0,0,1-.158.012m-1.879-11.7a.988.988,0,0,1-.974-.832l-.94-5.851a.988.988,0,1,1,1.95-.313l.94,5.851a.988.988,0,0,1-.819,1.132.948.948,0,0,1-.158.013m-1.879-11.7a.988.988,0,0,1-.974-.831l-.939-5.851a.988.988,0,1,1,1.95-.314l.94,5.852a.987.987,0,0,1-.819,1.131.9.9,0,0,1-.158.013m-1.88-11.7a.988.988,0,0,1-.974-.832l-.939-5.851a.988.988,0,1,1,1.95-.314l.939,5.852a.986.986,0,0,1-.818,1.131.96.96,0,0,1-.158.013m-1.879-11.7a.988.988,0,0,1-.974-.831l-.939-5.851a.988.988,0,1,1,1.95-.314l.939,5.852a.987.987,0,0,1-.818,1.131.957.957,0,0,1-.158.013m-1.879-11.7a.988.988,0,0,1-.974-.832l-.94-5.851a.988.988,0,0,1,1.951-.314l.939,5.852a.987.987,0,0,1-.819,1.131.948.948,0,0,1-.158.013" transform="translate(-145.508 -131.835)" fill="#fff"/><path d="M267.807,233.188a.988.988,0,0,1-.66-1.723l1.428-1.282a.988.988,0,0,1,1.319,1.471l-1.427,1.281a.983.983,0,0,1-.66.253m5.847-5.229a.988.988,0,0,1-.658-1.725q2.213-1.973,4.434-3.937a.987.987,0,1,1,1.309,1.479q-2.216,1.964-4.428,3.933a.986.986,0,0,1-.657.25m8.873-7.859a.987.987,0,0,1-.653-1.729q2.224-1.959,4.456-3.911a.987.987,0,1,1,1.3,1.486q-2.228,1.951-4.451,3.907a.983.983,0,0,1-.652.246m8.919-7.806a.987.987,0,0,1-.649-1.733q2.236-1.946,4.479-3.885a.988.988,0,0,1,1.292,1.494q-2.241,1.937-4.474,3.881a.982.982,0,0,1-.648.242m8.964-7.753a.988.988,0,0,1-.645-1.737q2.248-1.933,4.5-3.859a.987.987,0,1,1,1.283,1.5q-2.251,1.925-4.5,3.855a.982.982,0,0,1-.643.239m9.009-7.7a.988.988,0,0,1-.64-1.74q2.259-1.919,4.524-3.832a.988.988,0,1,1,1.275,1.509q-2.263,1.911-4.52,3.829a.984.984,0,0,1-.64.235m9.055-7.648a.987.987,0,0,1-.635-1.744q2.27-1.907,4.546-3.806a.988.988,0,1,1,1.266,1.517q-2.273,1.9-4.542,3.8a.982.982,0,0,1-.635.231m9.1-7.594a.988.988,0,0,1-.632-1.748q2.282-1.893,4.569-3.779a.988.988,0,1,1,1.256,1.524q-2.284,1.884-4.564,3.775a.982.982,0,0,1-.63.228" transform="translate(-135.053 -89.006)" fill="#fff"/><path d="M304.332,250.22a1,1,0,0,1-1-.988.975.975,0,0,1,.972-.988,16.21,16.21,0,0,0,3.272-.333.988.988,0,0,1,.4,1.935,18.091,18.091,0,0,1-3.638.373m8.94-2.486a.988.988,0,0,1-.506-1.837,15.925,15.925,0,0,0,4.217-3.616.987.987,0,1,1,1.527,1.252,17.868,17.868,0,0,1-1.244,1.367,18.172,18.172,0,0,1-3.49,2.694.984.984,0,0,1-.5.139m7.391-8.965a.988.988,0,0,1-.928-1.327,16.28,16.28,0,0,0,1-5.47.988.988,0,0,1,.988-.979h.008a.988.988,0,0,1,.979,1,18.282,18.282,0,0,1-1.124,6.131.988.988,0,0,1-.927.649" transform="translate(-153.532 -116.919)" fill="#fff"/><path d="M206.633,392.555l.431,1.412v.006a.681.681,0,0,1-1.3.4h0l-.432-1.424a.68.68,0,0,1,1.3-.395Z" transform="translate(-103.915 -198.448)" fill="#fff"/><path d="M209.631,402.07l.471,1.4,0,.006a.686.686,0,0,1-1.3.437h0l-.472-1.411a.684.684,0,1,1,1.3-.434Z" transform="translate(-105.431 -203.271)" fill="#fff"/><path d="M212.9,411.491l.512,1.383,0,.006a.691.691,0,0,1-1.3.48h0l-.514-1.4a.689.689,0,0,1,1.294-.476Z" transform="translate(-107.085 -208.048)" fill="#fff"/><path d="M216.462,420.805l.557,1.365,0,.006a.7.7,0,0,1-1.287.525h0l-.559-1.379a.694.694,0,1,1,1.286-.521Z" transform="translate(-108.886 -212.772)" fill="#fff"/><path d="M220.329,429.994l.6,1.345,0,.007a.7.7,0,0,1-1.277.573h0l-.607-1.36a.7.7,0,1,1,1.275-.57Z" transform="translate(-110.843 -217.432)" fill="#fff"/><path d="M224.519,439.037l.653,1.321,0,.007a.7.7,0,1,1-1.263.624h0l-.658-1.337a.7.7,0,0,1,1.262-.621Z" transform="translate(-112.965 -222.02)" fill="#fff"/><path d="M229.052,447.913l.7,1.293,0,.008a.709.709,0,1,1-1.245.679h0l-.711-1.31a.708.708,0,0,1,1.244-.675Z" transform="translate(-115.261 -226.523)" fill="#fff"/><path d="M233.941,456.593l.76,1.263,0,.008a.713.713,0,1,1-1.223.735h0l-.766-1.281a.712.712,0,0,1,1.222-.732Z" transform="translate(-117.739 -230.929)" fill="#fff"/><path d="M239.2,465.054l.815,1.225.005.008a.718.718,0,1,1-1.2.8h0L238,465.838a.717.717,0,0,1,1.2-.792Z" transform="translate(-120.407 -235.224)" fill="#fff"/><path d="M244.853,473.255l.872,1.183.006.008a.723.723,0,1,1-1.164.858h0l-.882-1.2a.722.722,0,0,1,1.163-.854Z" transform="translate(-123.272 -239.389)" fill="#fff"/><path d="M250.894,481.165l.93,1.136.007.008a.727.727,0,1,1-1.125.922h0l-.943-1.156a.726.726,0,1,1,1.125-.918Z" transform="translate(-126.336 -243.406)" fill="#fff"/><path d="M257.336,488.751l.99,1.085.008.009a.732.732,0,1,1-1.081.987h0l-1-1.1a.731.731,0,0,1,1.081-.983Z" transform="translate(-129.606 -247.26)" fill="#fff"/><path d="M264.182,495.967l1.051,1.025.009.01a.736.736,0,0,1-1.028,1.054h0l-1.069-1.046a.735.735,0,1,1,1.029-1.051Z" transform="translate(-133.081 -250.927)" fill="#fff"/><path d="M271.447,502.764l1.111.959.01.009a.741.741,0,0,1-.968,1.122h0l-1.129-.979a.74.74,0,0,1,.968-1.119Z" transform="translate(-136.771 -254.382)" fill="#fff"/><path d="M279.111,509.1l1.167.889.011.008a.746.746,0,0,1-.9,1.187h0l-1.188-.909a.744.744,0,0,1,.9-1.183Z" transform="translate(-140.663 -257.605)" fill="#fff"/><path d="M287.149,514.961l1.22.814.012.008a.75.75,0,1,1-.833,1.248h0L286.3,516.2a.749.749,0,0,1,.834-1.245Z" transform="translate(-144.747 -260.583)" fill="#fff"/><path d="M295.539,520.3l1.27.734.013.008a.755.755,0,1,1-.756,1.307h0l-1.294-.751a.754.754,0,0,1,.757-1.3Z" transform="translate(-149.01 -263.298)" fill="#fff"/><path d="M304.256,525.08l1.315.648.014.006a.76.76,0,0,1-.671,1.363h0l-1.342-.664a.758.758,0,0,1,.673-1.359Z" transform="translate(-153.441 -265.73)" fill="#fff"/><path d="M313.275,529.259l1.356.555.015.006a.764.764,0,0,1-.579,1.414h0l-1.386-.569a.763.763,0,0,1,.58-1.411Z" transform="translate(-158.026 -267.856)" fill="#fff"/><path d="M322.562,532.792l1.393.455.017.005a.769.769,0,0,1-.478,1.461h0l-1.424-.469a.767.767,0,1,1,.479-1.458Z" transform="translate(-162.75 -269.654)" fill="#fff"/><path d="M332.082,535.628l1.42.347.018,0a.773.773,0,0,1-.367,1.5h0l-1.454-.359a.772.772,0,0,1,.369-1.5Z" transform="translate(-167.593 -271.099)" fill="#fff"/><path d="M341.787,537.718l1.444.233.019,0A.778.778,0,1,1,343,539.49h0l-1.481-.241a.777.777,0,0,1,.25-1.533Z" transform="translate(-172.533 -272.163)" fill="#fff"/><path d="M351.63,539.016l1.457.112.02,0a.783.783,0,1,1-.12,1.56h0l-1.5-.118a.781.781,0,0,1,.122-1.558Z" transform="translate(-177.544 -272.825)" fill="#fff"/><path d="M361.544,539.466l1.461-.014h.02a.787.787,0,1,1,.014,1.574h0l-1.5.011a.786.786,0,1,1-.012-1.571Z" transform="translate(-182.594 -273.047)" fill="#fff"/><path d="M371.462,538.956l1.456-.134.019,0a.792.792,0,1,1,.145,1.576h0l-1.495.135a.79.79,0,0,1-.142-1.574Z" transform="translate(-187.645 -272.726)" fill="#fff"/><path d="M381.318,537.646l1.441-.249.018,0a.8.8,0,0,1,.272,1.569h0l-1.478.253a.795.795,0,0,1-.268-1.567Z" transform="translate(-192.664 -272)" fill="#fff"/><path d="M391.057,535.582l1.42-.356.017,0a.8.8,0,0,1,.39,1.554h0l-1.454.362a.8.8,0,0,1-.386-1.552Z" transform="translate(-197.622 -270.894)" fill="#fff"/><path d="M400.631,532.828l1.393-.453.015,0a.805.805,0,0,1,.5,1.532h0l-1.424.46a.8.8,0,1,1-.495-1.53Z" transform="translate(-202.493 -269.442)" fill="#fff"/><path d="M410.013,529.448l1.364-.541.013,0a.81.81,0,1,1,.6,1.505h0l-1.391.549a.808.808,0,1,1-.593-1.5Z" transform="translate(-207.265 -267.679)" fill="#fff"/><path d="M419.182,525.512l1.332-.618.012-.005a.814.814,0,1,1,.685,1.478h0l-1.357.627a.813.813,0,1,1-.682-1.477Z" transform="translate(-211.928 -265.638)" fill="#fff"/><path d="M428.134,521.089l1.3-.686.01-.005a.819.819,0,1,1,.764,1.449h0l-1.322.694a.818.818,0,0,1-.761-1.448Z" transform="translate(-216.477 -263.355)" fill="#fff"/><path d="M436.865,516.238l1.269-.745.009-.005a.824.824,0,1,1,.834,1.421h0l-1.288.753a.822.822,0,0,1-.83-1.42Z" transform="translate(-220.912 -260.86)" fill="#fff"/><path d="M445.384,511.016l1.238-.795.008-.005a.828.828,0,1,1,.9,1.394h0l-1.255.8a.827.827,0,0,1-.892-1.393Z" transform="translate(-225.238 -258.183)" fill="#fff"/><path d="M453.7,505.476l1.21-.84.007,0a.833.833,0,0,1,.95,1.369h0l-1.225.847a.832.832,0,1,1-.946-1.368Z" transform="translate(-229.458 -255.347)" fill="#fff"/><path d="M461.825,499.658l1.184-.878.006,0a.838.838,0,0,1,1,1.346h0l-1.2.884a.836.836,0,1,1-.994-1.345Z" transform="translate(-233.582 -252.375)" fill="#fff"/><path d="M469.779,493.6l1.16-.911,0,0a.842.842,0,0,1,1.04,1.325h0l-1.172.916a.841.841,0,1,1-1.036-1.324Z" transform="translate(-237.616 -249.287)" fill="#fff"/><path d="M477.577,487.348l1.139-.938,0,0a.847.847,0,0,1,1.077,1.307h0l-1.15.943a.845.845,0,1,1-1.072-1.307Z" transform="translate(-241.571 -246.1)" fill="#fff"/><path d="M485.235,480.921l1.122-.962,0,0a.851.851,0,0,1,1.109,1.292h0l-1.131.967a.85.85,0,0,1-1.1-1.292Z" transform="translate(-245.453 -242.829)" fill="#fff"/><path d="M492.78,474.357l1.108-.979,0,0a.856.856,0,1,1,1.133,1.283h0l-1.114.981a.855.855,0,1,1-1.129-1.283Z" transform="translate(-249.277 -239.494)" fill="#fff"/><path d="M500.238,467.7l1.1-.992h0a.861.861,0,1,1,1.154,1.277h0l-1.1.993a.859.859,0,1,1-1.15-1.277Z" transform="translate(-253.054 -236.114)" fill="#fff"/><path d="M507.623,460.964l1.087-1a.865.865,0,0,1,1.176,1.269l0,0-1.093,1a.864.864,0,1,1-1.168-1.273" transform="translate(-256.796 -232.696)" fill="#fff"/><path d="M514.949,454.162l1.08-1.011a.87.87,0,0,1,1.192,1.267l0,0-1.084,1.012a.868.868,0,0,1-1.185-1.27" transform="translate(-260.505 -229.246)" fill="#fff"/><path d="M522.222,447.3l1.073-1.019a.874.874,0,0,1,1.206,1.266l0,0-1.077,1.019a.873.873,0,0,1-1.2-1.268" transform="translate(-264.188 -225.768)" fill="#fff"/><path d="M529.454,440.4l1.068-1.025a.879.879,0,1,1,1.219,1.266l0,0-1.072,1.025a.878.878,0,1,1-1.213-1.268" transform="translate(-267.85 -222.27)" fill="#fff"/><path d="M536.656,433.464l1.064-1.03a.884.884,0,0,1,1.23,1.269h0l-1.068,1.029a.882.882,0,0,1-1.224-1.27" transform="translate(-271.496 -218.754)" fill="#fff"/><path d="M543.835,426.5l1.062-1.033a.888.888,0,0,1,1.239,1.273h0l-1.065,1.031a.887.887,0,0,1-1.235-1.273" transform="translate(-275.129 -215.227)" fill="#fff"/><path d="M551,419.526l1.062-1.034a.893.893,0,0,1,1.245,1.28h0l-1.064,1.032A.891.891,0,0,1,551,419.526" transform="translate(-278.757 -211.695)" fill="#fff"/><path d="M558.168,412.549l1.062-1.034a.9.9,0,1,1,1.252,1.287h0l-1.064,1.031a.9.9,0,0,1-1.248-1.285" transform="translate(-282.383 -208.163)" fill="#fff"/><path d="M565.343,405.579l1.065-1.032a.9.9,0,0,1,1.255,1.3l0,0-1.066,1.029a.9.9,0,0,1-1.252-1.294" transform="translate(-286.014 -204.636)" fill="#fff"/><path d="M572.536,398.628,573.6,397.6a.906.906,0,0,1,1.257,1.306l0,0-1.069,1.025a.905.905,0,0,1-1.254-1.305" transform="translate(-289.652 -201.12)" fill="#fff"/><path d="M579.757,391.707l1.075-1.022a.911.911,0,1,1,1.257,1.32h0l-1.074,1.02a.91.91,0,0,1-1.255-1.318" transform="translate(-293.305 -197.621)" fill="#fff"/><path d="M587.016,384.827l1.081-1.016a.916.916,0,1,1,1.255,1.334l0,0-1.08,1.011a.914.914,0,1,1-1.253-1.332" transform="translate(-296.976 -194.143)" fill="#fff"/><path d="M594.323,378l1.089-1.008a.92.92,0,1,1,1.25,1.35l0,0-1.087,1A.919.919,0,1,1,594.323,378" transform="translate(-300.672 -190.692)" fill="#fff"/><path d="M601.686,371.232l1.1-1a.925.925,0,1,1,1.243,1.369h0l0,0-1.1.992,0,0a.924.924,0,0,1-1.241-1.368" transform="translate(-304.394 -187.275)" fill="#fff"/><path d="M609.117,364.538l1.11-.986a.929.929,0,0,1,1.235,1.389h0l0,0-1.106.98,0,0a.928.928,0,0,1-1.232-1.389" transform="translate(-308.151 -183.896)" fill="#fff"/><path d="M616.627,357.932l1.123-.973a.934.934,0,0,1,1.224,1.412h0l0,0-1.118.966,0,0a.933.933,0,0,1-1.221-1.41" transform="translate(-311.947 -180.562)" fill="#fff"/><path d="M624.223,351.426l1.136-.957a.939.939,0,1,1,1.209,1.436h0l0,0-1.132.949,0,0a.937.937,0,0,1-1.206-1.435" transform="translate(-315.786 -177.281)" fill="#fff"/><path d="M631.913,345.031l1.151-.94a.943.943,0,1,1,1.193,1.461h0l0,0-1.145.932,0,0a.942.942,0,0,1-1.19-1.46" transform="translate(-319.672 -174.056)" fill="#fff"/><path d="M639.7,338.758l1.166-.921a.948.948,0,1,1,1.175,1.487h0l0,0-1.161.913,0,0a.947.947,0,0,1-1.171-1.487" transform="translate(-323.609 -170.896)" fill="#fff"/><path d="M647.6,332.621l1.183-.9a.952.952,0,1,1,1.153,1.516h0l0,0-1.177.892,0,0a.951.951,0,0,1-1.15-1.515" transform="translate(-327.599 -167.804)" fill="#fff"/><path d="M655.615,326.632l1.2-.877a.957.957,0,1,1,1.129,1.546h0l0,0-1.194.869,0,0a.956.956,0,0,1-1.126-1.545" transform="translate(-331.645 -164.79)" fill="#fff"/><path d="M663.745,320.8l1.219-.853a.962.962,0,0,1,1.1,1.577h0l-.005,0-1.21.843,0,0a.96.96,0,0,1-1.1-1.575" transform="translate(-335.752 -161.857)" fill="#fff"/><path d="M672,315.152l1.239-.825a.966.966,0,1,1,1.072,1.607h0l-.005,0-1.229.816-.006,0A.965.965,0,0,1,672,315.152" transform="translate(-339.919 -159.016)" fill="#fff"/><path d="M680.381,309.69l1.258-.8a.971.971,0,1,1,1.039,1.641h0l-.005,0-1.248.786-.005,0a.97.97,0,0,1-1.036-1.64" transform="translate(-344.151 -156.273)" fill="#fff"/><path d="M688.9,304.435l1.28-.765a.976.976,0,1,1,1,1.675h0l-.006,0-1.268.755-.007,0a.974.974,0,0,1-1-1.673" transform="translate(-348.45 -153.634)" fill="#fff"/><path d="M697.549,299.4l1.3-.73a.98.98,0,1,1,.961,1.709h0l-.007,0-1.286.72-.007,0a.979.979,0,0,1-.957-1.707" transform="translate(-352.816 -151.111)" fill="#fff"/><path d="M706.336,294.61l1.319-.693a.985.985,0,0,1,.916,1.743h0l-.007,0-1.305.682-.007,0a.983.983,0,0,1-.914-1.742" transform="translate(-357.251 -148.711)" fill="#fff"/><path d="M715.254,290.08l1.338-.653a.989.989,0,1,1,.868,1.778h0l-.008,0-1.323.642-.008,0a.988.988,0,0,1-.865-1.776" transform="translate(-361.75 -146.445)" fill="#fff"/><path d="M724.311,285.824l1.359-.61a.994.994,0,0,1,.815,1.813h0l-.008,0-1.342.6-.008,0a.992.992,0,0,1-.813-1.811" transform="translate(-366.319 -144.319)" fill="#fff"/><path d="M733.5,281.862l1.378-.566a1,1,0,0,1,.759,1.847h0l-.009,0-1.361.556-.009,0a1,1,0,0,1-.755-1.845" transform="translate(-370.954 -142.342)" fill="#fff"/><path d="M742.821,278.211l1.4-.519a1,1,0,1,1,.7,1.881h0l-.009,0-1.379.509-.01,0a1,1,0,0,1-.695-1.879" transform="translate(-375.653 -140.524)" fill="#fff"/><path d="M752.266,274.889l1.42-.469a1.008,1.008,0,0,1,.632,1.914h0l-.011,0-1.4.458-.012,0a1.006,1.006,0,0,1-.629-1.912" transform="translate(-380.415 -138.874)" fill="#fff"/><path d="M761.843,271.931l1.436-.411a1.012,1.012,0,1,1,.558,1.946h0l-.011,0-1.413.4-.011,0a1.011,1.011,0,0,1-.556-1.944" transform="translate(-385.242 -137.411)" fill="#fff"/><path d="M771.529,269.358,772.98,269a1.017,1.017,0,1,1,.482,1.975h0l-.012,0-1.428.346-.011,0a1.015,1.015,0,0,1-.48-1.973" transform="translate(-390.122 -136.143)" fill="#fff"/><path d="M781.312,267.176l1.465-.3a1.021,1.021,0,0,1,.4,2h0l-.012,0-1.441.287-.012,0a1.02,1.02,0,0,1-.4-2" transform="translate(-395.052 -135.073)" fill="#fff"/><path d="M791.179,265.4l1.476-.235a1.026,1.026,0,1,1,.323,2.026h0l-.013,0-1.451.228-.013,0a1.025,1.025,0,0,1-.32-2.024" transform="translate(-400.023 -134.206)" fill="#fff"/><path d="M801.116,264.026l1.484-.173a1.031,1.031,0,0,1,.238,2.047h-.015l-1.459.167-.013,0a1.029,1.029,0,0,1-.236-2.045" transform="translate(-405.03 -133.547)" fill="#fff"/><path d="M811.1,263.082l1.491-.109a1.035,1.035,0,1,1,.15,2.065h-.015l-1.464.1h-.013a1.034,1.034,0,0,1-.148-2.062" transform="translate(-410.061 -133.104)" fill="#fff"/><path d="M821.128,262.576l1.495-.042a1.04,1.04,0,0,1,.059,2.079h-.016l-1.466.039h-.014a1.038,1.038,0,0,1-.057-2.076" transform="translate(-415.109 -132.883)" fill="#fff"/><path d="M831.17,262.495l1.5.027a1.044,1.044,0,0,1-.037,2.088h-.017l-1.467-.029h-.014a1.043,1.043,0,0,1,.039-2.085" transform="translate(-420.165 -132.864)" fill="#fff"/><path d="M841.206,262.837l1.493.1a1.049,1.049,0,0,1-.136,2.094h-.017l-1.463-.1h-.015a1.047,1.047,0,0,1,.138-2.09" transform="translate(-425.218 -133.036)" fill="#fff"/><path d="M851.219,263.663l1.488.171a1.053,1.053,0,0,1-.241,2.093h0l-.016,0-1.455-.17-.016,0a1.052,1.052,0,0,1,.242-2.09" transform="translate(-430.257 -133.451)" fill="#fff"/><path d="M861.177,264.988l1.478.247a1.058,1.058,0,0,1-.349,2.087h0l-.016,0-1.445-.244-.016,0a1.057,1.057,0,0,1,.35-2.084" transform="translate(-435.268 -134.118)" fill="#fff"/><path d="M871.054,266.827l1.462.325a1.063,1.063,0,1,1-.462,2.075h0l-.017,0-1.427-.32-.017,0a1.061,1.061,0,0,1,.463-2.072" transform="translate(-440.237 -135.043)" fill="#fff"/><path d="M880.819,269.195l1.444.405a1.067,1.067,0,1,1-.577,2.055h0l-.017,0-1.408-.4-.017,0a1.066,1.066,0,0,1,.578-2.052" transform="translate(-445.148 -136.234)" fill="#fff"/><path d="M890.441,272.1l1.419.487a1.072,1.072,0,1,1-.7,2.028h0l-.018-.006-1.383-.478-.017-.006a1.07,1.07,0,0,1,.7-2.024" transform="translate(-449.985 -137.698)" fill="#fff"/><path d="M899.883,275.565l1.388.57a1.077,1.077,0,1,1-.818,1.992h0l-.018-.008-1.352-.558-.017-.007a1.075,1.075,0,0,1,.818-1.988" transform="translate(-454.731 -139.438)" fill="#fff"/><path d="M909.1,279.581l1.351.652a1.081,1.081,0,1,1-.94,1.947h0l-.018-.008-1.314-.638-.018-.008a1.08,1.08,0,0,1,.941-1.944" transform="translate(-459.365 -141.457)" fill="#fff"/><path d="M918.061,284.158l1.308.742a1.086,1.086,0,1,1-1.071,1.888h0l-.02-.011-1.268-.722-.02-.011a1.084,1.084,0,0,1,1.072-1.885" transform="translate(-463.863 -143.757)" fill="#fff"/><path d="M926.694,289.337l1.254.83a1.09,1.09,0,0,1-1.2,1.818h0l-.019-.012-1.215-.807-.019-.012a1.089,1.089,0,0,1,1.2-1.815" transform="translate(-468.198 -146.358)" fill="#fff"/><path d="M934.955,295.088l1.2.911a1.1,1.1,0,1,1-1.328,1.742h0l-.017-.013-1.159-.887-.018-.013a1.094,1.094,0,0,1,1.327-1.738" transform="translate(-472.345 -149.247)" fill="#fff"/><path d="M942.815,301.374l1.133.988a1.1,1.1,0,1,1-1.445,1.657h0l-.016-.014-1.1-.961-.016-.014a1.1,1.1,0,0,1,1.445-1.654" transform="translate(-476.291 -152.405)" fill="#fff"/><path d="M950.247,308.161l1.067,1.059a1.1,1.1,0,0,1-1.556,1.566h0l-.015-.015-1.034-1.031-.015-.015a1.1,1.1,0,0,1,1.555-1.564" transform="translate(-480.023 -155.815)" fill="#fff"/><path d="M957.221,315.416l1,1.126a1.109,1.109,0,0,1-1.662,1.468h0l-.014-.016-.965-1.1-.014-.016a1.107,1.107,0,0,1,1.661-1.465" transform="translate(-483.524 -159.461)" fill="#fff"/><path d="M963.71,323.11l.92,1.189a1.113,1.113,0,1,1-1.76,1.363l0,0-.013-.017-.891-1.156-.013-.017a1.112,1.112,0,0,1,1.76-1.359" transform="translate(-486.781 -163.326)" fill="#fff"/><path d="M969.678,331.214l.84,1.247a1.118,1.118,0,1,1-1.855,1.248h0l-.012-.019-.812-1.212-.012-.018a1.116,1.116,0,0,1,1.854-1.244" transform="translate(-489.776 -167.396)" fill="#fff"/><path d="M975.094,339.7l.753,1.3a1.122,1.122,0,1,1-1.943,1.124v0l-.012-.02-.727-1.264-.012-.02a1.121,1.121,0,0,1,1.942-1.121" transform="translate(-492.492 -171.659)" fill="#fff"/><path d="M979.916,348.541l.661,1.353a1.127,1.127,0,1,1-2.025.99v0l-.01-.022-.637-1.311-.011-.021a1.126,1.126,0,0,1,2.024-.987" transform="translate(-494.91 -176.097)" fill="#fff"/><path d="M984.105,357.7l.562,1.4a1.132,1.132,0,1,1-2.1.844v0l-.01-.023-.54-1.352-.009-.023a1.13,1.13,0,0,1,2.1-.842" transform="translate(-497.009 -180.695)" fill="#fff"/><path d="M987.614,367.149l.456,1.437a1.136,1.136,0,1,1-2.166.688v0l-.008-.025-.437-1.388-.008-.025a1.135,1.135,0,0,1,2.164-.685" transform="translate(-498.766 -185.434)" fill="#fff"/><path d="M990.4,376.836l.343,1.47a1.141,1.141,0,0,1-2.222.519v0l-.005-.026-.328-1.417-.006-.026a1.14,1.14,0,0,1,2.22-.517" transform="translate(-500.158 -190.293)" fill="#fff"/><path d="M992.406,386.719l.223,1.493a1.145,1.145,0,1,1-2.265.339v0l0-.029-.211-1.438,0-.028a1.144,1.144,0,0,1,2.263-.336" transform="translate(-501.161 -195.247)" fill="#fff"/><path d="M993.6,396.737l.1,1.508a1.15,1.15,0,1,1-2.295.148v0l0-.03-.09-1.449,0-.03a1.148,1.148,0,0,1,2.292-.145" transform="translate(-501.754 -200.267)" fill="#fff"/><path d="M993.892,406.823l-.035,1.512a1.154,1.154,0,1,1-2.308-.053v-.033l.036-1.45v-.031a1.153,1.153,0,0,1,2.306.055" transform="translate(-501.88 -205.319)" fill="#fff"/><path d="M993.2,416.908c-.054.5-.1,1-.169,1.5v0a1.159,1.159,0,0,1-2.3-.3v0c.062-.477.111-.959.164-1.439l0-.025a1.158,1.158,0,0,1,2.3.255" transform="translate(-501.462 -210.371)" fill="#fff"/><path d="M991.549,426.9l-.323,1.482a1.164,1.164,0,1,1-2.274-.495v0l.007-.034.31-1.413.007-.034a1.162,1.162,0,0,1,2.271.5" transform="translate(-500.552 -215.365)" fill="#fff"/><path d="M988.9,436.7l-.466,1.442a1.168,1.168,0,0,1-2.223-.719v0l.01-.032.448-1.377.011-.032a1.167,1.167,0,0,1,2.22.721" transform="translate(-499.15 -220.265)" fill="#fff"/><path d="M985.328,446.2l-.6,1.39a1.173,1.173,0,1,1-2.154-.928v0l.013-.03.576-1.329.013-.03a1.171,1.171,0,0,1,2.15.93" transform="translate(-497.288 -225.02)" fill="#fff"/><path d="M980.9,455.342l-.723,1.329a1.177,1.177,0,1,1-2.069-1.125v0l.015-.027.7-1.273.015-.027a1.176,1.176,0,0,1,2.066,1.125" transform="translate(-495.002 -229.595)" fill="#fff"/><path d="M975.674,464.056l-.837,1.26a1.182,1.182,0,0,1-1.97-1.308v0l.017-.025.8-1.207.018-.026a1.181,1.181,0,0,1,1.966,1.308" transform="translate(-492.324 -233.957)" fill="#fff"/><path d="M969.72,472.292l-.942,1.183A1.187,1.187,0,0,1,966.921,472h0l.019-.024.906-1.133.019-.024a1.185,1.185,0,0,1,1.853,1.478" transform="translate(-489.284 -238.08)" fill="#fff"/><path d="M963.088,480l-1.039,1.1a1.191,1.191,0,0,1-1.73-1.638h0l.021-.022,1-1.052.021-.022A1.19,1.19,0,0,1,963.088,480" transform="translate(-485.907 -241.937)" fill="#fff"/><path d="M955.828,487.113l-1.13,1a1.2,1.2,0,1,1-1.59-1.787h0l.023-.02,1.086-.962.023-.021a1.194,1.194,0,0,1,1.586,1.787" transform="translate(-482.22 -245.499)" fill="#fff"/><path d="M947.986,493.586l-1.214.9a1.2,1.2,0,0,1-1.433-1.926h0l.025-.019,1.165-.863.025-.019a1.2,1.2,0,0,1,1.429,1.925" transform="translate(-478.245 -248.738)" fill="#fff"/><path d="M939.6,499.35l-1.292.791a1.205,1.205,0,1,1-1.258-2.056h0l.028-.018,1.237-.753.029-.017a1.2,1.2,0,0,1,1.254,2.054" transform="translate(-474.005 -251.621)" fill="#fff"/><path d="M930.735,504.334l-1.362.666a1.21,1.21,0,1,1-1.062-2.173h0l.032-.015,1.3-.633.031-.015a1.208,1.208,0,0,1,1.059,2.171" transform="translate(-469.527 -254.111)" fill="#fff"/><path d="M921.435,508.456l-1.422.528a1.214,1.214,0,0,1-.846-2.277h0l.035-.013,1.353-.5.035-.013a1.213,1.213,0,0,1,.843,2.275" transform="translate(-464.842 -256.169)" fill="#fff"/><path d="M911.772,511.628l-1.473.378a1.219,1.219,0,0,1-.606-2.362h0l.038-.01,1.4-.356.038-.009a1.217,1.217,0,0,1,.6,2.359" transform="translate(-459.984 -257.751)" fill="#fff"/><path d="M901.831,513.762l-1.508.214a1.224,1.224,0,0,1-.344-2.423h0l.041-.005,1.426-.2.041-.005a1.222,1.222,0,0,1,.341,2.42" transform="translate(-454.999 -258.813)" fill="#fff"/><path d="M891.725,514.775l-1.524.039a1.228,1.228,0,0,1-.063-2.455h.046l1.438-.034h.043a1.227,1.227,0,0,1,.06,2.452" transform="translate(-449.944 -259.316)" fill="#fff"/><path d="M881.587,514.455l-1.52-.143a1.233,1.233,0,0,1,.231-2.454h0l.044,0,1.431.137.044,0a1.231,1.231,0,0,1-.233,2.451" transform="translate(-444.887 -259.078)" fill="#fff"/><g style="mix-blend-mode:color;isolation:isolate"><g clip-path="url(#ft)"><path d="M520.2,112.32a83.721,83.721,0,0,0-9.849-70.878,80,80,0,0,0-9.712-11.9q.694-5.627,1.327-11.388a3.136,3.136,0,0,0-4.407-3.193c-2.345,1.052-5.457,2.5-9.2,4.336A83.136,83.136,0,0,0,448.794,4.961c-15.34-1.323-30.151,1.594-44.528,6.79-23.989-11.26-48.744,5.1-56.249,20.976-3.408,7.21-9.369,10.671-15.449,12.194-11.43-12.015-26.3-22.705-42.771-27.281-28.358-7.877-63.018,3.151-79.561,11.816a38.405,38.405,0,0,0-10.927,8c-7.577-6.706-15.162-13.45-23.463-19.073C142.393-4.276,95.49-6.662,61.373,14.989S9.433,82.218,22.445,120.472c2.7,7.943,6.6,15.7,9.955,23.507l.043,49.185c-8.908,15.592-24.244,28.9-30.026,46.253-6.85,20.557,1.476,44.2,17.159,59.148a75.641,75.641,0,0,0,12.971,9.883A12.235,12.235,0,0,0,45.017,320.6l6.921-.131v4.444H49.183a1.949,1.949,0,0,0-2.029,1.57A1.834,1.834,0,0,0,49.1,328.4h158.22a7.312,7.312,0,0,0,.894-.06,2.273,2.273,0,0,0,.517.06H334.193a8.146,8.146,0,0,0,5.975-2.573,59.734,59.734,0,0,0,9.272-2.042c12.118,4.271,33.034,7.883,64.007.944-.11.622-.213,1.252-.3,1.8a1.426,1.426,0,0,0,1.447,1.641l5.03-.138a.8.8,0,0,0,.782-.781.8.8,0,0,0-.107-.422c-.6-1.048-1.455-2.53-1.9-3.284,5.35-1.348,10.984-3.007,16.9-5.019a138.83,138.83,0,0,0,28.363-3c22.316-4.907,44.207-19.313,53.877-39.129.69-.457,1.379-.912,2.073-1.376,1.133-.758,1.229-2.342.175-2.841l-.345-.162a49.071,49.071,0,0,0,3.235-15.984c.948-29.893-24.918-55.83-23.545-85.706.95-20.671,14.734-38.313,21.062-58.015" transform="translate(0 0)" fill="#8baad1"/></g></g></g></g></g></svg>