<svg xmlns="http://www.w3.org/2000/svg" width="174" height="828.001" viewBox="0 0 174 828.001">
  <path id="Soustraction_2" data-name="Soustraction 2" d="M174,828H50A49.959,49.959,0,0,1,0,778V50A49.959,49.959,0,0,1,50,0H174V828ZM87.863,606.946A56.928,56.928,0,0,0,31,663.809c0,10.089,2.989,20.684,8.885,31.493a127.466,127.466,0,0,0,19.547,26.161,193.71,193.71,0,0,0,19.547,17.869c5.287,4.21,8.849,6.59,8.885,6.613.024-.015,3.565-2.377,8.885-6.613A193.834,193.834,0,0,0,116.3,721.463,127.463,127.463,0,0,0,135.842,695.3c5.9-10.808,8.885-21.4,8.885-31.493A56.928,56.928,0,0,0,87.863,606.946ZM87.5,339A62.5,62.5,0,1,0,150,401.5,62.57,62.57,0,0,0,87.5,339ZM50.064,82.322h-.021c-.176,0-.357.005-.537.013h-.181c-4.333.252-7.935,2.575-9.87,3.824l-.037.025c-.064.038-.126.081-.179.117l-.014.01-.012.008-.041.029-.039.027-.011.007-.056.039c-.055.037-.1.069-.148.1-.717.454-1.416.943-2.077,1.453a20.748,20.748,0,0,0-7,9.04l0,0,0,0-.012.033-.006.017-.006.018-.01.028,0,.008,0,.009,0,.013-.023.067c-.043.125-.085.255-.125.385l-.01.032-.01.032-.013.041-.012.041c-1.739,5.705-2.978,13.019,4.4,27.666.492.977,1.027,1.995,1.589,3.024,1.233,2.257,2.408,4.327,3.592,6.327a146.93,146.93,0,0,0,22.77,29.413c10.623,10.888,15.371,14.45,26.03,22.159,11.819,8.547,23.155,13.449,31.1,13.449,7.365,0,13.182,0,21.458-9.978,8.679-10.482,5.065-16.893-.133-22.26-4.888-5.02-18.743-14.383-27.8-14.383a11.179,11.179,0,0,0-3.549.535l-.076.026-.028.01-.007,0-.012,0-.029.01-.074.027a8.344,8.344,0,0,0-1.665.822c-4.617,2.951-8.013,5.039-9.677,5.039-.792,0-1.632-.6-3.215-1.944-.3-.252-.619-.53-.923-.793l-.367-.333-.119-.1-.081-.071-.011-.01a116.014,116.014,0,0,1-9.056-8.427l-.441-.46-.07-.073-.6-.634c-.224-.224-.426-.435-.622-.64l-.051-.053-.133-.139c-.112-.117-.234-.243-.361-.37l-.166-.171-.013-.014c-1.977-2.041-3.537-3.65-8.7-9.493l-.117-.133-.117-.134-.12-.136c-1.3-1.466-2.319-2.624-3.048-3.618l-.01-.014-.009-.013-.01-.013a4.907,4.907,0,0,1-1.107-2.312c-.1-1.323,1.071-3.508,4.038-7.542a14.292,14.292,0,0,0,2.178-4.246l0-.009,0-.009.014-.045,0-.007.012-.04,0-.006,0-.008c1.023-3.4.72-7.244-.9-11.438l-.006-.014-.006-.014-.016-.041-.015-.037-.02-.051-.005-.013,0-.008,0-.008-.009-.022-.009-.022-.007-.019-.007-.019-.005-.013,0-.005-.025-.062c-.225-.56-.476-1.131-.744-1.7q-.078-.163-.158-.325l-.032-.065-.005-.011a64.3,64.3,0,0,0-6.95-10.553c-.974-1.245-1.954-2.451-2.7-3.363l-.9-1.1-.334-.4c-.3-.372-.617-.733-.934-1.073l-.078-.084-.013-.014-.013-.014-.051-.055-.057-.06-.011-.012-.01-.01A14.014,14.014,0,0,0,51,82.353h-.011l-.073,0h-.026l-.059,0h-.1l-.037,0h-.017c-.16-.007-.321-.011-.477-.012h-.133Z" transform="translate(0 0)" fill="#f0ae37"/>
</svg>
